<svg width="501" height="578" viewBox="0 0 501 578" fill="none" xmlns="http://www.w3.org/2000/svg">
<path d="M371.635 288.961L374.562 283.843C372.843 284.406 371.124 284.923 369.405 285.486L371.635 289.008V288.961Z" fill="#0CBFE7"/>
<path d="M2.80164 577.948H6.2004C5.40891 577.336 4.66397 576.772 3.91904 576.16L2.80164 577.948Z" fill="white"/>
<path d="M500.173 577.941L498.221 574.89C496.921 575.923 495.62 576.909 494.319 577.941H500.173Z" fill="white"/>
<path d="M477.373 577.948C482.681 574.372 487.942 570.655 493.11 566.797L490.084 562.045C482.635 567.597 474.999 572.914 467.177 577.948H477.373Z" fill="white"/>
<path d="M11.9747 563.174L8.995 567.973C13.6508 571.408 18.3532 574.748 23.1487 577.995H33.345C26.0354 573.29 18.9119 568.35 11.9282 563.174H11.9747Z" fill="white"/>
<path d="M20.123 549.906L17.1433 554.705C29.1088 563.08 41.5399 570.843 54.39 577.948H66.309C50.2463 569.62 34.8355 560.257 20.123 549.906Z" fill="white"/>
<path d="M446.129 577.948C459.492 570.608 472.342 562.469 484.773 553.717L481.747 548.965C466.615 559.646 450.739 569.385 434.21 577.948H446.129Z" fill="white"/>
<path d="M406.509 577.948C431.046 567.691 454.418 555.082 476.301 540.45L473.274 535.698C447.807 552.777 420.291 567.032 391.238 577.948H406.463H406.509Z" fill="white"/>
<path d="M109.282 577.948C80.6483 567.173 53.5978 553.2 28.4563 536.497L25.4766 541.296C46.9865 555.599 69.9398 567.926 94.0105 577.995H109.235L109.282 577.948Z" fill="white"/>
<path d="M365.397 573.431C401.852 562.657 436.212 546.895 467.686 526.899L464.66 522.147C433.14 542.143 398.733 557.858 362.231 568.491L365.351 573.431H365.397Z" fill="white"/>
<path d="M137.82 568.35C101.877 557.811 67.9823 542.378 36.9279 522.806L33.9481 527.605C65.0957 547.225 98.9902 562.704 134.933 573.384L137.82 568.35Z" fill="white"/>
<path d="M147.318 551.883C111.142 542.238 76.9681 527.699 45.4946 508.927L42.5149 513.726C74.0349 532.498 108.255 547.178 144.385 556.917L147.318 551.883Z" fill="white"/>
<path d="M355.11 557.246C392.03 547.365 426.903 532.451 458.981 513.208L455.955 508.456C423.876 527.699 388.911 542.566 351.944 552.259L355.11 557.246Z" fill="white"/>
<path d="M344.634 540.779C382.021 531.84 417.405 517.725 450.089 499.234L447.063 494.483C414.379 512.973 378.901 526.994 341.422 535.745L344.634 540.779Z" fill="white"/>
<path d="M156.91 535.227C120.547 526.523 86.0476 512.832 54.1551 494.906L51.1754 499.705C83.0679 517.678 117.568 531.463 153.976 540.309L156.91 535.227Z" fill="white"/>
<path d="M166.69 518.289C130.095 510.479 95.2694 497.682 63.0045 480.556L60.0247 485.355C92.2897 502.481 127.115 515.419 163.71 523.418L166.643 518.289H166.69Z" fill="white"/>
<path d="M333.973 524.029C371.825 516.078 407.768 502.81 441.058 485.072L438.031 480.32C404.742 498.011 368.706 511.185 330.761 518.948L333.973 524.029Z" fill="white"/>
<path d="M176.559 501.163C139.731 494.294 104.626 482.344 71.9887 466.065L69.0089 470.864C101.646 487.19 136.751 499.234 173.579 506.292L176.559 501.116V501.163Z" fill="white"/>
<path d="M323.171 507.045C361.535 500.082 398.037 487.661 431.885 470.676L428.859 465.924C394.918 482.862 358.323 495.141 319.912 501.916L323.171 507.092V507.045Z" fill="white"/>
<path d="M312.183 489.777C351.013 483.802 388.12 472.275 422.573 456.09L419.547 451.291C385.001 467.429 347.801 478.815 308.878 484.555L312.183 489.777Z" fill="white"/>
<path d="M186.614 483.802C149.554 477.874 114.123 466.817 81.1127 451.385L78.1329 456.184C111.143 471.664 146.574 482.861 183.588 489.025L186.614 483.802Z" fill="white"/>
<path d="M196.768 466.159C159.475 461.172 123.764 451.009 90.3354 436.424L87.3557 441.27C120.738 455.949 156.448 466.206 193.742 471.428L196.768 466.159Z" fill="white"/>
<path d="M301.008 472.228C340.396 467.288 378.015 456.702 413.167 441.27L410.094 436.471C374.896 451.809 337.137 462.254 297.655 466.959L301.008 472.228Z" fill="white"/>
<path d="M289.648 454.35C329.548 450.492 367.819 440.846 403.576 426.214L400.503 421.368C364.653 435.906 326.289 445.41 286.249 448.986L289.648 454.35Z" fill="white"/>
<path d="M207.099 448.28C169.573 444.234 133.537 434.966 99.7355 421.227L96.7092 426.073C130.511 439.906 166.5 449.316 203.98 453.597L207.053 448.28H207.099Z" fill="white"/>
<path d="M217.531 430.166C179.725 427.108 143.41 418.733 109.236 405.889L106.21 410.782C140.383 423.768 176.652 432.284 214.411 435.577L217.531 430.213V430.166Z" fill="white"/>
<path d="M278.102 436.189C318.561 433.413 357.438 424.756 393.846 410.923L390.773 406.077C354.272 419.768 315.256 428.284 274.657 430.731L278.102 436.142V436.189Z" fill="white"/>
<path d="M266.321 417.698C307.339 416.098 346.821 408.382 383.928 395.397L380.808 390.504C343.608 403.348 303.94 410.876 262.783 412.146L266.274 417.651L266.321 417.698Z" fill="white"/>
<path d="M228.145 411.77C190.107 409.7 153.465 402.266 118.873 390.268L115.846 395.161C150.393 407.3 186.987 414.875 224.979 417.228L228.145 411.77Z" fill="white"/>
<path d="M238.947 393.091C200.63 392.009 163.662 385.563 128.744 374.413L125.671 379.353C160.59 390.645 197.51 397.279 235.781 398.643L238.947 393.138V393.091Z" fill="white"/>
<path d="M254.357 398.832C295.98 398.408 336.113 391.727 373.919 379.636L370.799 374.742C332.854 386.74 292.581 393.233 250.818 393.28L254.357 398.879V398.832Z" fill="white"/>
<path d="M138.659 358.322L135.586 363.262C171.995 373.99 210.499 379.777 250.259 379.777C290.02 379.777 327.686 374.131 363.769 363.639L360.603 358.699C325.498 368.767 288.484 374.131 250.259 374.131C212.035 374.131 174.09 368.579 138.659 358.322Z" fill="white"/>
<path d="M148.762 341.996L145.689 346.983C179.118 355.875 214.176 360.674 250.306 360.674C286.435 360.674 320.469 356.063 353.432 347.406L350.266 342.419C318.281 350.653 284.805 355.075 250.306 355.075C215.806 355.075 181.259 350.559 148.808 342.043L148.762 341.996Z" fill="white"/>
<path d="M159.006 325.435L155.887 330.469C186.196 337.715 217.809 341.573 250.261 341.573C282.712 341.573 313.115 337.903 342.912 330.893L339.699 325.811C310.926 332.398 280.989 335.88 250.261 335.88C219.532 335.88 188.338 332.257 159.006 325.388V325.435Z" fill="white"/>
<path d="M169.435 308.591L166.269 313.672C193.413 319.412 221.487 322.423 250.261 322.423C279.034 322.423 305.712 319.553 332.203 314.096L328.944 308.967C303.477 314.048 277.171 316.777 250.261 316.777C223.35 316.777 195.554 313.954 169.389 308.591H169.435Z" fill="white"/>
<path d="M369.405 285.443C371.127 284.925 372.85 284.361 374.573 283.796L378.763 276.504C374.619 277.915 370.476 279.232 366.285 280.503L369.451 285.443H369.405Z" fill="#0CBFE7"/>
<path d="M321.356 297.064L318.05 291.888C295.982 295.652 273.354 297.675 250.215 297.675C227.075 297.675 202.772 295.558 179.958 291.465L176.746 296.64C200.584 301.016 225.12 303.321 250.215 303.321C275.31 303.321 298.217 301.157 321.31 297.064H321.356Z" fill="white"/>
<path d="M388.12 260.083L392.496 252.461C380.577 256.978 368.379 260.977 355.948 264.365L359.114 269.352C368.938 266.623 378.622 263.518 388.12 260.083Z" fill="#0CBFE7"/>
<path d="M310.321 279.75L307.016 274.527C288.485 277.162 269.536 278.573 250.261 278.573C223.909 278.573 198.162 275.986 173.253 271.093L177.444 277.632C201.095 281.914 225.445 284.172 250.261 284.172C270.653 284.172 290.72 282.62 310.321 279.703V279.75Z" fill="white"/>
<path d="M348.732 252.979C367.03 248.415 384.862 242.581 402.135 235.617L406.697 227.619C387.05 235.947 366.611 242.769 345.566 247.944L348.779 252.979H348.732Z" fill="#0CBFE7"/>
<path d="M299.145 262.107L295.793 256.837C280.848 258.531 265.67 259.425 250.305 259.425C218.972 259.425 188.476 255.802 159.191 248.98L163.474 255.708C191.456 261.824 220.508 265.071 250.305 265.071C266.834 265.071 283.129 264.036 299.192 262.107H299.145Z" fill="white"/>
<path d="M333.973 229.83C364.795 223.338 394.406 213.316 422.295 200.236L427.23 191.626C396.967 206.541 364.655 217.786 330.761 224.702L334.02 229.783L333.973 229.83Z" fill="#0CBFE7"/>
<path d="M283.27 237.17L279.825 231.759C270.047 232.465 260.224 232.842 250.26 232.842C211.617 232.842 174.23 227.337 138.799 217.08L143.315 224.184C177.396 233.5 213.246 238.487 250.214 238.487C261.341 238.487 272.329 238.017 283.223 237.123L283.27 237.17Z" fill="white"/>
<path d="M318.933 206.165C363.303 198.59 405.252 183.769 443.616 162.974L449.017 153.517C408.371 176.759 363.396 193.132 315.674 200.989L318.979 206.165H318.933Z" fill="#0CBFE7"/>
<path d="M266.975 211.622L263.483 206.118C259.107 206.259 254.684 206.353 250.261 206.353C203.795 206.353 159.146 198.354 117.523 183.722L122.365 191.344C162.638 204.706 205.611 211.999 250.214 211.999C255.801 211.999 261.388 211.858 266.928 211.622H266.975Z" fill="white"/>
<path d="M458.888 127.734H447.714C403.064 153.046 353.2 170.078 300.217 176.712L303.569 181.982C359.672 174.595 412.236 155.681 458.888 127.734Z" fill="#0CBFE7"/>
<path d="M250.354 185.463L246.722 179.77C193.087 179.299 141.873 168.243 95.0815 148.529L100.343 156.81C146.808 175.3 197.37 185.463 250.261 185.463C250.261 185.463 250.307 185.463 250.354 185.463Z" fill="white"/>
<path d="M287.788 157.187C329.411 153.376 369.265 143.213 406.372 127.734L391.101 127.734C357.393 140.437 321.589 148.671 284.343 151.823L287.741 157.187H287.788Z" fill="#0CBFE7"/>
<path d="M229.496 152.764C172.881 149.847 119.292 135.12 71.1041 110.984L76.8774 120.065C124.693 142.695 177.537 156.246 233.174 158.551L229.496 152.764Z" fill="white"/>
<path d="M35.4407 55.0426C85.7704 86.4245 143.27 107.126 204.82 113.995L200.909 107.879C137.683 100.069 78.9728 77.4851 28.1776 43.6567L35.4407 55.0426Z" fill="white"/>
<path d="M16.3495 -0.00500488C63.0942 32.9295 116.962 56.2659 175.067 67.1813L170.877 60.6414C118.312 50.0083 69.3796 29.0714 26.2199 -0.00500488L16.303 -0.00500488L16.3495 -0.00500488Z" fill="white"/>
<path d="M92.6596 -0.00491333C109.095 6.91132 126.042 12.7925 143.455 17.5444L138.939 10.44C128.37 7.38182 117.987 3.90017 107.791 -0.00491333L92.6596 -0.00491333Z" fill="white"/>
<path d="M500.186 577.948H368.286L244.58 383.352L132.328 577.948H2.80231L183.076 286.478L0.334717 -0.00488281H132.235L500.139 577.948H500.186ZM463.73 127.734H269.023L371.638 288.971L463.777 127.734H463.73Z" fill="url(#paint0_radial_2701_387)"/>
<defs>
<radialGradient id="paint0_radial_2701_387" cx="0" cy="0" r="1" gradientUnits="userSpaceOnUse" gradientTransform="translate(239.409 -35.0315) rotate(89.0758) scale(672.7 665.683)">
<stop offset="0.386825" stop-color="white" stop-opacity="0"/>
<stop offset="0.93" stop-color="white"/>
</radialGradient>
</defs>
</svg>
