<svg width="500" height="500" viewBox="0 0 31 36" fill="none" xmlns="http://www.w3.org/2000/svg">
<path d="M22.4088 17.8719L22.5831 17.5671C22.4807 17.6006 22.3783 17.6314 22.2759 17.665L22.4088 17.8747V17.8719Z" fill="#0CBFE7"/>
<path d="M0.439636 35.0852H0.642081C0.594936 35.0488 0.550565 35.0152 0.506193 34.9787L0.439636 35.0852Z" fill="#3C3C43"/>
<path d="M30.0653 35.0849L29.949 34.9031C29.8715 34.9646 29.794 35.0233 29.7166 35.0849H30.0653Z" fill="#3C3C43"/>
<path d="M28.7071 35.0852C29.0232 34.8722 29.3366 34.6509 29.6444 34.421L29.4642 34.138C29.0204 34.4687 28.5656 34.7854 28.0997 35.0852H28.7071Z" fill="#3C3C43"/>
<path d="M0.986019 34.2053L0.808533 34.4911C1.08585 34.6957 1.36595 34.8947 1.65159 35.088H2.25893C1.82353 34.8078 1.39923 34.5135 0.983245 34.2053H0.986019Z" fill="#3C3C43"/>
<path d="M1.47131 33.415L1.29382 33.7008C2.00654 34.1997 2.74699 34.6621 3.5124 35.0852H4.22234C3.26558 34.5892 2.34765 34.0315 1.47131 33.415Z" fill="#3C3C43"/>
<path d="M26.8462 35.0852C27.6421 34.648 28.4076 34.1632 29.148 33.642L28.9677 33.3589C28.0665 33.9951 27.1208 34.5752 26.1363 35.0852H26.8462Z" fill="#3C3C43"/>
<path d="M24.4863 35.0852C25.9478 34.4743 27.34 33.7232 28.6434 32.8517L28.4631 32.5686C26.9462 33.5859 25.3072 34.4351 23.5767 35.0852H24.4836H24.4863Z" fill="#3C3C43"/>
<path d="M6.78202 35.0852C5.07649 34.4435 3.46525 33.6111 1.96771 32.6163L1.79022 32.9021C3.07145 33.7541 4.43865 34.4883 5.8724 35.088H6.77924L6.78202 35.0852Z" fill="#3C3C43"/>
<path d="M22.0375 34.8162C24.2089 34.1744 26.2556 33.2356 28.1303 32.0446L27.95 31.7615C26.0725 32.9525 24.0231 33.8886 21.8489 34.5219L22.0347 34.8162H22.0375Z" fill="#3C3C43"/>
<path d="M8.48191 34.5135C6.34099 33.8858 4.32208 32.9666 2.47235 31.8008L2.29486 32.0866C4.15014 33.2552 6.16905 34.1772 8.30997 34.8134L8.48191 34.5135Z" fill="#3C3C43"/>
<path d="M9.04775 33.5327C6.89296 32.9582 4.85742 32.0922 2.98272 30.974L2.80524 31.2599C4.68271 32.3781 6.72102 33.2524 8.87304 33.8325L9.04775 33.5327Z" fill="#3C3C43"/>
<path d="M21.4245 33.8521C23.6237 33.2636 25.7008 32.3752 27.6116 31.229L27.4313 30.946C25.5206 32.0922 23.4379 32.9778 21.236 33.5551L21.4245 33.8521Z" fill="#3C3C43"/>
<path d="M20.8007 32.8713C23.0276 32.3388 25.1352 31.4981 27.082 30.3967L26.9017 30.1137C24.9549 31.215 22.8418 32.0502 20.6093 32.5714L20.8007 32.8713Z" fill="#3C3C43"/>
<path d="M9.61909 32.5406C7.4532 32.0222 5.39825 31.2067 3.49859 30.1389L3.32111 30.4248C5.22076 31.4953 7.27572 32.3164 9.44437 32.8433L9.61909 32.5406Z" fill="#3C3C43"/>
<path d="M10.2014 31.5317C8.02166 31.0665 5.94729 30.3042 4.02545 29.2841L3.84796 29.57C5.7698 30.5901 7.84417 31.3608 10.0239 31.8372L10.1986 31.5317H10.2014Z" fill="#3C3C43"/>
<path d="M20.1656 31.8736C22.4202 31.4 24.5611 30.6097 26.544 29.5532L26.3637 29.2701C24.3809 30.3238 22.2344 31.1085 19.9742 31.5709L20.1656 31.8736Z" fill="#3C3C43"/>
<path d="M10.7893 30.5116C8.5957 30.1025 6.50469 29.3906 4.56066 28.421L4.38318 28.7068C6.3272 29.6793 8.41821 30.3967 10.6118 30.8171L10.7893 30.5088V30.5116Z" fill="#3C3C43"/>
<path d="M19.5221 30.8619C21.8073 30.4472 23.9815 29.7073 25.9976 28.6956L25.8173 28.4126C23.7957 29.4215 21.6159 30.1529 19.328 30.5565L19.5221 30.8647V30.8619Z" fill="#3C3C43"/>
<path d="M18.8676 29.8334C21.1805 29.4775 23.3907 28.7909 25.4429 27.8269L25.2627 27.541C23.2049 28.5023 20.9891 29.1805 18.6707 29.5224L18.8676 29.8334Z" fill="#3C3C43"/>
<path d="M11.3883 29.4775C9.18081 29.1244 7.0704 28.4658 5.10418 27.5466L4.9267 27.8325C6.89291 28.7545 9.00333 29.4215 11.208 29.7886L11.3883 29.4775Z" fill="#3C3C43"/>
<path d="M11.993 28.4266C9.77167 28.1295 7.64461 27.5242 5.65344 26.6555L5.47595 26.9441C7.46435 27.8185 9.59141 28.4294 11.8128 28.7405L11.993 28.4266Z" fill="#3C3C43"/>
<path d="M18.2021 28.7881C20.5483 28.4939 22.789 27.8633 24.8828 26.9441L24.6998 26.6583C22.6032 27.5719 20.3541 28.194 18.0024 28.4743L18.2021 28.7881Z" fill="#3C3C43"/>
<path d="M17.5255 27.7232C19.9022 27.4934 22.1817 26.9189 24.3116 26.0473L24.1285 25.7587C21.9932 26.6246 19.708 27.1907 17.3231 27.4037L17.5255 27.7232Z" fill="#3C3C43"/>
<path d="M12.6084 27.3617C10.3732 27.1207 8.22676 26.5686 6.2134 25.7503L6.03314 26.0389C8.0465 26.8628 10.1902 27.4233 12.4226 27.6784L12.6057 27.3617H12.6084Z" fill="#3C3C43"/>
<path d="M13.2298 26.2827C10.9779 26.1006 8.8148 25.6017 6.77926 24.8367L6.599 25.1281C8.63454 25.9016 10.7949 26.4088 13.044 26.605L13.2298 26.2855V26.2827Z" fill="#3C3C43"/>
<path d="M16.8377 26.6414C19.2476 26.4761 21.5632 25.9604 23.7319 25.1365L23.5489 24.8479C21.3747 25.6634 19.0507 26.1706 16.6324 26.3164L16.8377 26.6386V26.6414Z" fill="#3C3C43"/>
<path d="M16.1361 25.5401C18.5793 25.4448 20.931 24.9852 23.1412 24.2117L22.9554 23.9203C20.7396 24.6853 18.3768 25.1337 15.9253 25.2094L16.1333 25.5373L16.1361 25.5401Z" fill="#3C3C43"/>
<path d="M13.862 25.187C11.5963 25.0636 9.41373 24.6209 7.35323 23.9062L7.17297 24.1977C9.2307 24.9207 11.4105 25.3719 13.6734 25.512L13.862 25.187Z" fill="#3C3C43"/>
<path d="M14.5055 24.0744C12.2231 24.0099 10.0212 23.626 7.94127 22.9618L7.75824 23.2561C9.83815 23.9287 12.0373 24.3238 14.3169 24.4051L14.5055 24.0772V24.0744Z" fill="#3C3C43"/>
<path d="M15.4233 24.4163C17.9025 24.3911 20.2931 23.9931 22.5449 23.2729L22.3591 22.9814C20.0989 23.6961 17.7001 24.0828 15.2125 24.0856L15.4233 24.4191V24.4163Z" fill="#3C3C43"/>
<path d="M8.53191 22.0034L8.34888 22.2976C10.5175 22.9366 12.811 23.2813 15.1793 23.2813C17.5476 23.2813 19.7912 22.945 21.9404 22.3201L21.7518 22.0258C19.6608 22.6255 17.4561 22.945 15.1793 22.945C12.9025 22.945 10.6423 22.6143 8.53191 22.0034Z" fill="#3C3C43"/>
<path d="M9.13365 21.0309L8.95062 21.328C10.9418 21.8576 13.03 22.1435 15.182 22.1435C17.3341 22.1435 19.3613 21.8688 21.3247 21.3532L21.1361 21.0561C19.2309 21.5466 17.237 21.81 15.182 21.81C13.1271 21.81 11.0694 21.541 9.13643 21.0337L9.13365 21.0309Z" fill="#3C3C43"/>
<path d="M9.74385 20.0445L9.55804 20.3443C11.3634 20.7759 13.2464 21.0057 15.1794 21.0057C17.1123 21.0057 18.9232 20.7871 20.6981 20.3696L20.5067 20.0669C18.7929 20.4592 17.0097 20.6666 15.1794 20.6666C13.349 20.6666 11.491 20.4508 9.74385 20.0417V20.0445Z" fill="#3C3C43"/>
<path d="M10.365 19.0412L10.1765 19.3438C11.7932 19.6857 13.4655 19.8651 15.1793 19.8651C16.8932 19.8651 18.4822 19.6941 20.0602 19.3691L19.8661 19.0636C18.3491 19.3663 16.7823 19.5288 15.1793 19.5288C13.5764 19.5288 11.9208 19.3606 10.3623 19.0412H10.365Z" fill="#3C3C43"/>
<path d="M22.276 17.6624C22.3786 17.6316 22.4812 17.5979 22.5838 17.5643L22.8334 17.1299C22.5866 17.214 22.3397 17.2925 22.0901 17.3681L22.2787 17.6624H22.276Z" fill="#0CBFE7"/>
<path d="M19.4141 18.3546L19.2172 18.0463C17.9027 18.2705 16.5549 18.391 15.1766 18.391C13.7983 18.391 12.3507 18.2649 10.9918 18.0211L10.8005 18.3293C12.2204 18.59 13.6818 18.7273 15.1766 18.7273C16.6714 18.7273 18.0358 18.5984 19.4113 18.3546H19.4141Z" fill="#3C3C43"/>
<path d="M23.3908 16.1518L23.6515 15.6978C22.9416 15.9669 22.215 16.2051 21.4745 16.4069L21.6631 16.7039C22.2483 16.5414 22.8251 16.3564 23.3908 16.1518Z" fill="#0CBFE7"/>
<path d="M18.7568 17.3233L18.5599 17.0122C17.4561 17.1691 16.3274 17.2532 15.1793 17.2532C13.6097 17.2532 12.0761 17.0991 10.5924 16.8076L10.842 17.1972C12.2508 17.4522 13.7012 17.5867 15.1793 17.5867C16.394 17.5867 17.5892 17.4942 18.7568 17.3205V17.3233Z" fill="#3C3C43"/>
<path d="M21.0447 15.7287C22.1345 15.4568 23.1967 15.1093 24.2255 14.6946L24.4973 14.2181C23.327 14.7142 22.1096 15.1205 20.8561 15.4288L21.0474 15.7287H21.0447Z" fill="#0CBFE7"/>
<path d="M18.0912 16.2724L17.8916 15.9585C17.0014 16.0594 16.0973 16.1126 15.1821 16.1126C13.3158 16.1126 11.4993 15.8968 9.75494 15.4905L10.0101 15.8912C11.6768 16.2555 13.4073 16.4489 15.1821 16.4489C16.1666 16.4489 17.1373 16.3873 18.094 16.2724H18.0912Z" fill="#3C3C43"/>
<path d="M20.1656 14.3499C22.0015 13.9631 23.7652 13.3662 25.4264 12.5871L25.7204 12.0743C23.9178 12.9626 21.9931 13.6324 19.9742 14.0444L20.1684 14.3471L20.1656 14.3499Z" fill="#0CBFE7"/>
<path d="M17.1455 14.787L16.9403 14.4648C16.3579 14.5068 15.7728 14.5292 15.1793 14.5292C12.8775 14.5292 10.6506 14.2013 8.54022 13.5904L8.80922 14.0136C10.8392 14.5685 12.9746 14.8655 15.1765 14.8655C15.8393 14.8655 16.4938 14.8375 17.1427 14.7842L17.1455 14.787Z" fill="#3C3C43"/>
<path d="M19.2698 12.9402C21.9127 12.489 24.4114 11.6063 26.6965 10.3676L27.0182 9.80429C24.5972 11.1887 21.9182 12.164 19.0757 12.632L19.2726 12.9402H19.2698Z" fill="#0CBFE7"/>
<path d="M16.1748 13.2653L15.9668 12.9374C15.7061 12.9458 15.4427 12.9514 15.1792 12.9514C12.4115 12.9514 9.75202 12.475 7.27277 11.6035L7.56118 12.0575C9.96001 12.8533 12.5197 13.2877 15.1764 13.2877C15.5092 13.2877 15.842 13.2793 16.172 13.2653H16.1748Z" fill="#3C3C43"/>
<path d="M27.6061 8.26855H26.9405C24.281 9.77628 21.3109 10.7908 18.155 11.1859L18.3546 11.4998C21.6964 11.0598 24.8273 9.93321 27.6061 8.26855Z" fill="#0CBFE7"/>
<path d="M15.1849 11.7071L14.9686 11.368C11.7738 11.34 8.7233 10.6814 5.93622 9.50722L6.24959 10.0005C9.01726 11.1018 12.029 11.7071 15.1794 11.7071C15.1794 11.7071 15.1821 11.7071 15.1849 11.7071Z" fill="#3C3C43"/>
<path d="M17.4146 10.0229C19.8938 9.79589 22.2677 9.19056 24.478 8.26855H23.5683C21.5605 9.02522 19.4279 9.51565 17.2094 9.70341L17.4118 10.0229H17.4146Z" fill="#0CBFE7"/>
<path d="M13.9424 9.75945C10.5702 9.5857 7.37822 8.70853 4.50793 7.27087L4.85181 7.81175C7.69991 9.15973 10.8475 9.96684 14.1615 10.1042L13.9424 9.75945Z" fill="#3C3C43"/>
<path d="M2.38367 3.93875C5.38152 5.80798 8.80645 7.04106 12.4726 7.45022L12.2397 7.0859C8.47366 6.62069 4.97663 5.27552 1.95105 3.26055L2.38367 3.93875Z" fill="#3C3C43"/>
<path d="M1.24673 0.659882C4.03104 2.6216 7.23966 4.01162 10.7006 4.66179L10.451 4.27225C7.32008 3.63889 4.40543 2.3918 1.83465 0.659882H1.24396H1.24673Z" fill="#3C3C43"/>
<path d="M5.79199 0.659882C6.77094 1.07184 7.78039 1.42215 8.81757 1.7052L8.54857 1.28203C7.91905 1.09987 7.30062 0.892485 6.69329 0.659882H5.79199Z" fill="#3C3C43"/>
<path d="M30.0659 35.0852H22.2094L14.841 23.4943L8.15474 35.0852H0.439644L11.1775 17.724L0.292664 0.659882H8.14919L30.0632 35.0852H30.0659ZM27.8945 8.26855H16.2969L22.4091 17.8726L27.8973 8.26855H27.8945Z" fill="url(#paint0_radial_1_273)"/>
<defs>
<radialGradient id="paint0_radial_1_273" cx="0" cy="0" r="1" gradientUnits="userSpaceOnUse" gradientTransform="translate(14.533 -1.42646) rotate(89.0758) scale(40.0689 39.6509)">
<stop offset="0.386825" stop-color="#3C3C43" stop-opacity="0"/>
<stop offset="0.93" stop-color="#3C3C43"/>
</radialGradient>
</defs>
</svg>
