<svg width="31" height="35" viewBox="0 0 31 35" fill="none" xmlns="http://www.w3.org/2000/svg">
<path d="M22.4088 17.372L22.5832 17.0671C22.4808 17.1007 22.3784 17.1315 22.276 17.165L22.4088 17.3748V17.372Z" fill="#0CBFE7"/>
<path d="M0.439697 34.5853H0.642142C0.594998 34.5488 0.550626 34.5152 0.506255 34.4788L0.439697 34.5853Z" fill="white"/>
<path d="M30.0653 34.5849L29.949 34.4031C29.8715 34.4646 29.794 34.5233 29.7166 34.5849H30.0653Z" fill="white"/>
<path d="M28.7071 34.5853C29.0232 34.3723 29.3366 34.1509 29.6444 33.9211L29.4642 33.6381C29.0204 33.9688 28.5656 34.2854 28.0997 34.5853H28.7071Z" fill="white"/>
<path d="M0.98608 33.7053L0.808594 33.9912C1.08592 34.1958 1.36601 34.3947 1.65165 34.5881H2.25899C1.82359 34.3079 1.39929 34.0136 0.983307 33.7053H0.98608Z" fill="white"/>
<path d="M1.47143 32.915L1.29395 33.2008C2.00666 33.6997 2.74711 34.1621 3.51252 34.5852H4.22246C3.2657 34.0892 2.34777 33.5315 1.47143 32.915Z" fill="white"/>
<path d="M26.8463 34.5853C27.6422 34.1481 28.4076 33.6633 29.1481 33.142L28.9678 32.8589C28.0665 33.4951 27.1208 34.0752 26.1364 34.5853H26.8463Z" fill="white"/>
<path d="M24.4864 34.5853C25.9479 33.9743 27.34 33.2233 28.6435 32.3517L28.4632 32.0687C26.9462 33.086 25.3073 33.9351 23.5768 34.5853H24.4836H24.4864Z" fill="white"/>
<path d="M6.78208 34.5852C5.07655 33.9435 3.46531 33.1111 1.96777 32.1163L1.79028 32.4021C3.07151 33.2541 4.43871 33.9883 5.87246 34.588H6.7793L6.78208 34.5852Z" fill="white"/>
<path d="M22.0376 34.3162C24.209 33.6744 26.2556 32.7356 28.1303 31.5446L27.9501 31.2615C26.0726 32.4526 24.0232 33.3886 21.849 34.022L22.0348 34.3162H22.0376Z" fill="white"/>
<path d="M8.48197 34.0136C6.34105 33.3858 4.32214 32.4666 2.47241 31.3008L2.29492 31.5866C4.15021 32.7553 6.16911 33.6773 8.31003 34.3134L8.48197 34.0136Z" fill="white"/>
<path d="M9.04781 33.0327C6.89302 32.4582 4.85748 31.5922 2.98278 30.4741L2.8053 30.7599C4.68277 31.8781 6.72108 32.7525 8.8731 33.3326L9.04781 33.0327Z" fill="white"/>
<path d="M21.4247 33.3522C23.6238 32.7637 25.701 31.8753 27.6117 30.7291L27.4315 30.446C25.5207 31.5922 23.438 32.4778 21.2361 33.0551L21.4247 33.3522Z" fill="white"/>
<path d="M20.8007 32.3713C23.0276 31.8389 25.1353 30.9981 27.0821 29.8968L26.9018 29.6137C24.955 30.7151 22.8418 31.5502 20.6094 32.0715L20.8007 32.3713Z" fill="white"/>
<path d="M9.61915 32.0406C7.45326 31.5222 5.39831 30.7067 3.49865 29.6389L3.32117 29.9248C5.22082 30.9953 7.27578 31.8164 9.44443 32.3433L9.61915 32.0406Z" fill="white"/>
<path d="M10.2015 31.0317C8.02172 30.5665 5.94735 29.8043 4.02551 28.7842L3.84802 29.07C5.76986 30.0901 7.84423 30.8608 10.024 31.3372L10.1987 31.0317H10.2015Z" fill="white"/>
<path d="M20.1657 31.3736C22.4203 30.9 24.5613 30.1097 26.5441 29.0532L26.3639 28.7701C24.381 29.8239 22.2345 30.6086 19.9744 31.071L20.1657 31.3736Z" fill="white"/>
<path d="M10.7894 30.0117C8.59582 29.6025 6.50481 28.8907 4.56079 27.921L4.3833 28.2069C6.32733 29.1793 8.41833 29.8968 10.6119 30.3171L10.7894 30.0089V30.0117Z" fill="white"/>
<path d="M19.5222 30.3619C21.8074 29.9472 23.9816 29.2073 25.9977 28.1956L25.8175 27.9126C23.7958 28.9215 21.616 29.6529 19.3281 30.0565L19.5222 30.3647V30.3619Z" fill="white"/>
<path d="M18.8677 29.3335C21.1805 28.9776 23.3908 28.291 25.443 27.3269L25.2627 27.0411C23.205 28.0023 20.9892 28.6805 18.6708 29.0224L18.8677 29.3335Z" fill="white"/>
<path d="M11.3884 28.9776C9.18088 28.6245 7.07046 27.9659 5.10424 27.0467L4.92676 27.3325C6.89297 28.2545 9.00339 28.9215 11.2081 29.2887L11.3884 28.9776Z" fill="white"/>
<path d="M11.993 27.9266C9.77167 27.6295 7.64461 27.0242 5.65344 26.1555L5.47595 26.4441C7.46435 27.3185 9.59141 27.9294 11.8128 28.2405L11.993 27.9266Z" fill="white"/>
<path d="M18.2021 28.2881C20.5483 27.9939 22.789 27.3633 24.8828 26.4441L24.6998 26.1583C22.6032 27.0719 20.3541 27.694 18.0024 27.9743L18.2021 28.2881Z" fill="white"/>
<path d="M17.5256 27.2232C19.9022 26.9934 22.1818 26.4189 24.3116 25.5473L24.1286 25.2587C21.9932 26.1246 19.7081 26.6907 17.3231 26.9037L17.5256 27.2232Z" fill="white"/>
<path d="M12.6085 26.8617C10.3733 26.6207 8.22682 26.0686 6.21346 25.2503L6.0332 25.539C8.04656 26.3629 10.1903 26.9234 12.4227 27.1784L12.6057 26.8617H12.6085Z" fill="white"/>
<path d="M13.2298 25.7828C10.9779 25.6006 8.8148 25.1018 6.77926 24.3367L6.599 24.6282C8.63454 25.4017 10.7949 25.9089 13.044 26.1051L13.2298 25.7856V25.7828Z" fill="white"/>
<path d="M16.8378 26.1415C19.2477 25.9761 21.5634 25.4605 23.732 24.6366L23.549 24.3479C21.3748 25.1634 19.0508 25.6707 16.6326 25.8164L16.8378 26.1387V26.1415Z" fill="white"/>
<path d="M16.1361 25.0401C18.5793 24.9448 20.931 24.4852 23.1412 23.7117L22.9554 23.4203C20.7396 24.1854 18.3768 24.6338 15.9253 24.7094L16.1333 25.0373L16.1361 25.0401Z" fill="white"/>
<path d="M13.8621 24.687C11.5964 24.5637 9.41386 24.1209 7.35335 23.4062L7.1731 23.6977C9.23082 24.4207 11.4106 24.8719 13.6735 25.0121L13.8621 24.687Z" fill="white"/>
<path d="M14.5055 23.5744C12.2232 23.51 10.0212 23.126 7.94133 22.4619L7.7583 22.7561C9.83821 23.4287 12.0374 23.8238 14.317 23.9051L14.5055 23.5772V23.5744Z" fill="white"/>
<path d="M15.4234 23.9163C17.9027 23.8911 20.2932 23.4931 22.545 22.7729L22.3592 22.4814C20.0991 23.1961 17.7002 23.5828 15.2126 23.5856L15.4234 23.9191V23.9163Z" fill="white"/>
<path d="M8.53203 21.5034L8.349 21.7977C10.5177 22.4366 12.8111 22.7813 15.1794 22.7813C17.5478 22.7813 19.7913 22.445 21.9405 21.8201L21.752 21.5258C19.661 22.1256 17.4562 22.445 15.1794 22.445C12.9026 22.445 10.6425 22.1144 8.53203 21.5034Z" fill="white"/>
<path d="M9.13372 20.5309L8.95068 20.828C10.9419 21.3577 13.0301 21.6435 15.1821 21.6435C17.3341 21.6435 19.3613 21.3689 21.3248 20.8532L21.1362 20.5562C19.231 21.0466 17.2371 21.31 15.1821 21.31C13.1272 21.31 11.0694 21.041 9.13649 20.5337L9.13372 20.5309Z" fill="white"/>
<path d="M9.74391 19.5445L9.55811 19.8444C11.3635 20.2759 13.2465 20.5057 15.1794 20.5057C17.1124 20.5057 18.9233 20.2871 20.6981 19.8696L20.5068 19.5669C18.7929 19.9593 17.0097 20.1666 15.1794 20.1666C13.3491 20.1666 11.491 19.9508 9.74391 19.5417V19.5445Z" fill="white"/>
<path d="M10.3651 18.5412L10.1765 18.8439C11.7933 19.1858 13.4656 19.3651 15.1794 19.3651C16.8932 19.3651 18.4823 19.1942 20.0603 18.8691L19.8661 18.5636C18.3492 18.8663 16.7823 19.0288 15.1794 19.0288C13.5765 19.0288 11.9209 18.8607 10.3623 18.5412H10.3651Z" fill="white"/>
<path d="M22.276 17.1624C22.3786 17.1316 22.4812 17.098 22.5838 17.0643L22.8334 16.6299C22.5866 16.714 22.3398 16.7925 22.0902 16.8682L22.2788 17.1624H22.276Z" fill="#0CBFE7"/>
<path d="M19.4142 17.8546L19.2173 17.5463C17.9027 17.7705 16.555 17.891 15.1767 17.891C13.7984 17.891 12.3508 17.7649 10.9919 17.5211L10.8005 17.8294C12.2204 18.09 13.6819 18.2273 15.1767 18.2273C16.6714 18.2273 18.0359 18.0984 19.4114 17.8546H19.4142Z" fill="white"/>
<path d="M23.3909 15.6519L23.6516 15.1979C22.9416 15.4669 22.2151 15.7051 21.4746 15.9069L21.6632 16.204C22.2483 16.0414 22.8252 15.8565 23.3909 15.6519Z" fill="#0CBFE7"/>
<path d="M18.7569 16.8233L18.56 16.5123C17.4562 16.6692 16.3275 16.7533 15.1794 16.7533C13.6098 16.7533 12.0762 16.5991 10.5925 16.3077L10.8421 16.6972C12.2509 16.9522 13.7013 17.0868 15.1794 17.0868C16.3941 17.0868 17.5894 16.9943 18.7569 16.8205V16.8233Z" fill="white"/>
<path d="M21.0448 15.2287C22.1347 14.9569 23.1968 14.6094 24.2257 14.1946L24.4974 13.7182C23.3271 14.2142 22.1097 14.6206 20.8562 14.9289L21.0476 15.2287H21.0448Z" fill="#0CBFE7"/>
<path d="M18.0913 15.7724L17.8916 15.4585C17.0014 15.5594 16.0974 15.6126 15.1822 15.6126C13.3158 15.6126 11.4994 15.3968 9.755 14.9905L10.0101 15.3912C11.6768 15.7555 13.4073 15.9489 15.1822 15.9489C16.1667 15.9489 17.1373 15.8873 18.0941 15.7724H18.0913Z" fill="white"/>
<path d="M20.1657 13.8499C22.0016 13.4631 23.7654 12.8662 25.4265 12.0871L25.7205 11.5743C23.9179 12.4627 21.9933 13.1324 19.9744 13.5444L20.1685 13.8471L20.1657 13.8499Z" fill="#0CBFE7"/>
<path d="M17.1456 14.2871L16.9404 13.9648C16.358 14.0069 15.7728 14.0293 15.1794 14.0293C12.8776 14.0293 10.6507 13.7014 8.54028 13.0905L8.80929 13.5136C10.8393 14.0685 12.9747 14.3656 15.1766 14.3656C15.8394 14.3656 16.4939 14.3375 17.1428 14.2843L17.1456 14.2871Z" fill="white"/>
<path d="M19.2698 12.4403C21.9127 11.9891 24.4114 11.1063 26.6965 9.86761L27.0182 9.30432C24.5972 10.6887 21.9182 11.664 19.0757 12.132L19.2726 12.4403H19.2698Z" fill="#0CBFE7"/>
<path d="M16.1749 12.7654L15.9669 12.4375C15.7062 12.4459 15.4427 12.4515 15.1793 12.4515C12.4116 12.4515 9.75208 11.9751 7.27283 11.1035L7.56124 11.5575C9.96008 12.3534 12.5198 12.7878 15.1765 12.7878C15.5093 12.7878 15.8421 12.7794 16.1721 12.7654H16.1749Z" fill="white"/>
<path d="M27.6062 7.76855H26.9406C24.2811 9.27628 21.311 10.2908 18.155 10.6859L18.3547 10.9998C21.6964 10.5598 24.8274 9.43321 27.6062 7.76855Z" fill="#0CBFE7"/>
<path d="M15.185 11.2072L14.9687 10.8681C11.7739 10.8401 8.72336 10.1815 5.93628 9.00726L6.24965 9.5005C9.01732 10.6019 12.029 11.2072 15.1794 11.2072C15.1794 11.2072 15.1822 11.2072 15.185 11.2072Z" fill="white"/>
<path d="M17.4146 9.52289C19.8938 9.29589 22.2677 8.69056 24.478 7.76855H23.5683C21.5605 8.52522 19.4279 9.01565 17.2094 9.20341L17.4118 9.52289H17.4146Z" fill="#0CBFE7"/>
<path d="M13.9425 9.25945C10.5703 9.0857 7.37834 8.20853 4.50806 6.77087L4.85194 7.31175C7.70003 8.65973 10.8476 9.46684 14.1616 9.60416L13.9425 9.25945Z" fill="white"/>
<path d="M2.38367 3.43875C5.38152 5.30799 8.80645 6.54107 12.4726 6.95023L12.2397 6.58591C8.47366 6.1207 4.97663 4.77552 1.95105 2.76056L2.38367 3.43875Z" fill="white"/>
<path d="M1.24679 0.159912C4.0311 2.12163 7.23972 3.51165 10.7007 4.16182L10.4511 3.77228C7.32014 3.13892 4.40549 1.89183 1.83471 0.159912H1.24402H1.24679Z" fill="white"/>
<path d="M5.79211 0.159912C6.77106 0.571873 7.78051 0.92218 8.8177 1.20523L8.54869 0.782057C7.91917 0.599897 7.30075 0.392516 6.69341 0.159912H5.79211Z" fill="white"/>
<path d="M30.066 34.5853H22.2095L14.841 22.9943L8.1548 34.5853H0.439705L11.1776 17.2241L0.292725 0.159912H8.14925L30.0632 34.5853H30.066ZM27.8946 7.76858H16.297L22.4091 17.3726L27.8973 7.76858H27.8946Z" fill="url(#paint0_radial_859_22)"/>
<defs>
<radialGradient id="paint0_radial_859_22" cx="0" cy="0" r="1" gradientUnits="userSpaceOnUse" gradientTransform="translate(14.533 -1.92643) rotate(89.0758) scale(40.0689 39.6509)">
<stop offset="0.386825" stop-color="white" stop-opacity="0"/>
<stop offset="0.93" stop-color="white"/>
</radialGradient>
</defs>
</svg>
