<?xml version="1.0" standalone="no"?>
<!DOCTYPE svg PUBLIC "-//W3C//DTD SVG 1.1//EN" "http://www.w3.org/Graphics/SVG/1.1/DTD/svg11.dtd" >
<svg xmlns="http://www.w3.org/2000/svg" xmlns:xlink="http://www.w3.org/1999/xlink" version="1.1">
<metadata>
Created by FontForge 20170731 at Wed Aug  8 20:03:11 2018
 By Aleksey,,,
Copyright (c) 2018 by Fontastica. All rights reserved.
</metadata>
<defs>
<font id="VisiaPro-HeavyItalic" horiz-adv-x="601" >
  <font-face 
    font-family="Visia Pro Heavy Italic"
    font-weight="900"
    font-style="italic"
    font-stretch="normal"
    units-per-em="1000"
    panose-1="0 0 10 0 0 0 0 0 0 0"
    ascent="800"
    descent="-200"
    x-height="487"
    cap-height="675"
    bbox="-58 -178 1082 833"
    underline-thickness="50"
    underline-position="-225"
    slope="-10"
    unicode-range="U+0020-2122"
  />
<missing-glyph horiz-adv-x="641" 
 />
    <glyph glyph-name=".notdef" horiz-adv-x="641" 
 />
    <glyph glyph-name=".null" horiz-adv-x="0" 
 />
    <glyph glyph-name="nonmarkingreturn" horiz-adv-x="333" 
 />
    <glyph glyph-name="space" unicode=" " horiz-adv-x="280" 
 />
    <glyph glyph-name="exclam" unicode="!" horiz-adv-x="240" 
d="M111 175q14 118 42 310q16 108 23 161h118q-39 -196 -102 -490h-83zM65 65q5 30 26.5 48.5t52.5 18.5q30 0 44.5 -18.5t9.5 -48.5q-5 -29 -26 -47t-51 -18q-31 0 -46 18t-10 47z" />
    <glyph glyph-name="numbersign" unicode="#" horiz-adv-x="623" 
d="M648 447l-33 -93l-101 2l-23 -64h105l-34 -93h-103l-55 -154l-97 1l54 151h-74l-55 -152l-91 1l50 152h-103l30 94l107 2l21 59l-106 1l33 92h103l54 152h96l-52 -154h70l56 152h95l-53 -149h106zM343 355l-21 -60h72l21 60h-72z" />
    <glyph glyph-name="dollar" unicode="$" horiz-adv-x="581" 
d="M176 225l7 -17q17 -45 36 -71t49 -37l34 193q-34 12 -57 24t-46.5 32t-32 49t-2.5 67q13 70 67.5 119t132.5 60l15 83h97l-15 -87q88 -24 145 -146l-88 -44q-17 28 -25.5 40.5t-22 27t-27.5 21.5l-31 -175q36 -12 60 -23.5t50 -31.5t36 -50t3 -69q-13 -70 -72 -123
t-140 -64l-16 -89h-98l15 89q-123 21 -165 178zM266 469q-7 -44 55 -71l26 146q-70 -19 -81 -75zM366 100q36 12 61.5 34t30.5 49q4 27 -13 44.5t-51 31.5z" />
    <glyph glyph-name="percent" unicode="%" horiz-adv-x="787" 
d="M328 626q71 0 95.5 -49.5t11.5 -121.5q-15 -82 -60 -126.5t-107 -44.5q-61 0 -91 46.5t-17 123.5t60 124.5t108 47.5zM774 614l-531 -605h-99l532 605h98zM282 366q26 0 45 23.5t26 64.5t-4 66t-36 25q-23 0 -44 -26t-28 -65t5 -63.5t36 -24.5zM635 342q70 0 95 -49.5
t12 -120.5q-15 -82 -60.5 -126.5t-106.5 -44.5q-62 0 -92 46.5t-17 123.5t60 124t109 47zM589 82q25 0 43.5 24t26.5 65q7 41 -4 66t-36 25q-23 0 -43.5 -25.5t-27.5 -65.5q-7 -39 5 -64t36 -25z" />
    <glyph glyph-name="ampersand" unicode="&#x26;" horiz-adv-x="668" 
d="M626 66l-23 -14q-33 -20 -73 -43l-47 47l-9 9q-96 -65 -208 -65q-92 0 -142.5 48.5t-39.5 128.5l1 7q16 86 112 163q-33 58 -24 111q13 76 76 129.5t143 58.5q84 0 128 -48.5t29 -131.5q-10 -55 -44.5 -99t-94.5 -68q1 -1 34 -37l34 -37q17 40 44 95l83 -26
q-17 -65 -56 -144zM377 544q-36 -2 -65.5 -25.5t-35.5 -56.5q-6 -36 16.5 -62.5t57.5 -27.5q31 3 59 31.5t35 63.5l1 5q4 32 -15 51.5t-53 20.5zM189 190q-4 -41 21.5 -65.5t71.5 -24.5q61 0 125 38q-32 36 -100 108l-35 37q-75 -48 -83 -87v-6z" />
    <glyph glyph-name="parenleft" unicode="(" horiz-adv-x="308" 
d="M366 699q-74 -128 -109 -209.5t-49 -161.5q-32 -184 32 -414h-99q-24 65 -35 184t4 228q15 86 68 209t106 192h98z" />
    <glyph glyph-name="parenright" unicode=")" horiz-adv-x="308" 
d="M289 717q27 -66 35 -191.5t-7 -202.5q-17 -94 -72.5 -219t-102.5 -190h-100q146 230 178 414q14 82 6.5 169t-39.5 230h98z" />
    <glyph glyph-name="asterisk" unicode="*" horiz-adv-x="380" 
d="M356 503q15 -32 26 -50l-88 -44q-20 41 -25 52q-1 -2 -5.5 -7t-5.5 -8q-17 -20 -30 -38l-38 23q-3 1 -17 9t-16 9q2 3 17 22.5t23 29.5h-56l16 86h55l-22 50l84 45l25 -55l43 54l72 -44q-11 -12 -40 -47h55q-11 -71 -13 -87h-60zM341 534q0 -2 1 -3z" />
    <glyph glyph-name="plus" unicode="+" horiz-adv-x="507" 
d="M303 113q-38 0 -76 -2l27 152h-155l17 94h151l27 151h97l-27 -150h153l-17 -94h-151l-26 -151h-20z" />
    <glyph glyph-name="comma" unicode="," horiz-adv-x="247" 
d="M115 137q6 1 34 8q23 7 74 18q-23 -48 -37 -83q-50 -111 -69 -149l-54 -19q-16 -3 -48 -16q58 173 88 238z" />
    <glyph glyph-name="hyphen" unicode="-" horiz-adv-x="456" 
d="M448 265h-348l16 91h349z" />
    <glyph glyph-name="period" unicode="." horiz-adv-x="240" 
d="M69 93q6 31 27.5 48.5t52.5 17.5q30 0 44.5 -17.5t9.5 -48.5q-5 -28 -26.5 -46.5t-50.5 -18.5q-30 0 -46 18.5t-11 46.5z" />
    <glyph glyph-name="slash" unicode="/" horiz-adv-x="556" 
d="M137 -89h-100l494 816h101z" />
    <glyph glyph-name="zero" unicode="0" horiz-adv-x="613" 
d="M422 646q65 0 110.5 -27t65.5 -72t26.5 -102t-6.5 -117l-1 -5q-29 -154 -113 -239t-196 -85q-115 0 -169.5 88t-28.5 235q26 146 111.5 235t200.5 89zM325 99q68 0 119 60t69 162t-12 164t-99 62q-65 0 -120 -64t-72 -161q-17 -99 15.5 -161t99.5 -62z" />
    <glyph glyph-name="one" unicode="1" horiz-adv-x="291" 
d="M150 583q69 28 118 63h86l-114 -646h-99l93 526l-101 -56z" />
    <glyph glyph-name="two" unicode="2" horiz-adv-x="537" 
d="M94 107q52 20 132 80t149.5 136.5t81.5 129.5q7 45 -17 69.5t-69 24.5t-78.5 -23t-67.5 -75l-84 52q58 74 116 109.5t130 35.5q44 0 78 -13t53 -32t31 -43.5t15 -45t2 -38.5q-5 -60 -60 -136.5t-115.5 -133t-119.5 -98.5l229 1l-18 -107h-422l21 102z" />
    <glyph glyph-name="three" unicode="3" horiz-adv-x="536" 
d="M438 353q100 -42 79 -161q-16 -90 -85.5 -141t-175.5 -51q-66 0 -104.5 26.5t-73.5 98.5l100 52q22 -42 44.5 -62t59.5 -20q51 0 88.5 27.5t44.5 70.5q8 43 -26 66.5t-107 23.5h-77l17 99h64q29 0 50.5 2.5t45 10t39 24.5t20.5 42v2q7 38 -16.5 60.5t-69.5 22.5
q-36 0 -64 -17t-62 -55l-84 46q63 81 113 103.5t118 22.5q91 0 137 -51t33 -128q-15 -78 -77 -127z" />
    <glyph glyph-name="four" unicode="4" horiz-adv-x="632" 
d="M588 646l-75 -426h104l-17 -101h-103l-21 -119h-101l21 119h-322q138 162 222.5 270t185.5 257h106zM409 220l41 229l37 56q-108 -160 -213 -285h135z" />
    <glyph glyph-name="five" unicode="5" horiz-adv-x="555" 
d="M307 403q84 0 137 -17t79 -75v1q25 -52 15 -108q-15 -88 -85.5 -146t-171.5 -58q-77 0 -122 35t-80 114l95 51q22 -52 50 -76.5t73 -24.5q53 3 92 32.5t47 73.5l1 3q2 22 -4 39t-21 27t-30.5 16.5t-39.5 9t-41 3.5t-41 1h-120q42 167 73 342h365l-16 -94h-268
q-13 -75 -32 -149h45z" />
    <glyph glyph-name="six" unicode="6" horiz-adv-x="559" 
d="M352 436q4 1 13 1q91 0 143.5 -64.5t35.5 -155.5q-17 -95 -90.5 -156t-172.5 -61q-98 0 -152.5 57.5t-34.5 176.5q3 4 4 13q5 28 34 72.5t79.5 103t80 90t79.5 84.5q22 22 46 49h113q-47 -59 -178 -210zM298 99q53 0 93 33t50 86q9 52 -19 85.5t-82 33.5t-94.5 -33.5
t-50.5 -85.5q-9 -53 19.5 -86t83.5 -33z" />
    <glyph glyph-name="seven" unicode="7" horiz-adv-x="549" 
d="M186 641q66 1 197 1q161 0 226 -1q-132 -227 -375 -638h-112q51 88 220 369q76 125 104 173h-297l17 96h20z" />
    <glyph glyph-name="eight" unicode="8" horiz-adv-x="556" 
d="M461 352q95 -44 76 -156q-16 -93 -86.5 -147t-169.5 -54q-101 0 -155 54.5t-40 137.5q17 94 106 149q-49 59 -34 139q13 77 81.5 129t155.5 52t136.5 -52t35.5 -129q-7 -40 -23 -70.5t-57 -64.5zM374 554q-46 0 -77 -22t-38 -59q-7 -41 17.5 -66.5t69.5 -25.5t77.5 24.5
t39.5 63.5t-17 62t-72 23zM295 93q54 0 93.5 27t46.5 70q8 42 -21 67.5t-87 25.5q-57 0 -94 -24.5t-45 -66.5q-7 -45 22.5 -72t84.5 -27z" />
    <glyph glyph-name="nine" unicode="9" horiz-adv-x="559" 
d="M307 209q-91 0 -143 64.5t-35 155.5q17 95 90.5 156t172.5 61q97 0 152 -58.5t34 -177.5q-2 -3 -3 -11q-6 -36 -60 -107.5t-95.5 -117t-109.5 -116.5q-11 -13 -30.5 -33.5t-23.5 -24.5h-113q101 126 178 209h-14zM375 547q-53 0 -93 -33t-50 -86q-9 -52 19 -85t82 -33
q55 0 95.5 33t49.5 85q9 53 -19.5 86t-83.5 33z" />
    <glyph glyph-name="colon" unicode=":" horiz-adv-x="240" 
d="M131 443q5 29 27 47t52 18t45 -18t10 -47q-5 -30 -26.5 -47.5t-51.5 -17.5t-45.5 17.5t-10.5 47.5zM69 93q6 31 27.5 48.5t52.5 17.5q30 0 44.5 -17.5t9.5 -48.5q-5 -28 -26.5 -46.5t-50.5 -18.5q-30 0 -46 18.5t-11 46.5z" />
    <glyph glyph-name="semicolon" unicode=";" horiz-adv-x="263" 
d="M152 442q5 29 27.5 47.5t52.5 18.5q29 0 44.5 -19t10.5 -47q-5 -29 -27 -47t-51 -18q-30 0 -46 17.5t-11 47.5zM224 120q-59 -134 -89 -194l-99 -24l87 243h112z" />
    <glyph glyph-name="less" unicode="&#x3c;" horiz-adv-x="495" 
d="M513 400l-261 -95l227 -98l-20 -111l-360 166l16 87l417 162z" />
    <glyph glyph-name="greater" unicode="&#x3e;" horiz-adv-x="495" 
d="M70 96l20 111l261 98l-227 95l19 111l361 -162l-15 -87z" />
    <glyph glyph-name="question" unicode="?" horiz-adv-x="526" 
d="M381 646q87 0 137 -51t37 -127q-6 -35 -27.5 -67t-35.5 -45.5t-47 -41.5q-58 -50 -136 -154q-45 5 -83 5q10 30 15 40q19 53 40 78.5t73 68.5q28 23 44 37.5t32.5 37t20.5 42.5q6 35 -19.5 56t-76.5 21q-35 0 -64 -18.5t-75 -72.5q-35 24 -75 46l26 33q83 112 214 112z
M198 65q5 29 26.5 47t51.5 18t45.5 -18t10.5 -47q-5 -30 -27 -47.5t-52 -17.5t-45 17.5t-10 47.5z" />
    <glyph glyph-name="at" unicode="@" horiz-adv-x="761" 
d="M388 652q137 0 228.5 -90t91.5 -233q0 -86 -39.5 -137.5t-112.5 -51.5q-36 0 -55.5 12.5t-40.5 39.5l-1 2q-45 -28 -94 -28q-67 0 -114 50.5t-47 117.5q0 66 48 116t108 50q50 0 90 -22v14h94v-62q0 -46 -1 -68q-2 -19 -2 -55q0 -89 32 -89q26 0 45 36.5t19 86.5
q0 97 -74 166.5t-179 69.5q-106 0 -179 -73t-73 -179q0 -107 75.5 -179t189.5 -72q21 0 69 6q4 0 11 0.5t11 0.5q30 3 64 3h89q-124 -88 -222 -88q-161 0 -263.5 92.5t-102.5 235.5q0 140 96.5 234t238.5 94zM374 251q34 0 58 23.5t24 56.5q0 36 -24 60t-59 24
q-34 0 -57 -24t-23 -59t23 -58t58 -23z" />
    <glyph glyph-name="A" unicode="A" horiz-adv-x="636" 
d="M87 0h-117l375 675h98q18 -74 89 -421q29 -142 51 -254h-111l-42 204h-236zM410 308l-42 207q-28 -49 -32 -57q-30 -54 -83 -150h157z" />
    <glyph glyph-name="B" unicode="B" 
d="M518 351q24 -22 38 -39t24 -48.5t3 -67.5q-20 -115 -108 -171q-57 -25 -111 -25h-311l119 675h239q5 0 15.5 0.5t16.5 0.5q99 0 132 -27h-1q77 -60 59 -162q-7 -46 -27 -82t-70 -70zM527 484q6 35 -10.5 61.5t-54.5 26.5l-206 1l-33 -189h115q32 0 49.5 1t45.5 6t44 15
t30.5 29.5t19.5 48.5zM205 283l-32 -184l114 -1q4 0 14 -0.5t15 -0.5h28q57 0 87 18.5t39 70.5q6 37 -11.5 64.5t-60.5 32.5h-193z" />
    <glyph glyph-name="C" unicode="C" horiz-adv-x="765" 
d="M413 99q109 0 255 125q34 -16 74 -42q-58 -83 -150 -132.5t-189 -49.5q-149 0 -232.5 96.5t-58.5 238.5q26 144 147 242t275 98q88 0 152 -41.5t115 -132.5q-17 -11 -54 -31q-4 -2 -20 -11t-20 -12q-47 71 -89.5 99t-100.5 28q-112 0 -196.5 -67t-102.5 -167
q-18 -101 39.5 -171t155.5 -70z" />
    <glyph glyph-name="D" unicode="D" horiz-adv-x="693" 
d="M406 675q70 0 126 -19.5t90 -53t56 -77.5t25 -92.5t-4 -99.5q-12 -70 -41 -125.5t-65.5 -91t-83.5 -61t-92 -38t-95 -17.5h-269q27 140 75 422q27 160 47 253h231zM176 99l100 -1q122 0 210.5 62.5t106.5 165.5q16 90 -30 162t-133 78q-25 3 -171 3z" />
    <glyph glyph-name="E" unicode="E" horiz-adv-x="553" 
d="M172 675h447l-17 -98h-343l-32 -182h343l-18 -101l-342 -1l-35 -196h342l-17 -97h-447z" />
    <glyph glyph-name="F" unicode="F" horiz-adv-x="553" 
d="M619 675l-17 -98h-343l-32 -182h343l-18 -101l-342 -1l-52 -293h-105l119 675h447z" />
    <glyph glyph-name="G" unicode="G" horiz-adv-x="790" 
d="M455 389q164 0 221 -1h129l-5 -29q-24 -138 -115.5 -229t-233.5 -124q-28 -6 -65 -6q-137 0 -217.5 98.5t-55.5 239.5q25 143 143 240t268 97q95 0 156.5 -37t107.5 -115l13 -22q-48 -30 -94 -50q-51 71 -92 97t-97 26q-113 0 -197.5 -67.5t-103.5 -170.5
q-17 -98 37.5 -166.5t151.5 -68.5q104 0 191 74q49 45 80 117h-107q-22 0 -76.5 -0.5t-76.5 -0.5l18 98h20z" />
    <glyph glyph-name="H" unicode="H" horiz-adv-x="614" 
d="M153 0h-100l119 675h100l-49 -281h307l49 281h101l-119 -675h-100l52 294h-308z" />
    <glyph glyph-name="I" unicode="I" horiz-adv-x="207" 
d="M154 0h-102l119 675h102z" />
    <glyph glyph-name="J" unicode="J" horiz-adv-x="555" 
d="M566 375q-10 -54 -18 -113q-14 -81 -39.5 -132.5t-77.5 -84.5q-73 -45 -166 -45q-66 0 -108 24.5t-83 94.5l89 68q32 -52 55.5 -69.5t71.5 -17.5q63 0 99 38.5t53 130.5l22 125q3 20 11.5 69.5t17.5 103t18 108.5h108z" />
    <glyph glyph-name="K" unicode="K" horiz-adv-x="614" 
d="M279 362q40 -49 118 -153q81 -107 164 -209q-122 0 -145 -1q-107 143 -213 267l-47 -266h-103l119 675h102l-28 -165q-14 -78 -17 -94q72 65 200 172q70 58 104 87h142l-384 -327z" />
    <glyph glyph-name="L" unicode="L" horiz-adv-x="535" 
d="M494 76q-1 -5 -2.5 -14.5t-2.5 -14.5q0 -5 -3 -24t-4 -23h-429l119 675h102l-102 -579h325z" />
    <glyph glyph-name="M" unicode="M" horiz-adv-x="726" 
d="M595 138q4 19 11.5 61t11.5 64l21 117q11 65 18 110q-64 -80 -137 -175q-105 -133 -133 -168q-7 17 -27.5 65t-27.5 65q-72 169 -91 208q-1 -8 -10.5 -59.5t-15.5 -86.5q-13 -87 -60 -340h-102l42 238q6 32 18.5 102t19.5 107l39 229h108q60 -132 143 -328
q100 126 119 150q90 114 141 178h109l-119 -675h-102z" />
    <glyph glyph-name="N" unicode="N" horiz-adv-x="619" 
d="M681 655q-36 -193 -116 -655h-83q-53 96 -129 250q-96 191 -114 222l-84 -472h-100q19 113 58.5 338t58.5 337h85q144 -277 238 -471l83 471h107z" />
    <glyph glyph-name="O" unicode="O" horiz-adv-x="803" 
d="M522 675q145 0 229 -97t59 -238q-25 -140 -143.5 -240t-262.5 -100q-146 0 -230.5 100.5t-60.5 239.5q25 139 144 237t265 98zM418 98q101 0 186 73t102 172q17 98 -41 164.5t-161 66.5t-186 -67t-101 -165q-17 -99 42 -171.5t159 -72.5z" />
    <glyph glyph-name="P" unicode="P" horiz-adv-x="593" 
d="M195 237l-40 -237h-102l119 674l294 3q91 0 131.5 -62t23.5 -156q-16 -92 -78.5 -155.5t-155.5 -64.5zM256 573l-40 -230h106q4 0 10.5 -0.5t9.5 -0.5q83 0 122.5 21t52.5 96q9 52 -9.5 83t-59.5 31h-192z" />
    <glyph glyph-name="Q" unicode="Q" horiz-adv-x="807" 
d="M526 675q144 0 227 -100.5t58 -245.5q-10 -58 -36.5 -105t-87.5 -115l54 -69q-50 -43 -89 -72l-59 74q-68 -28 -107.5 -38t-81.5 -10q-149 0 -233.5 95t-59.5 238q17 96 78.5 176t151 126t185.5 46zM626 184q67 63 81 142q19 105 -40 176.5t-161 71.5t-187.5 -71.5
t-103.5 -172.5q-17 -98 41.5 -165t157.5 -67q58 0 116 24q-30 38 -76 95q-2 3 -9.5 12t-14 17.5t-9.5 12.5q43 37 90 73z" />
    <glyph glyph-name="R" unicode="R" horiz-adv-x="620" 
d="M451 0l-75 238h-181l-40 -238h-102l119 675h293q92 0 132 -61.5t24 -154.5q-12 -64 -47 -117.5t-89 -80.5l81 -261h-115zM517 459q10 54 -9 86.5t-60 32.5h-191l-41 -235h106q3 0 11 -0.5t12 -0.5q82 0 120.5 21t51.5 96z" />
    <glyph glyph-name="S" unicode="S" horiz-adv-x="602" 
d="M275 494q-6 -35 31 -61q24 -17 96 -40q35 -12 57.5 -20.5t52 -26t45 -36.5t24 -49t1.5 -66q-15 -83 -87.5 -139t-172.5 -56h-24q-161 0 -212 188l94 44q24 -68 57.5 -103.5t89.5 -35.5q51 0 96.5 28.5t52.5 65.5q4 20 -4.5 36.5t-31 30t-40.5 21t-53 20.5q-99 36 -135 67
q-56 49 -42 127q14 81 84.5 133.5t165.5 52.5q72 0 122 -36.5t88 -117.5l-90 -48q-18 28 -23 35t-20.5 26t-25.5 24.5t-27.5 12t-38.5 6.5q-51 0 -87.5 -23.5t-42.5 -59.5z" />
    <glyph glyph-name="T" unicode="T" 
d="M155 578l17 97h492l-14 -96h-196l-101 -579h-103l102 578h-197z" />
    <glyph glyph-name="U" unicode="U" horiz-adv-x="621" 
d="M682 654q-4 -19 -10 -54l-42 -244q-13 -77 -19 -100q-26 -115 -111 -185.5t-191 -70.5q-98 0 -161 59.5t-54 156.5q2 25 15 102q16 94 33 178q20 110 32 179h101l-53 -296q0 -3 -2 -10t-2 -11q-6 -26 -8 -44q-6 -35 -8.5 -61.5t1.5 -56.5t16.5 -49t38.5 -31.5t66 -12.5
q151 0 187 171l70 401h105z" />
    <glyph glyph-name="V" unicode="V" horiz-adv-x="698" 
d="M653 675h110q-230 -446 -371 -675h-90l-21 109q-67 341 -109 566h107q34 -129 79 -389q4 -21 7 -42.5t6 -38t8 -41.5q145 267 230 429q29 56 44 82zM365 140l-14 -26q3 5 7.5 14t6.5 12z" />
    <glyph glyph-name="W" unicode="W" horiz-adv-x="1016" 
d="M974 675h108q-51 -110 -105 -227q-23 -49 -66 -141t-78.5 -168.5t-65.5 -138.5h-102q-25 128 -59 397l-12 91q-25 -49 -72.5 -147t-71.5 -148l-94 -193h-99l-27 164q-36 300 -58 511h110q10 -74 27 -240q27 -241 29 -257q46 96 87 183q113 236 154 314h97
q24 -123 50 -348q15 -132 17 -148q102 209 178 384q31 75 53 112zM714 117l6 12z" />
    <glyph glyph-name="X" unicode="X" horiz-adv-x="670" 
d="M458 353q32 -67 110 -243q21 -51 48 -110h-119l-16 33q-58 128 -103 215q-22 -26 -60 -73t-48 -59q-73 -90 -96 -116h-121l280 356l-17 42q-15 37 -53 113q-49 101 -74 164h116q10 -20 44 -92q37 -84 64 -136l196 228h113q-79 -102 -159 -195q-13 -16 -33.5 -40.5
t-37.5 -45t-34 -41.5z" />
    <glyph glyph-name="Y" unicode="Y" horiz-adv-x="698" 
d="M291 675l127 -288l229 288h117l-315 -397l-49 -278h-103l49 277l-174 398h119z" />
    <glyph glyph-name="Z" unicode="Z" horiz-adv-x="598" 
d="M186 675h478l-412 -577h290l-17 -98h-472l422 576h-306z" />
    <glyph glyph-name="bracketleft" unicode="[" horiz-adv-x="313" 
d="M388 722l-17 -93h-109l-110 -622h110l-16 -89h-207l141 804h208z" />
    <glyph glyph-name="bracketright" unicode="]" horiz-adv-x="313" 
d="M246 -82h-207l15 89h110l110 622h-110l16 93h208z" />
    <glyph glyph-name="asciicircum" unicode="^" horiz-adv-x="548" 
d="M450 342l-86 190l-146 -190h-105l236 303h68l138 -303h-105z" />
    <glyph glyph-name="underscore" unicode="_" horiz-adv-x="526" 
d="M33 -114l16 89h419l-16 -89h-419z" />
    <glyph glyph-name="a" unicode="a" horiz-adv-x="605" 
d="M538 476h96l-82 -476h-98l8 45q-72 -50 -181 -50q-91 0 -146.5 75t-38.5 172q17 98 99 171.5t176 73.5q47 0 84.5 -10t75.5 -44zM318 90q64 0 116 44t63 107t-25.5 107.5t-99.5 44.5q-62 0 -114 -45t-64 -111q-11 -62 25 -104.5t99 -42.5z" />
    <glyph glyph-name="b" unicode="b" 
d="M381 486q108 0 168 -70.5t42 -173.5q-18 -101 -102 -175t-181 -74q-95 0 -153 57l-9 -50h-93l114 646h93l-37 -210q72 50 158 50zM314 90q63 0 115 44.5t63 106.5q11 60 -26.5 105t-98.5 45q-62 0 -113.5 -45t-62.5 -107q-11 -63 25 -106t98 -43z" />
    <glyph glyph-name="c" unicode="c" horiz-adv-x="579" 
d="M534 116q-98 -121 -232 -121q-105 0 -165 70.5t-41 175.5q18 107 98.5 176.5t191.5 69.5q135 0 200 -136l-85 -49q-31 47 -59.5 68.5t-70.5 21.5q-66 0 -115 -42t-61 -108q-11 -62 23.5 -106t93.5 -44q85 0 167 89l69 -48z" />
    <glyph glyph-name="d" unicode="d" 
d="M391 487q88 0 141 -50l37 209h93l-114 -646h-93l9 51q-79 -56 -172 -56q-98 0 -156 73.5t-40 174.5q18 103 103 173.5t192 70.5zM319 90q62 0 113.5 44t62.5 107q11 61 -25 106t-98 45q-61 0 -114 -45t-63 -106q-11 -62 25 -106.5t99 -44.5z" />
    <glyph glyph-name="e" unicode="e" horiz-adv-x="592" 
d="M569 192h-377q12 -102 124 -102q45 0 81.5 17t79.5 59l68 -44q-46 -59 -110 -93t-131 -34q-108 0 -168 69.5t-41 176.5q19 104 102.5 175t187.5 71q106 0 159.5 -72.5t33.5 -188.5zM369 390q-103 0 -157 -101h269q-7 101 -112 101z" />
    <glyph glyph-name="f" unicode="f" horiz-adv-x="398" 
d="M194 393h-72l17 94h72q15 83 48 120.5t115 37.5l66 -1l-17 -94h-60q-29 0 -41 -16t-17 -47h125l-17 -94h-123l-69 -393h-96z" />
    <glyph glyph-name="g" unicode="g" horiz-adv-x="604" 
d="M633 476l-74 -419q-27 -124 -98.5 -179.5t-196.5 -55.5q-64 0 -110.5 29t-88.5 100l93 50q19 -30 37.5 -48.5t38 -25.5t32 -8.5t34.5 -1.5q126 0 157 124q-60 -46 -155 -46q-106 0 -165.5 69t-42.5 169l4 21q16 92 100 163t177 71q99 0 153 -54q2 7 4 21t4 21h97zM318 92
q62 0 113 42.5t62 104.5q11 63 -25.5 107.5t-98.5 44.5t-113.5 -43.5t-62.5 -106.5q-11 -62 25 -105.5t100 -43.5z" />
    <glyph glyph-name="h" unicode="h" horiz-adv-x="513" 
d="M356 488q84 0 128 -46q27 -31 29.5 -86.5t-9.5 -106.5l-6 -31q-4 -21 -5 -29q-2 -10 -6.5 -33.5t-6.5 -33.5q-13 -68 -22 -122h-94l34 186q1 4 2.5 12.5t2.5 12.5q1 6 3.5 18t3.5 18q5 37 5.5 69t-19.5 53.5t-60 22.5q-35 -1 -62 -17t-42 -35.5t-27.5 -54.5t-17.5 -57.5
t-11 -60.5q-1 -12 -5 -29l-24 -138h-94l114 646h94l-23 -132q-1 -5 -7 -41q-2 -10 -2 -14q45 29 127 29z" />
    <glyph glyph-name="i" unicode="i" horiz-adv-x="231" 
d="M156 584q5 27 24.5 44.5t47.5 17.5q29 0 43.5 -17t9.5 -45q-5 -27 -25 -43.5t-49 -16.5q-28 0 -42 16.5t-9 43.5zM244 476l-83 -476h-94l84 476h93z" />
    <glyph glyph-name="j" unicode="j" horiz-adv-x="304" 
d="M228 584q5 28 25.5 45t47.5 17q29 0 43 -16.5t9 -45.5q-5 -27 -25 -43.5t-48 -16.5q-27 0 -41.5 16.5t-10.5 43.5zM234 7q-9 -48 -17.5 -76.5t-26.5 -55.5t-48.5 -39t-75.5 -12h-44l17 95q29 0 34 -1h11q20 0 33 9q10 9 20 62l4 20q2 8 4.5 22.5t3.5 18.5q2 8 4.5 23.5
t3.5 22.5l9 53l57 327h94z" />
    <glyph glyph-name="k" unicode="k" horiz-adv-x="529" 
d="M167 646h93l-60 -343l220 184h126l-295 -243l224 -244h-131l-167 180l-32 -180h-92z" />
    <glyph glyph-name="l" unicode="l" horiz-adv-x="198" 
d="M260 646l-114 -646h-92l112 646h94z" />
    <glyph glyph-name="m" unicode="m" horiz-adv-x="769" 
d="M614 487q47 0 87 -18.5t58 -54.5q21 -47 0 -171l-6 -32q-1 -5 -2.5 -15t-2.5 -15l-34 -181h-95l48 271q21 121 -68 121t-119 -132l-4 -16l-44 -244h-99l46 249q24 143 -61 143q-33 0 -57 -15.5t-39 -45.5t-23 -58.5t-15 -69.5l-6 -35q-1 -5 -2.5 -16t-2.5 -17l-24 -135
h-96l88 487h94l-4 -20q33 20 103 20q84 0 124 -59q58 59 156 59z" />
    <glyph glyph-name="n" unicode="n" horiz-adv-x="515" 
d="M353 487q74 0 119 -40.5t45 -110.5q-1 -34 -11 -88l-44 -248h-96l37 209l6 28q7 45 6.5 79.5t-19 55.5t-56.5 21q-45 0 -74 -13t-45 -42t-23 -55t-14 -73l-37 -210h-94l88 487h94l-6 -30q49 30 124 30z" />
    <glyph glyph-name="o" unicode="o" horiz-adv-x="605" 
d="M391 487q103 0 162.5 -70.5t41.5 -170.5q-17 -102 -102 -174t-190 -72q-104 0 -164 72.5t-43 172.5q18 100 104.5 171t190.5 71zM320 94q64 0 115.5 45t62.5 107q11 60 -26.5 103.5t-99.5 43.5t-113.5 -43.5t-62.5 -104.5q-11 -62 25 -106.5t99 -44.5z" />
    <glyph glyph-name="p" unicode="p" 
d="M295 0q-86 0 -140 50l-40 -227h-93l115 653h93l-7 -39q73 51 163 51q97 0 159 -74.5t45 -172.5q-18 -101 -102.5 -171t-192.5 -70zM366 393q-62 0 -113.5 -43.5t-62.5 -106.5q-11 -61 25.5 -104.5t98.5 -43.5t114.5 43.5t62.5 104.5q11 61 -25.5 105.5t-99.5 44.5z" />
    <glyph glyph-name="q" unicode="q" 
d="M304 -5q-107 0 -167 70.5t-42 172.5t101.5 175.5t182.5 73.5q93 0 151 -57l8 46h93l-115 -653h-93l39 222q-71 -50 -158 -50zM371 391q-62 0 -113.5 -44.5t-62.5 -105.5q-11 -62 25.5 -106.5t98.5 -44.5t113.5 44.5t62.5 106.5q11 63 -25.5 106.5t-98.5 43.5z" />
    <glyph glyph-name="r" unicode="r" horiz-adv-x="362" 
d="M226 455q56 32 169 32l-18 -104q-35 8 -47 8q-44 0 -81 -18.5t-43 -55.5l-8 -44q-1 -3 -7.5 -39t-10.5 -57l-31 -177h-96l84 476h93z" />
    <glyph glyph-name="s" unicode="s" horiz-adv-x="485" 
d="M238 344q-2 -15 11 -26t28.5 -17t44.5 -14q30 -9 44.5 -13.5t38 -16.5t33.5 -25t16.5 -34.5t1.5 -49.5q-11 -66 -68 -107t-142 -41q-58 0 -96.5 25.5t-75.5 95.5l90 52q23 -43 43.5 -59.5t58.5 -16.5q39 0 62.5 12.5t27.5 33.5q3 15 -10.5 26t-29 17t-45.5 14
q-29 8 -44 13.5t-38 17t-33.5 24.5t-17 34.5t-1.5 48.5q11 66 65 107.5t134 41.5q48 0 82.5 -22t80.5 -86l-89 -53q-20 27 -28.5 37t-25 19.5t-37.5 9.5q-32 0 -54.5 -13t-26.5 -35z" />
    <glyph glyph-name="t" unicode="t" horiz-adv-x="421" 
d="M275 178q-9 -42 -1.5 -63t36.5 -21q18 0 77 14l-18 -97q-2 -1 -15 -3t-14 -2q-48 -6 -58 -6q-56 0 -83.5 24t-29 63t5.5 89l38 216h-91l17 95h91l20 113h99l-20 -113h124l-16 -95h-125z" />
    <glyph glyph-name="u" unicode="u" horiz-adv-x="515" 
d="M247 -5q-73 0 -119 42.5t-45 111.5q1 32 12 86l44 252h94l-38 -213q-4 -21 -5 -29q-16 -66 0 -110.5t71 -44.5q36 0 62.5 10.5t42 24.5t26 41.5t15 49t9.5 58.5l38 213h94l-87 -487h-95l5 27q-49 -32 -124 -32z" />
    <glyph glyph-name="v" unicode="v" horiz-adv-x="588" 
d="M317 141l201 346h103l-283 -487h-93l-106 487h105z" />
    <glyph glyph-name="w" unicode="w" horiz-adv-x="776" 
d="M200 0l-61 487h104l33 -315l159 315h83l44 -314l147 314h100l-235 -487h-85l-48 301l-150 -301h-91z" />
    <glyph glyph-name="x" unicode="x" horiz-adv-x="585" 
d="M617 487l-224 -245l139 -242h-113l-97 164l-155 -164h-114l225 242l-139 245h112l98 -171l157 171h111z" />
    <glyph glyph-name="y" unicode="y" horiz-adv-x="588" 
d="M418 111l-15 -27q-32 -59 -48 -86t-42 -61t-58 -62q-59 -52 -158 -52l15 88q54 9 93.5 39t46.5 67q3 19 -13 69q-12 38 -20 71l-80 330h103l88 -344q15 26 106 195q49 95 81 149h104z" />
    <glyph glyph-name="z" unicode="z" horiz-adv-x="517" 
d="M175 487h375l-306 -393h221l-17 -94h-395l312 392h-207z" />
    <glyph glyph-name="braceleft" unicode="{" horiz-adv-x="394" 
d="M281 225q-9 -49 -15 -79q-4 -17 -11 -53q-10 -41 -2 -59t49 -29q16 -4 36 -12l-16 -79h-53q-44 0 -70.5 14.5t-36 42.5t-9.5 58.5t8 74.5q8 38 10 45q7 33 8 42q9 36 1 56t-42 31q-14 4 -32 12l5 35q1 4 3 19t3 18q9 3 32.5 10t29.5 9q25 7 30 10.5t7 18.5q2 10 5.5 32
t5.5 33l9 59q21 119 67.5 161.5t162.5 42.5q-8 -43 -10 -83q-17 -5 -42 -11q-43 -8 -55.5 -23.5t-19.5 -58.5l-3 -16q-7 -42 -8 -50t-3.5 -22.5t-3.5 -19.5q-8 -47 -21 -73.5t-47 -55.5q26 -36 30.5 -52t-2.5 -48z" />
    <glyph glyph-name="bar" unicode="|" horiz-adv-x="244" 
d="M282 632l-111 -631h-97l112 631h96z" />
    <glyph glyph-name="braceright" unicode="}" horiz-adv-x="393" 
d="M192 225q6 33 15.5 48.5t48.5 51.5q-23 30 -27 55.5t5 73.5q8 48 18 92l2 16q6 33 5 47q-3 16 -16 23t-35 12q-24 6 -37 11q7 28 17 83q4 0 21 -1t20 -1q93 -4 114.5 -50.5t2.5 -151.5q-2 -10 -11 -59q-2 -9 -6.5 -31t-6.5 -34q-2 -14 1.5 -18t25.5 -11q5 -1 14.5 -4.5
t22 -8t19.5 -6.5q-3 -23 -7 -36q-2 -16 -7 -36q-21 -8 -35 -12q-40 -11 -53 -30t-21 -61l-6 -41q-6 -42 -11.5 -68t-18.5 -61t-30.5 -54.5t-48.5 -34t-72 -14.5h-53l13 79q22 8 40 12q43 11 56.5 26t19.5 58q5 24 9 54q5 41 12 82z" />
    <glyph glyph-name="yen" unicode="&#xa5;" horiz-adv-x="615" 
d="M584 284l-13 -72h-179l-7 -41h179l-12 -70h-179l-16 -91h-97l16 91h-179l12 70h179l8 41h-180l13 72h179l1 7l-174 355h106l130 -270l230 270h107l-302 -353l-1 -9h179z" />
    <glyph glyph-name="copyright" unicode="&#xa9;" horiz-adv-x="754" 
d="M701 322q0 -133 -88.5 -230.5t-230.5 -97.5q-131 0 -230 98.5t-99 229.5q0 128 99 227.5t230 99.5q95 0 169 -47t112 -121t38 -159zM624 322q0 99 -67 174.5t-174 75.5q-99 0 -174.5 -76t-75.5 -174q0 -96 76.5 -170.5t173.5 -79.5h3q102 4 170 79t68 171zM384 149
q-68 0 -118.5 52t-50.5 121q0 68 51 119.5t118 51.5q72 0 147 -69l-62 -69q-47 48 -82 48q-31 0 -54 -24t-23 -57q0 -34 22 -58.5t55 -24.5q31 0 83 48l61 -67q-73 -71 -147 -71z" />
    <glyph glyph-name="guillemotleft" unicode="&#xab;" horiz-adv-x="469" 
d="M219 320l82 -176h-114l-78 176l140 172h111zM361 319l81 -175h-114l-76 175l138 173h112z" />
    <glyph glyph-name="registered" unicode="&#xae;" horiz-adv-x="748" 
d="M694 315q0 -126 -97.5 -223.5t-222.5 -97.5q-126 0 -223.5 97t-97.5 224q0 125 97.5 222.5t223.5 97.5q124 0 222 -97.5t98 -222.5zM616 315q0 95 -74 168.5t-168 73.5q-95 0 -168.5 -73.5t-73.5 -168.5t73.5 -168.5t168.5 -73.5q93 0 166.5 74t75.5 168zM536 151h-101
l-68 107h-29v-107h-84v325h125q54 0 87.5 -27.5t33.5 -80.5q0 -66 -47 -93zM338 397v-60h40q39 0 39 31q0 29 -39 29h-40z" />
    <glyph glyph-name="guillemotright" unicode="&#xbb;" horiz-adv-x="469" 
d="M78 144l143 175l-79 173h111l78 -173l-139 -175h-114zM221 144l142 176l-80 172h112l78 -172l-139 -176h-113z" />
    <glyph glyph-name="divide" unicode="&#xf7;" horiz-adv-x="462" 
d="M242 431q5 29 27 47.5t52 18.5t44.5 -18.5t9.5 -47.5q-5 -28 -26 -46.5t-51 -18.5t-45.5 18.5t-10.5 46.5zM456 265h-356l16 91h356zM200 188q5 29 26.5 47.5t51.5 18.5t44.5 -18.5t9.5 -47.5t-26 -47t-51 -18q-31 0 -45.5 18t-9.5 47z" />
    <glyph glyph-name="tilde" unicode="&#x2dc;" horiz-adv-x="522" 
d="M541 552q-12 -66 -49 -104t-85 -38t-74 30l-23 29q-20 22 -30 22q-26 0 -41 -77h-82l5 29q12 67 48 104t86 37q32 0 50 -12.5t37 -39.5q22 -30 40 -30q12 0 23 21.5t17 54.5h82z" />
    <glyph glyph-name="endash" unicode="&#x2013;" horiz-adv-x="576" 
d="M549 149h-470l16 90h470z" />
    <glyph glyph-name="quoteleft" unicode="&#x2018;" horiz-adv-x="262" 
d="M250 698q31 14 87 27q-27 -82 -85 -246q-28 3 -50 3q-17 0 -65 -4q24 48 40 88q36 82 65 129z" />
    <glyph glyph-name="quoteright" unicode="&#x2019;" horiz-adv-x="266" 
d="M221 498q-33 -13 -79 -24q36 115 85 246q28 -2 50 -2q28 0 64 3q-20 -42 -38 -85q-39 -88 -68 -133z" />
    <glyph glyph-name="quotesinglbase" unicode="&#x201a;" horiz-adv-x="258" 
d="M136 145q52 0 94 -4l-34 -76q-32 -79 -62 -129q-21 -12 -51 -24q-3 -1 -14 -5.5t-22.5 -9t-12.5 -5.5q27 97 85 253h17z" />
    <glyph glyph-name="quotedblleft" unicode="&#x201c;" horiz-adv-x="383" 
d="M374 701q40 16 87 29q-37 -114 -61 -180q-24 -68 -25 -71q-28 5 -49 5q-23 0 -65 -6q27 61 37 82q34 83 68 138zM256 698q29 13 87 28q-16 -52 -62 -184q-6 -15 -22 -63q-36 3 -52 3q-15 0 -63 -4q5 10 37 82q36 86 68 135z" />
    <glyph glyph-name="quotedblright" unicode="&#x201d;" horiz-adv-x="384" 
d="M354 503q-44 -17 -86 -28q22 74 60 179l24 70q29 -4 50 -4q23 0 65 6l-37 -83q-35 -84 -68 -137zM235 500q-53 -18 -85 -26q30 98 84 246q22 -2 51 -2q23 0 63 3q-20 -40 -36 -81q-39 -90 -69 -137z" />
    <glyph glyph-name="quotedblbase" unicode="&#x201e;" horiz-adv-x="380" 
d="M44 -72q20 68 57 169l18 48h112q-18 -39 -34 -77q-36 -86 -64 -133q-22 -12 -56 -24q-13 -8 -43 -16zM256 143q18 1 96 1l-32 -75q-32 -80 -63 -128q-17 -14 -49 -27l-51 -24q23 92 62 194q10 30 22 58z" />
    <glyph glyph-name="ellipsis" unicode="&#x2026;" horiz-adv-x="641" 
d="M269 93q6 30 27.5 48t51.5 18t46 -18t11 -48q-5 -27 -27.5 -46t-52.5 -19q-29 0 -45 19t-11 46zM471 93q5 31 26 48.5t51 17.5q31 0 46 -17.5t10 -48.5q-5 -28 -27 -46.5t-52 -18.5q-29 0 -44 18.5t-10 46.5zM69 91q5 30 27 48.5t53 18.5q30 0 44.5 -18.5t9.5 -48.5
q-5 -29 -26.5 -47t-51.5 -18q-31 0 -46 18t-10 47z" />
    <glyph glyph-name="guilsinglleft" unicode="&#x2039;" horiz-adv-x="328" 
d="M221 320l79 -176h-113l-78 176l140 172h111z" />
    <glyph glyph-name="guilsinglright" unicode="&#x203a;" horiz-adv-x="328" 
d="M78 144l143 176l-80 172h112l78 -172l-139 -176h-114z" />
    <glyph glyph-name="Euro" unicode="&#x20ac;" horiz-adv-x="587" 
d="M546 591q-143 0 -236 -124h314l-50 -90l-306 4q-10 -35 -11 -67h344l-61 -86h-269q25 -57 75 -88.5t114 -31.5q42 0 116 21l-16 -90q-66 -21 -126 -21q-103 0 -176.5 56.5t-94.5 153.5h-102l17 84l81 2q3 39 11 67h-79l16 86h96q54 100 149 157t202 57q69 0 128 -24
l-16 -92q-69 26 -120 26z" />
    <glyph glyph-name="trademark" unicode="&#x2122;" horiz-adv-x="731" 
d="M505 575v7v2l-1 -2q-2 -4 -28.5 -47t-34.5 -56q-36 55 -65 104v-28v-119h-79l1 114v84v30h-70v-229h-83v229h-99v81h282v-3h41q40 -60 71 -114q4 6 11 18t11 18q31 53 48 78h73v-306h-78v139z" />
    <glyph glyph-name="fraction" horiz-adv-x="328" 
d="M41 17h-99l494 816h100z" />
    <glyph glyph-name="exclamdown" horiz-adv-x="240" 
d="M155 581q5 28 27.5 46.5t52.5 18.5t44.5 -18.5t9.5 -46.5q-5 -30 -26.5 -48.5t-51.5 -18.5q-31 0 -46 18.5t-10 48.5zM251 490q-30 -213 -71 -490h-118l34 161q53 251 72 329h83z" />
    <glyph glyph-name="questiondown" horiz-adv-x="526" 
d="M289 581q5 30 26.5 47.5t51.5 17.5t45.5 -17.5t10.5 -47.5q-4 -28 -26.5 -46.5t-52.5 -18.5t-45 18t-10 47zM267 0q-68 0 -110 27t-65 85l-13 33q54 26 91 46q27 -55 49 -73.5t57 -18.5q51 0 84 21.5t39 56.5q4 20 -5 42.5t-19.5 36.5t-30.5 38q-44 52 -53.5 83t-9.5 104
q29 0 41 2q12 0 45 3q41 -105 81 -154q23 -27 33 -41t19 -46t3 -67q-13 -76 -81 -127t-155 -51z" />
    <glyph glyph-name="CR" horiz-adv-x="273" 
 />
    <glyph glyph-name="cent" horiz-adv-x="579" 
d="M548 133l-14 -17q-80 -101 -189 -118l-13 -75h-93l14 76q-86 16 -129.5 82.5t-27.5 159.5t81.5 159.5t158.5 82.5l15 86h94l-15 -85q102 -18 156 -134l-85 -48q-45 71 -88 84l-51 -288q55 17 117 83zM195 242q-9 -49 12.5 -88.5t62.5 -54.5l49 285q-48 -14 -81.5 -52
t-42.5 -90z" />
    <glyph glyph-name="sterling" horiz-adv-x="534" 
d="M480 462q5 43 -20 72t-70 29q-47 0 -83.5 -31.5t-44.5 -78.5l-18 -103h215l-69 -86h-161l-31 -177h240l19 111h91l-35 -198h-492l13 73l67 11l31 180h-55l15 86h55l20 107q15 88 82 143t158 55q87 0 131.5 -59.5t28.5 -152.5h-90z" />
    <glyph glyph-name="greaterequal" horiz-adv-x="312" 
d="M-2 202l19 111l262 98l-228 95l20 111l361 -161l-16 -87z" />
    <glyph glyph-name="lessequal" horiz-adv-x="312" 
d="M440 506l-261 -95l228 -98l-20 -111l-360 167l15 87l418 161z" />
    <glyph glyph-name="NULL" horiz-adv-x="273" 
 />
    <glyph glyph-name="_FSHallmark" horiz-adv-x="754" 
d="M701 603v-74h-630v74h630zM619 388q0 14 -16.5 27t-38.5 13q-20 0 -36 -9.5t-16 -21.5q0 -17 9 -26.5t39 -17.5l27 -6q27 -6 37.5 -9t28.5 -9.5t25.5 -13.5t14 -18.5t7.5 -27.5q1 -42 -36.5 -68t-98.5 -26q-68 0 -103.5 34t-35.5 79l73 -1q0 -8 4 -18t21 -21.5t44 -11.5
q24 0 39.5 8.5t15.5 19.5q0 22 -60 36q-56 14 -92 33q-38 20 -38 63q0 41 37.5 67t94.5 26q60 0 95 -30.5t35 -70.5h-76zM305 347v-70h-151v-102h-83v313h265v-71h-182v-70h151zM329 213q0 15 11 26t27 11q17 0 29.5 -11t12.5 -26q0 -16 -12 -26t-30 -10q-16 0 -27 10.5
t-11 25.5zM700 136v-75h-631v75h631z" />
    <glyph glyph-name="_Fontastica" horiz-adv-x="754" 
d="M513 260h-295v-147h-87q-1 1 -1 4v510h382v-78h-294v-210h295v-79zM569 402h-296v79h296v146h87v-513h-383v78h296v210zM569 63q-11 -7 -1 -19q3 -4 9 -4q7 0 14 4l4 -4q-6 -9 -18 -9q-8 0 -16 5q-6 6 -6.5 16t5.5 17q8 8 17 8q10 0 18 -8l-4 -6q-10 5 -12 5h-2
q-6 -2 -8 -5zM142 32h-11v44h32v-8h-21v-12h20v-7h-20v-17zM203 76q15 0 22 -12q7 -8 1.5 -20t-18.5 -13q-4 -2 -6 -2q-6 0 -9 3q-14 6 -14 19q0 11 7 18t17 7zM279 76h9v-44q-2 0 -3.5 -0.5t-2.5 -0.5q-3 0 -7 5q-7 10 -17 23v-27h-10v44q10 0 13 -6l9 -12l9 -12v30z
M321 68h-14v8h37v-8h-14v-36h-9v36zM444 55q9 -1 9 -10q2 -8 -8 -13q-2 -1 -8 -1q-14 0 -21 7l3 6l14 -4h6l2 1q1 0 1 1q0 4 -2 5q-1 2 -8 4l-2 1q-3 1 -4 1q-7 2 -7 10q-1 7 6 11q3 2 10 2q11 0 18 -4l-4 -8q-2 1 -5.5 2.5t-4.5 1.5h-6q-3 0 -3 -3q-2 -2 3 -6q6 -1 11 -4z
M482 68h-14v8h38v-8h-14v-36h-10v36zM535 32h-11v44h11v-44zM640 76q2 -4 8 -19.5t11 -24.5h-10l-4 9h-21l-4 -9h-10q10 20 18 44h12zM382 74q9 -17 18 -42h-10l-3 9h-20q-2 -7 -4 -9h-9q5 13 18 42h10zM216 54q0 14 -12 14q-1 0 -2.5 -0.5t-2.5 -0.5q-15 -7 -9 -18
q3 -10 13 -10q3 0 4 1q9 2 9 13v1zM369 49h15q-6 9 -7 16zM627 49h14q-2 2 -3.5 8t-3.5 8z" />
    </font>
</defs>
</svg>
