<?xml version="1.0" standalone="no"?>
<!DOCTYPE svg PUBLIC "-//W3C//DTD SVG 1.1//EN" "http://www.w3.org/Graphics/SVG/1.1/DTD/svg11.dtd" >
<svg xmlns="http://www.w3.org/2000/svg" xmlns:xlink="http://www.w3.org/1999/xlink" version="1.1">
<metadata>
Created by FontForge 20170731 at Wed Aug  8 20:00:22 2018
 By Aleksey,,,
Copyright (c) 2018 by Fontastica. All rights reserved.
</metadata>
<defs>
<font id="VisiaPro-ExtraBold" horiz-adv-x="232" >
  <font-face 
    font-family="Visia Pro ExtraBold"
    font-weight="800"
    font-stretch="normal"
    units-per-em="1000"
    panose-1="0 0 9 0 0 0 0 0 0 0"
    ascent="800"
    descent="-200"
    x-height="490"
    cap-height="674"
    bbox="-61 -183 963 845"
    underline-thickness="50"
    underline-position="-225"
    unicode-range="U+0020-2122"
  />
<missing-glyph horiz-adv-x="651" 
 />
    <glyph glyph-name=".notdef" horiz-adv-x="651" 
 />
    <glyph glyph-name=".null" horiz-adv-x="0" 
 />
    <glyph glyph-name="nonmarkingreturn" horiz-adv-x="333" 
 />
    <glyph glyph-name="space" unicode=" " horiz-adv-x="288" 
 />
    <glyph glyph-name="exclam" unicode="!" 
d="M81 174q-13 238 -18 479h109q-6 -277 -16 -493h-74zM53 61q0 29 17.5 46t46.5 17q28 0 45 -17t17 -46q0 -27 -17 -44t-45 -17q-29 0 -46.5 17t-17.5 44z" />
    <glyph glyph-name="numbersign" unicode="#" horiz-adv-x="624" 
d="M556 364l-105 2l-14 -77h108l-16 -85h-106l-28 -158l-89 2l28 155h-87l-29 -157l-83 2l24 156h-106l13 85l108 3l14 71l-110 1l16 83h105l28 157h88l-25 -159h83l29 157h87l-27 -154h108zM262 292h86l13 73h-85z" />
    <glyph glyph-name="dollar" unicode="$" horiz-adv-x="582" 
d="M129 218l7 -13q53 -94 118 -115v209q-37 12 -62.5 24t-53 32t-42 49.5t-14.5 67.5q0 70 47.5 119t125.5 60v85h89v-88q96 -22 172 -143l-73 -41q-22 28 -34 42t-30 29t-35 22v-192q39 -12 65.5 -23.5t57 -31.5t46 -50.5t15.5 -69.5q0 -72 -51 -125t-133 -63v-91h-90v91
q-130 19 -201 176zM174 477q0 -50 81 -82v166q-38 -8 -59.5 -30.5t-21.5 -53.5zM344 89q39 12 64.5 37t25.5 56q0 53 -90 87v-180z" />
    <glyph glyph-name="percent" unicode="%" horiz-adv-x="794" 
d="M216 632q70 0 103 -49t33 -121q0 -82 -37 -126t-99 -44q-61 0 -98.5 46t-37.5 123t38 124t98 47zM666 621l-428 -611h-89l429 611h88zM216 365q29 0 45.5 26t16.5 70q0 45 -17 72t-45 27q-27 0 -45 -28t-18 -71q0 -42 18 -69t45 -27zM583 341q69 0 102.5 -49.5
t33.5 -119.5q0 -82 -37.5 -126.5t-98.5 -44.5t-99 46t-38 123t38 124t99 47zM583 74q28 0 44.5 26t16.5 70q0 45 -17 72t-46 27q-26 0 -43.5 -28.5t-17.5 -70.5t18 -69t45 -27z" />
    <glyph glyph-name="ampersand" unicode="&#x26;" horiz-adv-x="669" 
d="M616 63l-16 -10q-8 -6 -14 -10q-13 -9 -49 -33q-51 44 -55 47q-5 4 -7.5 7t-5.5 5q-87 -69 -203 -69q-92 0 -151 48.5t-62 128.5v7q0 47 19 84.5t68 81.5v1q-24 32 -35 56t-11 58q0 76 53 129.5t132 58.5q84 0 136 -48.5t52 -131.5q0 -56 -29 -101.5t-88 -67.5
q32 -30 48 -44l49 -45q11 45 28 102l81 -25q-7 -70 -32 -145zM282 559q-39 -2 -67 -28t-28 -62q0 -39 30 -68t69 -30q34 4 58.5 34.5t25.5 69.5v5q-1 36 -25.5 57t-62.5 22zM147 195q0 -47 34.5 -75t83.5 -28q68 0 130 44q-40 38 -127 115l-46 41q-75 -51 -75 -97z" />
    <glyph glyph-name="parenleft" unicode="(" horiz-adv-x="300" 
d="M237 715q-53 -131 -74 -216t-21 -168q0 -192 105 -419h-91q-35 66 -69 193.5t-34 223.5q0 87 31 212t73 195h89z" />
    <glyph glyph-name="parenright" unicode=")" horiz-adv-x="300" 
d="M152 728q39 -66 69 -191.5t30 -209.5q0 -96 -34 -222.5t-69 -192.5h-91q105 230 105 419q0 84 -23 173t-81 232h89z" />
    <glyph glyph-name="asterisk" unicode="*" horiz-adv-x="376" 
d="M323 517h-66q13 -19 38 -56l-72 -39q-35 54 -37 57q-6 -11 -14 -23q-4 -7 -21 -35q-3 2 -11.5 6.5t-15.5 8.5t-11 6q-26 13 -32 17q5 9 33 55l1 1h-62v77h62l-35 55l69 40l37 -59l37 59l72 -39q-4 -6 -16 -24.5t-19 -28.5h62q0 -55 1 -78z" />
    <glyph glyph-name="plus" unicode="+" horiz-adv-x="507" 
d="M284 116q-34 0 -72 -2v156h-159v86h155v155h89v-154h157v-86h-155v-155h-15z" />
    <glyph glyph-name="comma" unicode="," horiz-adv-x="237" 
d="M87 130q14 2 34 9q55 14 63 15l-21 -76q-23 -94 -43 -150q-14 -7 -49 -19q-11 -2 -38 -13q24 156 46 232z" />
    <glyph glyph-name="hyphen" unicode="-" horiz-adv-x="454" 
d="M400 272h-347v83h347v-83z" />
    <glyph glyph-name="period" unicode="." 
d="M53 90q0 29 17.5 45.5t46.5 16.5t45.5 -16.5t16.5 -45.5q0 -26 -17 -43.5t-45 -17.5q-29 0 -46.5 17.5t-17.5 43.5z" />
    <glyph glyph-name="slash" unicode="/" horiz-adv-x="552" 
d="M143 -92h-90l355 828h91z" />
    <glyph glyph-name="zero" unicode="0" horiz-adv-x="616" 
d="M309 653q66 0 116 -27t79.5 -73.5t44 -102t14.5 -118.5v-5q-2 -157 -71.5 -242.5t-182.5 -85.5q-115 0 -185.5 89t-70.5 237t70.5 238t185.5 90zM309 90q73 0 115.5 63.5t42.5 170.5q0 108 -43.5 173t-116.5 65q-70 0 -116 -67t-46 -170t46.5 -169t117.5 -66z" />
    <glyph glyph-name="one" unicode="1" horiz-adv-x="286" 
d="M47 590q64 29 106 63h82v-653h-91v545l-94 -58z" />
    <glyph glyph-name="two" unicode="2" horiz-adv-x="536" 
d="M70 99q50 21 122 83.5t130.5 142t61.5 135.5q-1 49 -31.5 75.5t-79.5 26.5q-48 0 -79.5 -23t-55.5 -75l-85 48q43 72 94.5 106.5t124.5 34.5q54 0 96 -18.5t65 -47.5t34.5 -56t13.5 -50q0 -3 0.5 -8t0.5 -7q0 -88 -80.5 -194t-166.5 -174l245 1v-99h-422l3 95z" />
    <glyph glyph-name="three" unicode="3" horiz-adv-x="534" 
d="M375 352q107 -43 107 -160q0 -90 -61 -141t-167 -51q-66 0 -109 25.5t-89 95.5l84 48q29 -42 56.5 -62.5t66.5 -20.5q56 0 90.5 29.5t34.5 77.5q0 46 -40.5 72t-118.5 26h-73v91h60q30 0 52.5 2.5t46.5 11t37 27t14 46.5v1q0 41 -30 66.5t-79 25.5q-39 0 -65 -17.5
t-54 -55.5l-85 43q25 41 50.5 66.5t53 37t49 14.5t54.5 3q91 0 146 -51t55 -127q0 -41 -12 -72t-49 -61z" />
    <glyph glyph-name="four" unicode="4" horiz-adv-x="630" 
d="M470 215h107v-93h-105v-122h-93v122h-326q107 159 173 268.5t144 262.5h100v-438zM374 215v265l1 2q-73 -145 -155 -267h154z" />
    <glyph glyph-name="five" unicode="5" horiz-adv-x="554" 
d="M234 403q85 0 141.5 -17t92.5 -74h-1q35 -54 35 -107q0 -89 -60.5 -147t-161.5 -58q-78 0 -128.5 34.5t-98.5 111.5l79 47q30 -52 64 -77t83 -26q55 3 91 35.5t38 79.5v3q-2 35 -21.5 58t-54.5 32.5t-62.5 12t-67.5 2.5h-117q14 164 14 340h364v-86h-275q0 -76 -7 -164
h53z" />
    <glyph glyph-name="six" unicode="6" horiz-adv-x="561" 
d="M264 436q16 2 25 2q91 0 155 -64.5t64 -155.5q0 -95 -63.5 -156.5t-162.5 -61.5t-164 57.5t-65 176.5q2 4 2 14q0 82 216 356q35 47 36 49h104q-68 -107 -147 -217zM282 90q57 0 93.5 36t36.5 93q0 56 -36 91.5t-94 35.5t-95.5 -35.5t-37.5 -91.5q0 -58 37 -93.5
t96 -35.5z" />
    <glyph glyph-name="seven" unicode="7" horiz-adv-x="547" 
d="M68 648q67 1 203 1q157 0 223 -1q-159 -393 -265 -645h-103q78 188 156 371l79 186h-308v88h15z" />
    <glyph glyph-name="eight" unicode="8" horiz-adv-x="557" 
d="M406 349q98 -46 98 -154q0 -93 -60.5 -146.5t-160.5 -53.5q-101 0 -165.5 54.5t-64.5 137.5q0 98 86 152q-65 62 -65 144q0 76 59.5 128t146.5 52t145.5 -51.5t58.5 -128.5q0 -40 -12 -73t-50 -68zM277 570q-50 0 -79.5 -24t-29.5 -66q0 -44 31.5 -71.5t80.5 -27.5
q48 0 79 26.5t31 69.5q0 42 -30.5 67.5t-82.5 25.5zM279 85q58 0 95 29t37 76q0 46 -35.5 73.5t-97.5 27.5q-61 0 -96.5 -27t-35.5 -72q0 -48 37.5 -77.5t95.5 -29.5z" />
    <glyph glyph-name="nine" unicode="9" horiz-adv-x="561" 
d="M296 216q-8 -1 -25 -1q-91 0 -154.5 64.5t-63.5 155.5q0 95 63.5 156.5t162.5 61.5q98 0 163.5 -58t65.5 -177q-2 -3 -2 -14q0 -80 -209 -346q-36 -48 -43 -58h-104q55 86 113 168zM279 562q-57 0 -93.5 -35.5t-36.5 -92.5q0 -56 36 -91t94 -35q59 0 96 35.5t37 90.5
q0 57 -37 92.5t-96 35.5z" />
    <glyph glyph-name="colon" unicode=":" 
d="M53 450q0 27 17.5 44t46.5 17q28 0 45 -17t17 -44q0 -28 -16.5 -44.5t-45.5 -16.5t-46.5 16.5t-17.5 44.5zM53 90q0 29 17.5 45.5t46.5 16.5t45.5 -16.5t16.5 -45.5q0 -26 -17 -43.5t-45 -17.5q-29 0 -46.5 17.5t-17.5 43.5z" />
    <glyph glyph-name="semicolon" unicode=";" horiz-adv-x="254" 
d="M74 449q0 27 18 44.5t46 17.5q27 0 45 -18t18 -44q0 -28 -17.5 -44.5t-45.5 -16.5q-29 0 -46.5 16.5t-17.5 44.5zM195 119q-34 -129 -56 -196l-86 -22l44 237h103z" />
    <glyph glyph-name="less" unicode="&#x3c;" horiz-adv-x="495" 
d="M442 409l-261 -101l261 -104v-103l-389 167v82l389 161v-102z" />
    <glyph glyph-name="greater" unicode="&#x3e;" horiz-adv-x="495" 
d="M53 101v103l261 104l-261 101v102l389 -161v-82z" />
    <glyph glyph-name="question" unicode="?" horiz-adv-x="524" 
d="M265 653q88 0 146.5 -50.5t58.5 -126.5q0 -27 -6.5 -49.5t-22.5 -44t-24.5 -31t-29.5 -30.5q-51 -51 -110 -156l-43 3q-3 0 -17.5 0.5t-17.5 0.5q2 7 7 35q7 37 19 62t24 39t45 47q26 25 40 40t27.5 39t13.5 46q0 38 -32 61.5t-87 23.5q-37 0 -63.5 -19t-63.5 -74
q-36 22 -76 42q12 20 17 30q64 112 195 112zM188 61q0 27 17.5 44.5t45.5 17.5t46 -17.5t18 -44.5q0 -28 -18 -44.5t-46 -16.5q-29 0 -46 16.5t-17 44.5z" />
    <glyph glyph-name="at" unicode="@" horiz-adv-x="768" 
d="M392 659q138 0 230.5 -91t92.5 -236q0 -85 -39 -136.5t-111 -51.5q-36 0 -54.5 12t-39.5 39l-5 6q-48 -31 -98 -31q-66 0 -113 51t-47 117q0 65 47.5 115t107.5 50q53 0 98 -27v18h85v-128q-2 -19 -2 -56q0 -97 37 -97q29 0 50.5 39t21.5 93q0 102 -77.5 175t-187.5 73
q-112 0 -188.5 -76.5t-76.5 -187.5q0 -113 79 -188.5t199 -75.5q22 0 72 6q3 0 11 0.5t11 0.5q31 3 65 3h75q-114 -79 -212 -79q-162 0 -266 94t-104 238q0 141 97.5 236t241.5 95zM377 247q38 0 64 25.5t26 62.5q0 39 -26.5 65t-64.5 26q-37 0 -62.5 -26t-25.5 -64
t25.5 -63.5t63.5 -25.5z" />
    <glyph glyph-name="A" unicode="A" horiz-adv-x="630" 
d="M-30 0l255 674h94q36 -87 163 -424q7 -20 42.5 -112.5t52.5 -137.5h-102l-78 207h-247l-73 -207h-107zM362 302l-88 230q-5 -15 -27 -71q-43 -113 -60 -159h175z" />
    <glyph glyph-name="B" unicode="B" horiz-adv-x="598" 
d="M469 334q76 -61 76 -140q0 -114 -76 -169q-51 -25 -105 -25h-311v674h207q20 0 30 1h33q100 0 135 -26l-1 1q87 -61 87 -161q0 -47 -14 -83.5t-61 -71.5zM447 486q0 38 -23 66.5t-64 28.5l-214 1v-203h122q33 0 51.5 1t46.5 6.5t43 16t26.5 31.5t11.5 52zM146 90l121 -2
h30q5 0 14.5 -0.5t14.5 -0.5q60 0 88.5 20.5t28.5 76.5q0 40 -24 69t-71 34h-202v-197z" />
    <glyph glyph-name="C" unicode="C" horiz-adv-x="763" 
d="M395 90q113 0 238 126q35 -15 74 -39q-41 -81 -123.5 -129t-180.5 -48q-149 0 -249.5 96.5t-100.5 238.5q0 144 104 241.5t258 97.5q88 0 158.5 -40.5t136.5 -129.5q-38 -24 -45 -28q-20 -11 -32 -20q-61 71 -109.5 99t-108.5 28q-115 0 -190.5 -69.5t-75.5 -173.5
q0 -105 72 -177.5t174 -72.5z" />
    <glyph glyph-name="D" unicode="D" horiz-adv-x="691" 
d="M286 674q87 0 156 -29.5t110.5 -79t63.5 -109t22 -123.5q0 -86 -27.5 -150.5t-75.5 -101t-100 -55.5t-114 -26h-268q1 45 1 150v134q-1 45 -1 139q0 151 3 251h230zM149 90l108 -2q126 0 206 65.5t80 171.5q0 94 -61 168.5t-153 80.5q-24 3 -180 4v-488z" />
    <glyph glyph-name="E" unicode="E" horiz-adv-x="549" 
d="M53 674h444v-88h-349v-196h349v-91l-348 -1v-211h348v-87h-444v674z" />
    <glyph glyph-name="F" unicode="F" horiz-adv-x="549" 
d="M497 674v-88h-349v-196h349v-91l-348 -1v-298h-96v674h444z" />
    <glyph glyph-name="G" unicode="G" horiz-adv-x="790" 
d="M386 384h224q41 -1 127 -1v-23q0 -138 -76 -229.5t-211 -124.5q-28 -6 -64 -6q-138 0 -235.5 98.5t-97.5 239.5q0 143 101 239.5t251 96.5q96 0 164 -36.5t127 -114.5l14 -19q-33 -22 -78 -45q-65 71 -111 97.5t-104 26.5q-117 0 -192.5 -70t-75.5 -177q0 -102 69.5 -173
t169.5 -71q107 0 184 77q44 46 64 128q-19 0 -57.5 -0.5t-58.5 -0.5h-149v88h15z" />
    <glyph glyph-name="H" unicode="H" horiz-adv-x="611" 
d="M144 0h-91v674h91v-285h323v285h91v-674h-91v299h-323v-299z" />
    <glyph glyph-name="I" unicode="I" horiz-adv-x="198" 
d="M145 0h-93v674h93v-674z" />
    <glyph glyph-name="J" unicode="J" horiz-adv-x="549" 
d="M494 375q0 -11 0.5 -31.5t0.5 -30.5q0 -9 0.5 -26.5t0.5 -25.5q0 -81 -16 -132t-62 -84q-65 -45 -157 -45q-66 0 -111 23.5t-97 91.5l70 61q41 -51 68 -68t78 -17q67 0 97.5 40t30.5 137v127q0 153 -2 279h99v-299z" />
    <glyph glyph-name="K" unicode="K" horiz-adv-x="603" 
d="M219 348q14 -14 137 -145q103 -111 194 -203q-108 0 -131 -1q-132 143 -272 278v-277h-94v674h93q1 -49 1 -162q0 -10 -0.5 -54.5t0.5 -53.5q86 93 269 270h130z" />
    <glyph glyph-name="L" unicode="L" horiz-adv-x="531" 
d="M476 72q0 -6 0.5 -15.5t0.5 -14.5v-42h-424v674h93v-587h330v-15z" />
    <glyph glyph-name="M" unicode="M" horiz-adv-x="725" 
d="M579 135v126v119q0 13 0.5 65.5t-0.5 63.5q-25 -39 -119 -192q-44 -74 -99 -163q-10 17 -37 62t-38 62q-118 195 -139 228q-1 -44 -1 -167q0 -57 1 -90v-119q0 -93 -1 -131h-93q0 163 1 236v213q0 156 -1 226h101q87 -136 207 -337q66 106 98 160q81 131 110 177h103
v-674h-93v135z" />
    <glyph glyph-name="N" unicode="N" horiz-adv-x="616" 
d="M563 659q-1 -159 -1 -659h-77q-75 105 -174 252q-115 171 -165 239v-491h-91q-1 112 -1 336.5t-1 337.5h79q238 -345 333 -489v489h98v-15z" />
    <glyph glyph-name="O" unicode="O" horiz-adv-x="803" 
d="M403 674q145 0 246 -96.5t101 -237.5q0 -140 -101 -240t-245 -100q-147 0 -249 100.5t-102 239.5t102 236.5t248 97.5zM401 88q104 0 178.5 76t74.5 178t-72.5 171.5t-178.5 69.5q-107 0 -181 -69.5t-74 -172.5q0 -102 74.5 -177.5t178.5 -75.5z" />
    <glyph glyph-name="P" unicode="P" horiz-adv-x="590" 
d="M53 0v674l293 2q90 0 140.5 -61.5t50.5 -153.5q0 -91 -50.5 -154.5t-142.5 -64.5l-200 -2l2 -240h-93zM259 337h21q4 0 10 -0.5t10 -0.5q69 0 105.5 24t36.5 101q0 55 -26 88t-70 33h-200v-245h113z" />
    <glyph glyph-name="Q" unicode="Q" horiz-adv-x="807" 
d="M407 674q144 0 245 -100t101 -245q0 -59 -19 -106.5t-69 -117.5q42 -44 67 -69l-30 -29q-4 -4 -19.5 -18.5t-20.5 -19.5l-73 75q-65 -28 -103.5 -39t-80.5 -11q-149 0 -250.5 95t-101.5 238q0 145 103.5 246t250.5 101zM596 174q63 67 63 151q0 109 -74 183.5t-180 74.5
t-181.5 -74.5t-75.5 -178.5q0 -102 73 -172t175 -70q59 0 123 28q-33 36 -99 102q-9 10 -38 39q25 27 71 67z" />
    <glyph glyph-name="R" unicode="R" horiz-adv-x="614" 
d="M336 241h-192l2 -241h-93v674h293q90 0 140.5 -60.5t50.5 -152.5q0 -65 -27 -118.5t-78 -80.5l128 -262h-105zM442 461q0 58 -26 92t-70 34h-200v-250h136q4 0 11 -0.5t10 -0.5q68 0 103.5 24t35.5 101z" />
    <glyph glyph-name="S" unicode="S" horiz-adv-x="597" 
d="M178 496q0 -39 45 -66q29 -18 105 -41q38 -12 61.5 -20.5t56 -25.5t51 -36t32.5 -48.5t14 -65.5q0 -82 -62.5 -137.5t-160.5 -55.5h-25q-161 0 -242 183l78 40q37 -68 77.5 -103.5t99.5 -35.5q54 0 96.5 30t42.5 70q0 22 -11.5 39.5t-37.5 32t-46 22.5t-59 21
q-80 28 -117 48q-94 53 -94 144q0 80 60.5 131.5t154.5 51.5q72 0 127.5 -35t106.5 -114l-74 -43q-25 31 -36 43t-32 30t-41.5 24.5t-47.5 6.5q-54 0 -88 -25.5t-34 -64.5z" />
    <glyph glyph-name="T" unicode="T" horiz-adv-x="598" 
d="M53 587v87h489l3 -86h-200l2 -588h-94v587h-200z" />
    <glyph glyph-name="U" unicode="U" horiz-adv-x="618" 
d="M564 659q-1 -18 -1 -55q0 -18 0.5 -56t0.5 -58v-134v-101q-7 -115 -79 -185t-178 -70q-97 0 -170 59.5t-81 155.5q-3 23 -3 102q0 121 1 181q1 41 1 122v54h92l-1 -294v-21q0 -7 -0.5 -22.5t-0.5 -23.5q0 -47 5 -80t20 -67.5t49 -53t85 -18.5q160 0 164 179v401h96v-15z
" />
    <glyph glyph-name="V" unicode="V" horiz-adv-x="692" 
d="M346 146q84 219 163 449q20 59 28 79h101q-148 -440 -252 -674h-84q-120 319 -249 674h97q59 -134 149 -391q38 -113 47 -137zM344 140l-12 -32z" />
    <glyph glyph-name="W" unicode="W" horiz-adv-x="1016" 
d="M715 158q65 209 116 407q18 72 33 109h99q-12 -42 -65 -223q-84 -293 -132 -451h-95q-51 137 -130 399q-26 87 -33 109q-25 -80 -98 -316l-60 -192h-94l-55 163q-96 327 -148 511h101q31 -97 69 -239q51 -185 80 -277q26 82 61 202q60 199 99 314h91q48 -130 111 -349
q32 -110 50 -167z" />
    <glyph glyph-name="X" unicode="X" horiz-adv-x="659" 
d="M386 353q30 -47 156 -250q10 -16 34.5 -56t28.5 -47h-108q-2 2 -20 31q-106 164 -148 225q-39 -58 -90 -141q-48 -78 -75 -115h-111l217 356l-26 46q-17 28 -74 114q-66 101 -100 158h106q36 -54 59 -90q55 -88 94 -145l161 235h103q-58 -94 -122 -189q-10 -15 -39 -60
t-46 -72z" />
    <glyph glyph-name="Y" unicode="Y" horiz-adv-x="688" 
d="M161 674l184 -296l184 296h106l-244 -395v-279h-95v278l-243 396h108z" />
    <glyph glyph-name="Z" unicode="Z" horiz-adv-x="587" 
d="M64 674h470l-315 -586h299v-88h-465l325 585h-314v89z" />
    <glyph glyph-name="bracketleft" unicode="[" horiz-adv-x="308" 
d="M255 731v-84h-113v-651h113v-80h-202v815h202z" />
    <glyph glyph-name="bracketright" unicode="]" horiz-adv-x="308" 
d="M255 -84h-202v80h113v651h-113v84h202v-815z" />
    <glyph glyph-name="asciicircum" unicode="^" horiz-adv-x="540" 
d="M392 352l-126 200l-119 -200h-94l181 300h64l189 -300h-95z" />
    <glyph glyph-name="underscore" unicode="_" horiz-adv-x="526" 
d="M53 -118v81h419v-81h-419z" />
    <glyph glyph-name="a" unicode="a" horiz-adv-x="608" 
d="M466 478h87l2 -478h-89v53q-31 -26 -67.5 -40t-59.5 -16.5t-56 -2.5q-91 0 -160.5 76t-69.5 174t69.5 172t163.5 74q104 0 180 -62v50zM304 81q68 0 115 47.5t47 114.5t-47.5 114t-114.5 47t-113.5 -48t-46.5 -118q0 -66 46.5 -111.5t113.5 -45.5z" />
    <glyph glyph-name="b" unicode="b" horiz-adv-x="604" 
d="M297 488q108 0 181 -70.5t73 -173.5q0 -102 -71 -176.5t-169 -74.5q-102 0 -173 65v-58h-85v653h85v-223q59 58 159 58zM299 81q67 0 114.5 47.5t47.5 113.5q0 65 -48.5 112.5t-113.5 47.5q-66 0 -112.5 -48t-46.5 -114q0 -67 46.5 -113t112.5 -46z" />
    <glyph glyph-name="c" unicode="c" horiz-adv-x="578" 
d="M516 116q-78 -122 -211 -122q-106 0 -179 71.5t-73 177.5t68.5 176.5t179.5 70.5q137 0 223 -134l-70 -43q-39 47 -72.5 68t-78.5 21q-70 0 -114.5 -44.5t-44.5 -113.5q0 -66 45 -113t108 -47q42 0 79.5 17.5t77.5 71.5l71 -44z" />
    <glyph glyph-name="d" unicode="d" horiz-adv-x="604" 
d="M307 490q98 0 160 -59v222h84v-653h-84v59q-72 -65 -173 -65q-98 0 -169.5 74.5t-71.5 175.5q0 103 73 174.5t181 71.5zM305 82q66 0 112.5 46.5t46.5 113.5q0 66 -46.5 113t-112.5 47q-65 0 -113 -47t-48 -112q0 -66 47 -113.5t114 -47.5z" />
    <glyph glyph-name="e" unicode="e" horiz-adv-x="594" 
d="M538 197h-390q31 -115 153 -115q48 0 83 17t70 59l69 -41q-34 -57 -91.5 -90t-124.5 -33q-110 0 -182 70.5t-72 177.5q0 105 71 176.5t176 71.5q106 0 173 -73.5t67 -189.5zM301 401q-115 0 -150 -115h291q-27 115 -141 115z" />
    <glyph glyph-name="f" unicode="f" horiz-adv-x="395" 
d="M127 404h-74v86h74v2q0 84 26 122t108 38l62 -2v-85h-57q-19 0 -30.5 -5.5t-16 -17.5t-6 -22.5t-1.5 -29.5h129v-86h-127v-404h-87v404z" />
    <glyph glyph-name="g" unicode="g" horiz-adv-x="607" 
d="M463 478h89v-425q-5 -124 -67.5 -180t-187.5 -56q-65 0 -116 28t-104 97l77 46q32 -40 63.5 -59.5t50 -22.5t49.5 -3q73 0 113 45q28 33 32 103q-55 -57 -158 -57q-107 0 -179 70t-72 170v22q0 92 72 163.5t165 71.5q103 0 173 -63v50zM303 84q66 0 112.5 45t46.5 111
q0 67 -47 114.5t-114 47.5q-66 0 -112.5 -46.5t-46.5 -112.5t46.5 -112.5t114.5 -46.5z" />
    <glyph glyph-name="h" unicode="h" horiz-adv-x="513" 
d="M271 491q81 0 136 -46q53 -52 53 -195v-31v-30q0 -9 -0.5 -32t-0.5 -38q-1 -32 -1 -119h-85l1 185v27q1 12 1 36q0 70 -22 111.5t-86 42.5q-41 -1 -68 -19t-39.5 -50t-17 -62.5t-4.5 -71.5v-33q0 -6 0.5 -15.5t0.5 -14.5v-136h-86v653h86v-130v-43v-25q44 36 132 36z" />
    <glyph glyph-name="i" unicode="i" horiz-adv-x="223" 
d="M53 595q0 26 16 42t42 16q27 0 43 -16t16 -42t-16 -41.5t-43 -15.5q-26 0 -42 15.5t-16 41.5zM152 478v-478h-84v478h84z" />
    <glyph glyph-name="j" unicode="j" horiz-adv-x="298" 
d="M127 595q0 26 16.5 42t42.5 16q27 0 42.5 -16t15.5 -42t-15.5 -41.5t-42.5 -15.5q-26 0 -42.5 16t-16.5 41zM226 2q0 -49 -3.5 -77t-16 -55t-40.5 -39t-73 -12h-40v87q24 0 29 -1q2 0 6 -0.5t6 -0.5q22 0 36 11q12 12 12 68v21v89v54v331h85z" />
    <glyph glyph-name="k" unicode="k" horiz-adv-x="520" 
d="M53 653h85v-360l201 197h113l-253 -245l267 -245h-117l-212 192v-192h-84v653z" />
    <glyph glyph-name="l" unicode="l" horiz-adv-x="190" 
d="M138 653v-653h-84l-2 653h86z" />
    <glyph glyph-name="m" unicode="m" horiz-adv-x="776" 
d="M536 490q47 0 90.5 -18.5t66.5 -54.5q31 -50 31 -173q0 -6 -0.5 -16.5t-0.5 -15.5v-31l-2 -181h-86v273q0 129 -97 129q-27 0 -47.5 -11.5t-30.5 -25t-16.5 -36.5t-8 -35t-2.5 -31q0 -13 -1 -17v-246h-91l2 251q-1 151 -95 151q-35 0 -58 -16t-33.5 -48t-13.5 -61.5
t-3 -73.5v-36v-34v-133h-87l2 490h85v-28q33 28 108 28q85 0 138 -65q27 38 62 51.5t88 13.5z" />
    <glyph glyph-name="n" unicode="n" horiz-adv-x="515" 
d="M267 490q74 0 126 -41t65 -111q4 -29 4 -89v-249h-87v210q0 4 0.5 14t0.5 14q0 79 -22.5 122.5t-82.5 43.5q-44 0 -72 -11.5t-40.5 -37t-16.5 -52t-4 -69.5q0 -5 0.5 -13t0.5 -11v-210h-86l2 490h86l-1 -38q45 38 127 38z" />
    <glyph glyph-name="o" unicode="o" horiz-adv-x="608" 
d="M307 490q103 0 175.5 -71t72.5 -172q0 -103 -72 -175t-178 -72q-105 0 -178.5 72.5t-73.5 173.5t74.5 172.5t179.5 71.5zM305 86q67 0 114 48t47 113q0 64 -48 110.5t-114 46.5t-113 -46.5t-47 -111.5q0 -66 47 -113t114 -47z" />
    <glyph glyph-name="p" unicode="p" horiz-adv-x="603" 
d="M297 0q-98 0 -159 58v-240h-85v660h85v-47q68 60 163 60q98 0 173.5 -74.5t75.5 -173.5q0 -102 -72.5 -172.5t-180.5 -70.5zM298 404q-66 0 -112.5 -46.5t-46.5 -113.5q0 -65 46.5 -111.5t112.5 -46.5t113.5 46.5t47.5 111.5t-47 112.5t-114 47.5z" />
    <glyph glyph-name="q" unicode="q" horiz-adv-x="603" 
d="M307 -6q-109 0 -181.5 71t-72.5 174q0 102 71 176.5t170 74.5t172 -66v54h84v-660h-84v235q-62 -59 -159 -59zM304 402q-66 0 -113 -47t-47 -113t47 -113.5t114 -47.5q66 0 112.5 48t46.5 114t-47 112.5t-113 46.5z" />
    <glyph glyph-name="r" unicode="r" horiz-adv-x="358" 
d="M114 429q31 38 77.5 49.5t113.5 11.5v-95q-33 7 -44 7q-48 0 -84 -20.5t-36 -61.5v-45q0 -13 -0.5 -46t-0.5 -53v-176h-87v478h85v-19z" />
    <glyph glyph-name="s" unicode="s" horiz-adv-x="480" 
d="M168 348q0 -24 25.5 -37.5t75.5 -26.5q31 -9 46 -13.5t41 -16.5t38 -24.5t22.5 -34.5t10.5 -49q0 -65 -50 -105.5t-134 -40.5q-58 0 -100.5 24.5t-89.5 92.5l73 48q31 -44 55 -60.5t65 -16.5q42 0 66.5 14.5t24.5 39.5q0 17 -17 30t-33 18.5t-52 15.5q-30 8 -46.5 13
t-41.5 16.5t-38 24.5t-23 34t-10 48q0 66 46.5 107t125.5 41q48 0 85.5 -21.5t92.5 -83.5l-72 -48q-23 26 -35 37t-30.5 19.5t-41.5 8.5q-35 0 -57 -14.5t-22 -39.5z" />
    <glyph glyph-name="t" unicode="t" horiz-adv-x="418" 
d="M238 177q0 -48 12 -69.5t45 -21.5q22 0 70 12v-87q-16 -4 -24 -4q-40 -7 -58 -7q-80 0 -108.5 45.5t-28.5 129.5v227h-93v88h93v115h92v-115h127v-88h-127v-225z" />
    <glyph glyph-name="u" unicode="u" horiz-adv-x="515" 
d="M248 -6q-73 0 -126.5 42t-64.5 112q-4 28 -4 88v254h86v-213q-1 -11 -1 -31q0 -78 23.5 -121.5t83.5 -43.5q43 0 71 12.5t40.5 35.5t17 44.5t4.5 50.5q0 5 -0.5 14.5t-0.5 14.5v23v214h85l-1 -490h-87l2 33q-47 -39 -128 -39z" />
    <glyph glyph-name="v" unicode="v" horiz-adv-x="585" 
d="M291 124l148 366h93l-198 -490h-88l-193 490h96z" />
    <glyph glyph-name="w" unicode="w" horiz-adv-x="779" 
d="M201 0l-148 490h95l96 -338l110 338h77l106 -337l98 337h91l-150 -490h-79l-107 321l-104 -321h-85z" />
    <glyph glyph-name="x" unicode="x" horiz-adv-x="576" 
d="M523 490l-182 -247l182 -243h-102l-132 173l-133 -173h-103l184 243l-184 247h102l134 -181l133 181h101z" />
    <glyph glyph-name="y" unicode="y" horiz-adv-x="585" 
d="M394 111q-4 -10 -10 -28q-23 -63 -33.5 -88.5t-31.5 -61t-48 -63.5q-50 -52 -144 -52v80q54 9 89 41t35 73q0 19 -26 73q-3 6 -9.5 20t-12.5 27t-11 26l-139 332h94l157 -363q22 55 78 213q48 132 55 150h95z" />
    <glyph glyph-name="z" unicode="z" horiz-adv-x="508" 
d="M85 490h370l-243 -404h232v-86h-391l250 402h-218v88z" />
    <glyph glyph-name="braceleft" unicode="{" horiz-adv-x="390" 
d="M236 226q0 -33 -2 -81q-1 -21 -1 -55q0 -49 11 -67t57 -29q15 -3 35 -10l-2 -73h-49q-44 0 -72.5 14.5t-42.5 43t-19 59t-5 73.5q0 31 1 47q1 15 1 43q0 42 -11.5 62.5t-50.5 31.5q-3 1 -12.5 4.5t-18.5 6.5l-1 33q0 3 -0.5 16.5t-0.5 17.5l57 18q26 8 31 12.5t5 22.5
q0 45 -1 67q0 10 -0.5 30.5t-0.5 29.5q0 118 37.5 161t151.5 43q0 -42 4 -76q-26 -8 -37 -9q-45 -9 -55.5 -26t-10.5 -64v-17q0 -35 1 -51v-43q0 -49 -9 -75.5t-40 -57.5q35 -38 42.5 -53t7.5 -49z" />
    <glyph glyph-name="bar" unicode="|" horiz-adv-x="235" 
d="M162 639v-638h-88v638h88z" />
    <glyph glyph-name="braceright" unicode="}" horiz-adv-x="390" 
d="M155 226q0 33 7.5 48.5t42.5 53.5q-31 33 -40 57.5t-9 75.5q0 7 0.5 21t0.5 22t0.5 25t0.5 26v17q0 34 -4 50q-5 13 -16.5 21.5t-20 11.5t-26.5 7q-12 1 -36 9q3 34 3 76q113 0 150.5 -41t37.5 -162q0 -40 -1 -61q0 -11 -0.5 -33t-0.5 -34q0 -18 5 -23t31 -12l58 -18
q0 -4 -0.5 -17t-0.5 -17v-33q-30 -11 -31 -11q-41 -12 -52 -33t-11 -66q0 -6 0.5 -20t0.5 -21q1 -15 1 -44q0 -43 -5 -74t-19 -59t-43 -42.5t-72 -14.5h-49l-1 73q17 6 35 10q53 13 63 42q4 16 4 50q0 35 -1 56q-2 50 -2 84z" />
    <glyph glyph-name="yen" unicode="&#xa5;" horiz-adv-x="610" 
d="M532 281v-63h-184v-53h184v-61h-184v-94h-88v94h-184v61h184v53h-184v63h184v14l-239 358h95l187 -283l190 283h96l-241 -356v-16h184z" />
    <glyph glyph-name="copyright" unicode="&#xa9;" horiz-adv-x="761" 
d="M708 325q0 -135 -89.5 -233.5t-232.5 -98.5q-133 0 -233 100t-100 232q0 130 100.5 230.5t232.5 100.5q143 0 232.5 -98.5t89.5 -232.5zM640 325q0 105 -70.5 184t-182.5 79q-103 0 -183 -80t-80 -183q0 -101 80.5 -179t182.5 -83h3q107 4 178.5 82.5t71.5 179.5z
M387 153q-67 0 -117 52t-50 120t50.5 119.5t116.5 51.5q71 0 145 -66l-57 -63q-46 47 -84 47q-34 0 -59.5 -26.5t-25.5 -62.5q0 -37 24.5 -63.5t60.5 -26.5t85 47l55 -62q-69 -67 -144 -67z" />
    <glyph glyph-name="guillemotleft" unicode="&#xab;" horiz-adv-x="463" 
d="M152 323l113 -175h-104l-108 175l108 171h102zM299 322l111 -174h-103l-108 174l108 172h102z" />
    <glyph glyph-name="registered" unicode="&#xae;" horiz-adv-x="755" 
d="M701 318q0 -127 -98.5 -226t-224.5 -99q-128 0 -226.5 98.5t-98.5 226.5q0 126 98.5 225t226.5 99q125 0 224 -99t99 -225zM632 318q0 100 -77.5 177.5t-176.5 77.5q-100 0 -177.5 -77.5t-77.5 -177.5t77.5 -177t177.5 -77q98 0 175 77.5t79 176.5zM443 155l-69 110h-38
v-110h-76v323h123q53 0 86 -27t33 -79q0 -66 -51 -93l83 -124h-91zM336 407v-71h45q46 0 46 36q0 35 -46 35h-45z" />
    <glyph glyph-name="guillemotright" unicode="&#xbb;" horiz-adv-x="463" 
d="M53 148l111 174l-109 172h101l109 -172l-109 -174h-103zM199 148l111 175l-110 171h102l108 -171l-107 -175h-104z" />
    <glyph glyph-name="divide" unicode="&#xf7;" horiz-adv-x="461" 
d="M170 438q0 27 17 44.5t46 17.5q27 0 44.5 -17.5t17.5 -44.5t-17 -44t-45 -17q-29 0 -46 17t-17 44zM408 272h-355v83h355v-83zM170 188q0 27 17 44.5t46 17.5q27 0 44.5 -17.5t17.5 -44.5q0 -28 -17 -44.5t-45 -16.5q-29 0 -46 16.5t-17 44.5z" />
    <glyph glyph-name="tilde" unicode="&#x2dc;" horiz-adv-x="521" 
d="M443 561q0 -65 -29.5 -102.5t-76.5 -37.5q-49 0 -78 29l-29 30q-26 24 -39 24q-15 0 -24 -22.5t-9 -56.5h-74v25q0 66 29 102.5t77 36.5q31 0 51.5 -13t44.5 -39q30 -32 50 -32q15 0 23.5 22t9.5 56h74v-22z" />
    <glyph glyph-name="endash" unicode="&#x2013;" horiz-adv-x="578" 
d="M525 153h-472v81h472v-81z" />
    <glyph glyph-name="quoteleft" unicode="&#x2018;" horiz-adv-x="252" 
d="M123 707q39 16 76 26q-19 -137 -41 -240q-24 2 -47 2q-22 0 -58 -3q19 68 23 83q23 89 42 129z" />
    <glyph glyph-name="quoteright" unicode="&#x2019;" horiz-adv-x="256" 
d="M127 511q-28 -11 -69 -22l28 168q9 44 13 72q24 -2 48 -2q33 0 57 2q-12 -40 -22 -80q-22 -86 -44 -133z" />
    <glyph glyph-name="quotesinglbase" unicode="&#x201a;" horiz-adv-x="248" 
d="M105 138q53 0 90 -3l-19 -73q-19 -81 -40 -129q-17 -12 -45 -24q-29 -12 -38 -17q10 96 40 246h12z" />
    <glyph glyph-name="quotedblleft" unicode="&#x201c;" horiz-adv-x="376" 
d="M250 710q31 13 75 27q-11 -78 -28 -176l-12 -67q-24 4 -47 4q-24 0 -58 -6q19 71 20 77q25 95 45 138zM130 707q41 17 75 26q-14 -100 -40 -240q-24 2 -48 2q-21 0 -57 -3l20 76q23 90 45 137z" />
    <glyph glyph-name="quotedblright" unicode="&#x201d;" horiz-adv-x="377" 
d="M262 517q-34 -16 -75 -26q10 69 28 175l12 66q26 -4 48 -4q23 0 57 6q-14 -52 -20 -77q-21 -85 -45 -138zM140 514q-34 -14 -74 -25q18 129 40 239l48 -1q25 0 57 2q-10 -30 -20 -75q-22 -90 -45 -138z" />
    <glyph glyph-name="quotedblbase" unicode="&#x201e;" horiz-adv-x="374" 
d="M56 -81q6 58 28 174l8 45h104q-14 -50 -19 -73q-23 -91 -41 -133q-20 -13 -50 -24q-6 -4 -33 -13zM230 135q17 1 91 1q-7 -23 -18 -69q-20 -86 -41 -129q-15 -15 -43 -27q-34 -17 -39 -20q5 89 38 244h12z" />
    <glyph glyph-name="ellipsis" unicode="&#x2026;" horiz-adv-x="645" 
d="M258 90q0 29 18 45.5t46 16.5q29 0 46.5 -16.5t17.5 -45.5q0 -26 -18 -43.5t-46 -17.5t-46 17.5t-18 43.5zM466 90q0 29 16.5 45.5t45.5 16.5t46 -16.5t17 -45.5q0 -26 -17 -43.5t-46 -17.5q-28 0 -45 17.5t-17 43.5zM53 88q0 29 17.5 46t46.5 17q28 0 45 -17t17 -46
q0 -27 -17 -44t-45 -17q-29 0 -46.5 17t-17.5 44z" />
    <glyph glyph-name="guilsinglleft" unicode="&#x2039;" horiz-adv-x="317" 
d="M154 323l110 -175h-103l-108 175l108 171h102z" />
    <glyph glyph-name="guilsinglright" unicode="&#x203a;" horiz-adv-x="318" 
d="M53 148l111 175l-109 171h101l109 -171l-109 -175h-103z" />
    <glyph glyph-name="Euro" unicode="&#x20ac;" horiz-adv-x="584" 
d="M443 600q-72 0 -131.5 -35t-94.5 -101h320l-31 -81l-313 4q-2 -30 -2 -38q0 -17 3 -40h345l-41 -77h-279q36 -65 94 -99t129 -34q44 0 108 20v-81q-59 -20 -118 -20q-106 0 -189.5 56.5t-119.5 157.5h-102l2 74l82 2q-2 17 -2 41q0 12 1 38h-80v77h96q35 103 120 160
t195 57q69 0 128 -23v-82q-70 24 -120 24z" />
    <glyph glyph-name="trademark" unicode="&#x2122;" horiz-adv-x="735" 
d="M518 519v38v29v12v16l-72 -117q-33 53 -71 115v-11v-36v-48q0 -53 -1 -69h-70l1 112v86v37h-83v-236h-74v236h-102v72h279v-3h45q31 -48 76 -122l27 44q21 37 47 78h67v-304h-69v71z" />
    <glyph glyph-name="fraction" horiz-adv-x="324" 
d="M29 18h-90l355 827h91z" />
    <glyph glyph-name="exclamdown" 
d="M53 591q0 27 17.5 44.5t46.5 17.5q28 0 45 -17.5t17 -44.5q0 -28 -17 -45.5t-45 -17.5q-29 0 -46.5 17.5t-17.5 45.5zM156 493q10 -215 16 -493h-109q5 259 19 493h74z" />
    <glyph glyph-name="questiondown" horiz-adv-x="524" 
d="M188 591q0 28 17 45t46 17q28 0 46 -17t18 -45q0 -26 -18 -43.5t-46 -17.5t-45.5 17t-17.5 44zM265 0q-131 0 -195 112l-17 29q40 20 76 42q37 -55 63.5 -73.5t63.5 -18.5q55 0 87 23.5t32 61.5q0 22 -14 46t-26.5 38t-40.5 41q-45 44 -61.5 69.5t-26.5 78.5q-4 26 -7 34
q12 2 35 2q10 0 43 3q59 -105 110 -156q21 -21 29.5 -30.5t24.5 -31t22.5 -44t6.5 -49.5q0 -76 -58.5 -126.5t-146.5 -50.5z" />
    <glyph glyph-name="CR" horiz-adv-x="278" 
 />
    <glyph glyph-name="cent" horiz-adv-x="578" 
d="M524 129l-8 -13q-65 -104 -174 -119v-76h-84v77q-90 16 -147.5 83.5t-57.5 161.5q0 95 55 162t149 81v88h85v-87q108 -17 182 -131l-70 -43q-61 74 -112 86v-311q57 14 112 85zM144 244q0 -55 32.5 -97.5t81.5 -57.5l-1 307q-51 -14 -82 -55t-31 -97z" />
    <glyph glyph-name="sterling" horiz-adv-x="536" 
d="M409 470q-2 47 -35 77.5t-81 30.5q-51 0 -84 -33.5t-33 -84.5v-112h216l-48 -77h-168v-193h258v114h81v-192h-494v65l67 11v195h-58v77h58v117q0 87 57 142t148 55q87 0 141.5 -58t56.5 -149h-82v15z" />
    <glyph glyph-name="greaterequal" horiz-adv-x="312" 
d="M-38 211v102l261 104l-261 101v102l389 -161v-82z" />
    <glyph glyph-name="lessequal" horiz-adv-x="312" 
d="M351 518l-261 -101l261 -104v-102l-389 166v82l389 161v-102z" />
    <glyph glyph-name="NULL" horiz-adv-x="278" 
 />
    <glyph glyph-name="_FSHallmark" horiz-adv-x="754" 
d="M701 529h-630v74h630v-74zM619 388q0 14 -16.5 27t-38.5 13q-20 0 -36 -9.5t-16 -21.5q0 -17 9 -26.5t39 -17.5l27 -6q27 -6 37.5 -9t28.5 -9.5t25.5 -13.5t14 -18.5t7.5 -27.5q1 -42 -36.5 -68t-98.5 -26q-68 0 -103.5 34t-35.5 79l73 -1q0 -8 4 -18t21 -21.5t44 -11.5
q24 0 39.5 8.5t15.5 19.5q0 22 -60 36q-56 14 -92 33q-38 20 -38 63q0 41 37.5 67t94.5 26q60 0 95 -30.5t35 -70.5h-76zM305 277h-151v-102h-83v313h265v-71h-182v-70h151v-70zM329 213q0 15 11 26t27 11q17 0 29.5 -11t12.5 -26q0 -16 -12 -26t-30 -10q-16 0 -27 10.5
t-11 25.5zM700 61h-631v75h631v-75z" />
    <glyph glyph-name="_Fontastica" horiz-adv-x="754" 
d="M218 260v-147h-87q-1 1 -1 4v510h382v-78h-294v-210h295v-79h-295zM273 402v79h296v146h87v-513h-383v78h296v210h-296zM569 63q-11 -7 -1 -19q3 -4 9 -4q7 0 14 4l4 -4q-6 -9 -18 -9q-8 0 -16 5q-6 6 -6.5 16t5.5 17q8 8 17 8q10 0 18 -8l-4 -6q-10 5 -12 5h-2
q-6 -2 -8 -5zM131 32v44h32v-8h-21v-12h20v-7h-20v-17h-11zM203 76q15 0 22 -12q7 -8 1.5 -20t-18.5 -13q-4 -2 -6 -2q-6 0 -9 3q-14 6 -14 19q0 11 7 18t17 7zM279 76h9v-44q-2 0 -3.5 -0.5t-2.5 -0.5q-3 0 -7 5q-7 10 -17 23v-27h-10v44q10 0 13 -6l9 -12l9 -12v30z
M307 68v8h37v-8h-14v-36h-9v36h-14zM444 55q9 -1 9 -10q2 -8 -8 -13q-2 -1 -8 -1q-14 0 -21 7l3 6l14 -4h6l2 1q1 0 1 1q0 4 -2 5q-1 2 -8 4l-2 1q-3 1 -4 1q-7 2 -7 10q-1 7 6 11q3 2 10 2q11 0 18 -4l-4 -8q-2 1 -5.5 2.5t-4.5 1.5h-6q-3 0 -3 -3q-2 -2 3 -6q6 -1 11 -4z
M468 68v8h38v-8h-14v-36h-10v36h-14zM524 32v44h11v-44h-11zM640 76q2 -4 8 -19.5t11 -24.5h-10l-4 9h-21l-4 -9h-10q10 20 18 44h12zM382 74q9 -17 18 -42h-10l-3 9h-20q-2 -7 -4 -9h-9q5 13 18 42h10zM216 54q0 14 -12 14q-1 0 -2.5 -0.5t-2.5 -0.5q-15 -7 -9 -18
q3 -10 13 -10q3 0 4 1q9 2 9 13v1zM369 49h15q-6 9 -7 16zM627 49h14q-2 2 -3.5 8t-3.5 8z" />
    </font>
</defs>
</svg>
