<?xml version="1.0" standalone="no"?>
<!DOCTYPE svg PUBLIC "-//W3C//DTD SVG 1.1//EN" "http://www.w3.org/Graphics/SVG/1.1/DTD/svg11.dtd" >
<svg xmlns="http://www.w3.org/2000/svg" xmlns:xlink="http://www.w3.org/1999/xlink" version="1.1">
<metadata>
Created by FontForge 20170731 at Wed Aug  8 20:07:19 2018
 By Aleksey,,,
Copyright (c) 2018 by Fontastica. All rights reserved.
</metadata>
<defs>
<font id="VisiaPro-Light" horiz-adv-x="198" >
  <font-face 
    font-family="Visia Pro Light"
    font-weight="300"
    font-stretch="normal"
    units-per-em="1000"
    panose-1="0 0 4 0 0 0 0 0 0 0"
    ascent="800"
    descent="-200"
    x-height="501"
    cap-height="672"
    bbox="-61 -206 962 900"
    underline-thickness="50"
    underline-position="-225"
    unicode-range="U+0020-2122"
  />
<missing-glyph horiz-adv-x="696" 
 />
    <glyph glyph-name=".notdef" horiz-adv-x="696" 
 />
    <glyph glyph-name=".null" horiz-adv-x="0" 
 />
    <glyph glyph-name="nonmarkingreturn" horiz-adv-x="333" 
 />
    <glyph glyph-name="space" unicode=" " horiz-adv-x="323" 
 />
    <glyph glyph-name="exclam" unicode="!" 
d="M84 180q-5 85 -14 350q-1 25 -2.5 76.5t-2.5 77.5h72q-7 -275 -16 -504h-37zM53 44q0 21 13 33.5t34 12.5t33 -12.5t12 -33.5q0 -19 -12 -31.5t-33 -12.5t-34 12.5t-13 31.5z" />
    <glyph glyph-name="numbersign" unicode="#" horiz-adv-x="630" 
d="M576 454l-8 -44l-117 2l-25 -137h121l-9 -45h-118l-32 -178l-50 1l31 175h-148l-32 -176l-43 1l26 176h-119l7 46l121 4l24 129l-122 1l8 44h119l31 176h48l-28 -178h143l33 176h48l-31 -173h122zM254 410l-24 -132h147l23 132h-146z" />
    <glyph glyph-name="dollar" unicode="$" horiz-adv-x="584" 
d="M97 187q35 -62 75 -96.5t99 -45.5l1 285q-43 14 -70 25.5t-59.5 32t-48.5 50t-16 68.5q0 72 53.5 122t140.5 57v93h51v-95q107 -18 184 -132l-41 -22q-25 32 -40.5 48t-42.5 32.5t-60 23.5v-266q36 -11 57.5 -18.5t53.5 -23.5t50 -33t32 -44t14 -59q0 -75 -57.5 -129
t-149.5 -59v-101h-52v101q-145 10 -218 163zM132 511q0 -34 24 -61t50 -40t66 -27v251q-63 -8 -101.5 -41t-38.5 -82zM323 45q63 12 107 50t44 85q0 49 -38.5 78t-112.5 55v-268z" />
    <glyph glyph-name="percent" unicode="%" horiz-adv-x="825" 
d="M209 662q67 0 98 -48.5t31 -118.5q0 -81 -35 -124.5t-94 -43.5q-58 0 -93.5 45.5t-35.5 121.5q0 75 36 121.5t93 46.5zM669 649l-448 -639h-41l449 639h40zM209 361q43 0 68.5 35.5t25.5 97.5q0 61 -26 98t-69 37q-40 0 -67 -38.5t-27 -96.5q0 -59 27 -96t68 -37z
M622 334q64 -1 96 -49.5t32 -116.5q0 -80 -35.5 -124t-92.5 -44q-58 0 -94.5 45.5t-36.5 120.5q0 76 36.5 122t94.5 46zM622 34q42 0 67 36t25 96q0 61 -25.5 98t-68.5 37q-40 0 -66.5 -38t-26.5 -97q0 -58 27 -95t68 -37z" />
    <glyph glyph-name="ampersand" unicode="&#x26;" horiz-adv-x="674" 
d="M621 49l-8 -5q-22 -16 -39 -26q-41 34 -79 67q-96 -85 -227 -85q-91 0 -151 48t-64 126v8q1 91 107 183q-1 2 -14 19q-26 34 -36.5 56.5t-10.5 57.5q1 73 54.5 126.5t129.5 59.5q84 -2 135 -48.5t51 -128.5q0 -62 -38.5 -110.5t-118.5 -68.5q29 -26 87 -79
q13 -11 43.5 -39t43.5 -40q9 44 34 130l47 -14q-7 -60 -38 -153zM285 628q-53 -2 -92 -38.5t-39 -87.5q0 -55 40.5 -94.5t96.5 -39.5q49 3 84 45t35 96v6q-1 53 -35 83t-90 30zM109 195q0 -65 45.5 -103t112.5 -38q94 0 184 72q-66 62 -165 150l-65 59q-63 -42 -87.5 -72.5
t-24.5 -67.5z" />
    <glyph glyph-name="parenleft" unicode="(" horiz-adv-x="261" 
d="M208 778q-58 -145 -81 -239.5t-23 -190.5q0 -219 103 -447h-48q-36 71 -70.5 205.5t-35.5 238.5q0 90 32 224.5t74 208.5h49z" />
    <glyph glyph-name="parenright" unicode=")" horiz-adv-x="261" 
d="M106 778q43 -77 75 -209.5t32 -225.5q0 -104 -35 -237.5t-72 -204.5h-48q103 228 103 447q0 96 -23 190.5t-81 239.5h49z" />
    <glyph glyph-name="asterisk" unicode="*" horiz-adv-x="359" 
d="M211 581q25 -38 53 -79l-36 -20q-15 22 -50 80l-37 -61q-6 -9 -11 -19q-4 3 -8 4.5t-8 3.5l-8 4l-12 7q15 29 49 78h-90v37h90l-49 78l34 20l50 -80l50 81l37 -21l-39 -57l-12 -18h91q0 -18 1 -38h-95z" />
    <glyph glyph-name="plus" unicode="+" horiz-adv-x="507" 
d="M279 130q-31 0 -47 -1v175h-179v46h175v175h49v-174h177v-46h-175v-175z" />
    <glyph glyph-name="comma" unicode="," horiz-adv-x="190" 
d="M107 107q20 6 30 8q-3 -10 -6.5 -23.5t-6.5 -22.5q-22 -91 -44 -156q-17 -8 -43 -16l-4 -1q23 142 40 202q23 5 34 9zM73 98l1 4q0 -3 -1 -4z" />
    <glyph glyph-name="hyphen" unicode="-" horiz-adv-x="448" 
d="M394 306h-341v43h341v-43z" />
    <glyph glyph-name="period" unicode="." 
d="M53 76q0 21 13 33t34 12q45 0 45 -45q0 -19 -12.5 -31.5t-32.5 -12.5q-21 0 -34 13t-13 31z" />
    <glyph glyph-name="slash" unicode="/" horiz-adv-x="532" 
d="M100 -103h-47l378 881h48z" />
    <glyph glyph-name="zero" unicode="0" horiz-adv-x="630" 
d="M316 684q68 0 120 -28.5t81.5 -77.5t44.5 -107t15 -123v-5q-4 -162 -75.5 -253t-185.5 -91q-118 0 -190.5 93t-72.5 248t72.5 249.5t190.5 94.5zM316 52q93 0 148 77.5t55 209.5q0 133 -56 213t-150 80q-89 0 -147.5 -83t-58.5 -209q0 -128 59 -208t150 -80z" />
    <glyph glyph-name="one" unicode="1" horiz-adv-x="259" 
d="M47 622q60 28 103 62h58v-684h-53v632l-106 -65z" />
    <glyph glyph-name="two" unicode="2" horiz-adv-x="533" 
d="M55 66q62 29 145.5 102.5t150.5 166.5t67 158q0 67 -41 103t-109 36q-61 0 -98 -23.5t-64 -77.5l-50 29q79 124 211 124q54 0 96.5 -18.5t65.5 -47t34.5 -55t14.5 -50.5v-14q0 -59 -40 -132.5t-94 -133t-104 -103.5t-76 -56l3 -14l310 1v-61h-424z" />
    <glyph glyph-name="three" unicode="3" horiz-adv-x="528" 
d="M356 353q119 -46 119 -162q0 -89 -62 -140t-170 -51q-64 0 -105.5 22.5t-81.5 80.5l52 29q31 -43 63 -64t83 -21q73 0 119 40.5t46 104.5t-52 99.5t-152 35.5h-57v52h43q26 0 45.5 1t44 5t41 12.5t32 21.5t23 34t7.5 49v2q0 57 -40 92t-108 35q-49 0 -80 -17.5t-60 -56.5
l-53 26q22 36 45 57.5t50.5 30.5t47.5 11t55 2q91 0 146 -50t55 -125q0 -44 -16.5 -79t-66.5 -68z" />
    <glyph glyph-name="four" unicode="4" horiz-adv-x="624" 
d="M450 684v-492h121v-55h-119v-137h-54v137h-345q105 156 173.5 271t151.5 276h72zM399 191v437q-127 -253 -252 -436z" />
    <glyph glyph-name="five" unicode="5" horiz-adv-x="551" 
d="M222 403q89 0 147.5 -17t94.5 -74q34 -53 34 -107q-2 -88 -63 -146.5t-161 -58.5q-79 0 -128 30t-93 101l45 27q34 -55 73.5 -80.5t101.5 -25.5q76 3 122.5 46t46.5 108v4q-1 34 -12.5 59t-33.5 40t-43.5 24.5t-55.5 13t-55.5 4.5t-55.5 1h-104q13 168 13 332h359v-46
h-309q0 -114 -10 -235h87z" />
    <glyph glyph-name="six" unicode="6" horiz-adv-x="567" 
d="M202 418q56 25 92 25q92 0 156 -65.5t64 -157.5q0 -96 -64 -158t-165 -62q-98 0 -164 58.5t-68 174.5q2 10 2 21q0 84 237 385q15 20 35 45h58q-21 -34 -106 -156q-12 -16 -33 -46l-28 -40zM285 52q76 0 124 47t48 122q0 74 -48 121t-124 47t-125 -47t-49 -121
q0 -75 48.5 -122t125.5 -47z" />
    <glyph glyph-name="seven" unicode="7" horiz-adv-x="541" 
d="M53 679q64 1 185 1h35q144 0 215 -1q-163 -398 -279 -676h-62q17 40 162 383q17 39 51.5 122t51.5 121h-359v50z" />
    <glyph glyph-name="eight" unicode="8" horiz-adv-x="563" 
d="M396 353q114 -49 114 -158q0 -93 -61.5 -146.5t-162.5 -53.5q-102 0 -167.5 54t-65.5 136q0 104 114 168q-55 46 -72.5 83.5t-17.5 81.5q0 75 59.5 126t146.5 51t145.5 -50.5t58.5 -126.5q0 -44 -15.5 -80.5t-65.5 -76.5zM280 641q-68 0 -107.5 -34t-39.5 -92
q0 -61 42 -99t108 -38t107.5 37t41.5 96t-41.5 94.5t-110.5 35.5zM282 45q76 0 125 40t49 104q0 62 -47 100t-128 38q-80 0 -126.5 -37.5t-46.5 -98.5q0 -65 49 -105.5t125 -40.5z" />
    <glyph glyph-name="nine" unicode="9" horiz-adv-x="567" 
d="M351 247l-9 10q-32 -16 -69 -16q-92 0 -156 65.5t-64 157.5q0 96 64.5 158t164.5 62q97 0 164 -58.5t68 -174.5q-2 -11 -2 -21q0 -28 -22 -74.5t-64.5 -108t-70.5 -98.5t-72 -94q-36 -46 -42 -55h-59q27 44 102 150q9 13 31.5 44.5t33.5 48.5zM282 632q-75 0 -123 -47
t-48 -122q0 -73 48 -120t123 -47q77 0 126 47t49 120q0 75 -48.5 122t-126.5 47z" />
    <glyph glyph-name="colon" unicode=":" 
d="M53 481q0 19 13 31.5t34 12.5t33 -12.5t12 -31.5q0 -20 -12 -32t-33 -12t-34 12t-13 32zM53 76q0 21 13 33t34 12q45 0 45 -45q0 -19 -12.5 -31.5t-32.5 -12.5q-21 0 -34 13t-13 31z" />
    <glyph glyph-name="semicolon" unicode=";" horiz-adv-x="216" 
d="M70 480q0 19 13 32t34 13q19 0 32.5 -13t13.5 -32q0 -20 -13 -32t-33 -12q-21 0 -34 12t-13 32zM154 106q-40 -149 -55 -197l-46 -11l38 208h63z" />
    <glyph glyph-name="less" unicode="&#x3c;" horiz-adv-x="494" 
d="M441 452l-337 -130l337 -135v-60l-388 166v59l388 161v-61z" />
    <glyph glyph-name="greater" unicode="&#x3e;" horiz-adv-x="494" 
d="M53 127v60l336 135l-336 130v61l388 -161v-59z" />
    <glyph glyph-name="question" unicode="?" horiz-adv-x="516" 
d="M256 684q88 0 147 -50t59 -124q0 -34 -15.5 -66.5t-28.5 -47t-42 -43.5q-60 -60 -120 -166l-33 2h-10q2 10 2 11q10 54 27.5 81t64.5 72q32 31 48 49t32.5 49t16.5 60q0 54 -42 87t-115 33q-48 0 -81 -20t-70 -75q-24 16 -43 24q41 68 84 96t119 28zM194 44q0 19 13 31.5
t33 12.5q21 0 34.5 -12.5t13.5 -31.5q0 -20 -13.5 -32t-34.5 -12q-20 0 -33 12t-13 32z" />
    <glyph glyph-name="at" unicode="@" horiz-adv-x="800" 
d="M409 691q145 0 241.5 -95t96.5 -247q0 -85 -37 -136t-106 -51q-33 0 -49.5 11t-37.5 37l-19 25q-29 -21 -53.5 -31t-36.5 -11.5t-32 -1.5q-59 0 -103.5 50t-44.5 114q0 63 45.5 111.5t103.5 48.5q67 0 135 -54v45h46v-40q0 -52 -1 -77q-2 -22 -2 -65q0 -134 67 -134
q44 0 75 51t31 122q0 125 -94.5 214.5t-228.5 89.5q-136 0 -229.5 -93t-93.5 -229q0 -138 96 -229.5t241 -91.5q27 0 83 6q9 0 25 2q69 3 71 3h3q-69 -39 -157 -39q-171 0 -281 98t-110 250q0 148 102.5 247.5t253.5 99.5zM392 227q53 0 90 36.5t37 88.5q0 54 -37 90.5
t-91 36.5q-52 0 -87.5 -36.5t-35.5 -89.5t35.5 -89.5t88.5 -36.5z" />
    <glyph glyph-name="A" unicode="A" horiz-adv-x="602" 
d="M33 0h-63l255 672h67q41 -100 168 -437l89 -235h-57l-84 221h-298zM388 275l-128 338q-22 -61 -51 -136l-77 -202h256z" />
    <glyph glyph-name="B" unicode="B" horiz-adv-x="584" 
d="M433 334q30 -23 48 -40.5t34 -47.5t16 -63q0 -108 -70 -159q-49 -24 -100 -24h-308v672h198q5 0 15.5 0.5t16.5 0.5h34q100 0 131 -23q82 -56 82 -152q0 -47 -17 -85t-70 -73zM474 495q0 50 -30.5 88t-86.5 38l-252 1v-265h154q25 0 39 0.5t37 2t37 5t32 10t29 17
t21.5 24.5t15 34t4.5 45zM105 307v-258l153 -3h31q5 0 15.5 -0.5t15.5 -0.5q76 0 113 28t37 99q0 53 -31.5 91t-93.5 44h-240z" />
    <glyph glyph-name="C" unicode="C" horiz-adv-x="749" 
d="M395 48q129 0 259 130q14 -6 42 -22q-39 -72 -118 -114t-175 -42q-149 0 -249.5 96.5t-100.5 237.5q0 144 104 241t259 97q86 0 153.5 -36t126.5 -115q-1 -1 -25 -16q-6 -3 -18 -11q-62 72 -114.5 100.5t-122.5 28.5q-134 0 -221 -81t-87 -203t84 -206.5t203 -84.5z" />
    <glyph glyph-name="D" unicode="D" horiz-adv-x="683" 
d="M277 672q87 0 156.5 -29.5t111 -78.5t63.5 -108.5t22 -123.5q0 -85 -27.5 -148.5t-75.5 -100.5t-100 -56.5t-113 -26.5h-261q1 48 1 136v143q-1 49 -1 149q0 174 2 244h222zM108 49l138 -3q145 0 238 76.5t93 200.5q0 109 -72 196.5t-179 94.5q-28 3 -218 4v-569z" />
    <glyph glyph-name="E" unicode="E" horiz-adv-x="532" 
d="M53 672h426v-46h-372v-257h372v-50l-371 -1v-273h371v-45h-426v672z" />
    <glyph glyph-name="F" unicode="F" horiz-adv-x="532" 
d="M479 672v-46h-372v-257h372v-50l-371 -1v-318h-55v672h426z" />
    <glyph glyph-name="G" unicode="G" horiz-adv-x="789" 
d="M393 363q57 0 131.5 -0.5t99.5 -0.5q76 0 112 -1v-1q0 -154 -99 -255.5t-252 -104.5q-136 3 -234 101.5t-98 235.5q0 143 100.5 239t251.5 96q116 0 204 -61q39 -27 87 -90q-19 -12 -43 -25q-66 73 -117 100t-118 27q-136 0 -223 -81.5t-87 -206.5q0 -119 81 -201.5
t198 -82.5q127 0 214 89q72 74 81 177h-154q-45 -1 -135 -1v47z" />
    <glyph glyph-name="H" unicode="H" horiz-adv-x="597" 
d="M103 0h-50v672h50v-304h392v304h49v-672h-48v319h-393v-319z" />
    <glyph glyph-name="I" unicode="I" horiz-adv-x="157" 
d="M104 0h-52v672h52v-672z" />
    <glyph glyph-name="J" unicode="J" horiz-adv-x="523" 
d="M468 377v-67q1 -19 1 -56q0 -81 -14 -130.5t-58 -79.5q-62 -44 -154 -44q-64 0 -104.5 19t-85.5 76l39 35q39 -48 69 -64t90 -16q84 0 122.5 48t38.5 164v136q0 145 -2 274h58v-295z" />
    <glyph glyph-name="K" unicode="K" horiz-adv-x="555" 
d="M173 348q60 -61 162 -171q98 -107 167 -177q-50 0 -72 -1q-127 139 -324 330v-329h-53v672h52v-149q0 -126 1 -177q71 80 234 241l87 85h70z" />
    <glyph glyph-name="L" unicode="L" horiz-adv-x="512" 
d="M457 44q0 -6 0.5 -12t0.5 -11v-21h-405v672h52v-628h352z" />
    <glyph glyph-name="M" unicode="M" horiz-adv-x="719" 
d="M615 120v135q0 228 -2 342q-67 -99 -169 -270q-12 -20 -41 -67.5t-45 -73.5l-60 100q-136 225 -192 310q-1 -59 -1 -258v-96v-127v-116h-52q0 150 1 228v227q0 146 -1 218h71q92 -144 233 -382q24 37 71 113t56 91q63 105 110 178h72v-672h-51v120z" />
    <glyph glyph-name="N" unicode="N" horiz-adv-x="602" 
d="M549 672q-1 -168 -1 -672h-45q-42 58 -178 258q-138 205 -221 316v-574h-49q-1 113 -1 336q0 225 -1 336h47q239 -344 393 -579v579h56z" />
    <glyph glyph-name="O" unicode="O" horiz-adv-x="803" 
d="M403 672q145 0 246 -96t101 -237q0 -139 -101 -239t-245 -100q-146 0 -248.5 100t-102.5 239t102 236t248 97zM401 46q121 0 207.5 88t86.5 208q0 119 -84 200t-208 81q-125 0 -210.5 -81.5t-85.5 -200.5t86.5 -207t207.5 -88z" />
    <glyph glyph-name="P" unicode="P" horiz-adv-x="575" 
d="M53 0v672l289 2q83 -1 131.5 -60t48.5 -145q0 -85 -48.5 -146t-133.5 -64l-238 -2l2 -257h-51zM250 312h21q3 0 10.5 -0.5t11.5 -0.5q32 0 54.5 2.5t47 11.5t39 25.5t24.5 46.5t10 72q0 70 -34.5 111.5t-91.5 41.5h-237v-310h145z" />
    <glyph glyph-name="Q" unicode="Q" horiz-adv-x="807" 
d="M407 672q144 0 245 -100t101 -244q0 -60 -22 -112t-80 -131q25 -23 69 -70l-39 -39l-74 76q-73 -33 -116 -45.5t-86 -12.5q-149 0 -250.5 94.5t-101.5 237.5q0 144 103.5 245t250.5 101zM609 127q92 89 92 196q0 127 -86.5 213.5t-209.5 86.5t-210.5 -86.5t-87.5 -207.5
q0 -119 85 -201t204 -82q81 0 170 47q-59 65 -152 158q11 11 41 38z" />
    <glyph glyph-name="R" unicode="R" horiz-adv-x="586" 
d="M473 0l-126 258h-245l2 -258h-51v672h289q85 0 132.5 -57.5t47.5 -145.5q0 -68 -31 -122.5t-90 -78.5l131 -268h-59zM468 469q0 72 -34.5 115t-91.5 43h-237v-315h168q4 0 12 -0.5t11 -0.5q40 0 66.5 4.5t53 19.5t39.5 48.5t13 85.5z" />
    <glyph glyph-name="S" unicode="S" horiz-adv-x="575" 
d="M131 507q0 -56 60 -92q32 -20 118 -47q38 -12 59 -19.5t54.5 -24t51.5 -34t32.5 -46t14.5 -62.5q0 -77 -60 -129.5t-155 -52.5h-26q-151 0 -227 160l43 22q38 -68 83.5 -104.5t114.5 -36.5q67 0 120 40t53 92q0 24 -11 44.5t-24.5 33t-43 27t-47 21t-55.5 20.5
q-82 27 -121 49q-88 48 -88 132q0 75 58 123.5t148 48.5q69 0 120 -29t96 -98l-40 -23q-24 29 -36.5 42.5t-34.5 30.5t-46.5 24t-55.5 7q-68 0 -111.5 -34t-43.5 -85z" />
    <glyph glyph-name="T" unicode="T" horiz-adv-x="583" 
d="M53 627v45h475l2 -44h-213l2 -628h-52v627h-214z" />
    <glyph glyph-name="U" unicode="U" horiz-adv-x="605" 
d="M550 672v-51q0 -19 0.5 -60t0.5 -62q0 -22 0.5 -69.5t0.5 -73.5q0 -80 -1 -107q-8 -110 -78.5 -179.5t-171.5 -69.5q-95 0 -166 57.5t-79 150.5q-3 24 -3 107q0 129 1 193q1 44 1 131v33h51l-1 -290q-1 -7 -1 -22v-49q0 -43 3 -75.5t14.5 -69t32 -59.5t57 -38.5
t87.5 -15.5q196 0 199 214v405h53z" />
    <glyph glyph-name="V" unicode="V" horiz-adv-x="664" 
d="M332 63q119 315 196 541l24 68h58q-148 -437 -251 -672h-57q-128 334 -249 672h54q55 -125 151 -401q44 -126 67 -188z" />
    <glyph glyph-name="W" unicode="W" horiz-adv-x="1015" 
d="M729 65q94 297 147 509q21 80 28 98h58q-16 -56 -60 -207q-7 -24 -58 -199t-78 -266h-67q-43 113 -133 409l-58 190q-118 -372 -187 -599h-65l-53 157q-62 206 -150 515h58q22 -67 69 -237q65 -234 108 -370q50 154 89 289q74 243 100 318h63q39 -105 113 -355
q44 -154 68 -228z" />
    <glyph glyph-name="X" unicode="X" horiz-adv-x="611" 
d="M337 353q39 -60 175 -279q9 -14 24 -39l21 -35h-60l-14 22q-81 129 -178 271q-67 -101 -116 -181q-12 -18 -27.5 -43t-26.5 -41.5t-18 -27.5h-64l217 356l-35 61q-31 53 -80 124q-64 96 -85 131h59q17 -25 55 -85q54 -87 121 -185l185 270h54q-38 -61 -107 -165
q-73 -113 -97 -150z" />
    <glyph glyph-name="Y" unicode="Y" horiz-adv-x="642" 
d="M112 672l210 -338l210 338h57l-242 -391v-281h-53v280l-241 392h59z" />
    <glyph glyph-name="Z" unicode="Z" horiz-adv-x="545" 
d="M53 672h439l-337 -626h335v-46h-431l347 625h-353v47z" />
    <glyph glyph-name="bracketleft" unicode="[" horiz-adv-x="283" 
d="M230 772v-45h-126v-782h126v-40h-177v867h177z" />
    <glyph glyph-name="bracketright" unicode="]" horiz-adv-x="283" 
d="M230 -95h-177v40h127v782h-127v45h177v-867z" />
    <glyph glyph-name="asciicircum" unicode="^" horiz-adv-x="505" 
d="M404 395l-156 248l-147 -248h-48l173 288h45l181 -288h-48z" />
    <glyph glyph-name="underscore" unicode="_" horiz-adv-x="529" 
d="M53 -132v41h422v-41h-422z" />
    <glyph glyph-name="a" unicode="a" horiz-adv-x="620" 
d="M517 487h48l2 -487h-50v95q-42 -46 -89 -70t-74 -27.5t-68 -3.5q-92 0 -162.5 77.5t-70.5 177.5q0 101 71 176.5t166 75.5q57 0 109.5 -19.5t117.5 -81.5v87zM310 41q87 0 147 60.5t60 146.5t-60.5 146.5t-146.5 60.5q-85 0 -144.5 -61.5t-59.5 -150.5q0 -85 59 -143.5
t145 -58.5z" />
    <glyph glyph-name="b" unicode="b" horiz-adv-x="616" 
d="M302 499q111 0 186 -72.5t75 -177.5q0 -104 -72 -180.5t-172 -76.5q-124 0 -221 112v-104h-45v684h45v-301q36 58 92.5 87t111.5 29zM305 41q86 0 146.5 60.5t60.5 145.5q0 83 -62 143.5t-145 60.5q-84 0 -143.5 -61t-59.5 -145q0 -85 59 -144.5t144 -59.5z" />
    <glyph glyph-name="c" unicode="c" horiz-adv-x="578" 
d="M524 112q-80 -118 -213 -118q-109 0 -183.5 73t-74.5 181q0 109 70 181t184 72q68 0 120.5 -26.5t95.5 -91.5l-38 -24q-42 48 -81.5 70.5t-94.5 22.5q-89 0 -146 -57t-57 -146q0 -85 58 -145t138 -60q53 0 96.5 18t86.5 74z" />
    <glyph glyph-name="d" unicode="d" horiz-adv-x="616" 
d="M313 501q56 0 113 -29t92 -87v299h45v-684h-45v105q-95 -111 -219 -111q-100 0 -173 76t-73 180q0 105 75 178t185 73zM311 42q85 0 144.5 60t59.5 145q0 84 -60 144.5t-144 60.5q-83 0 -144 -60.5t-61 -143.5q0 -85 60 -145.5t145 -60.5z" />
    <glyph glyph-name="e" unicode="e" horiz-adv-x="605" 
d="M550 222h-446q35 -180 203 -180q58 0 99 18.5t79 60.5l38 -22q-31 -50 -87 -77.5t-123 -27.5q-112 0 -186 72t-74 181q0 107 73 180.5t180 73.5q106 0 174.5 -76t70.5 -194zM307 450q-159 0 -201 -178h389q-28 178 -188 178z" />
    <glyph glyph-name="f" unicode="f" horiz-adv-x="381" 
d="M53 455v46h83v28q0 79 25.5 116t99.5 38l45 -1v-47h-38q-53 0 -69 -27t-16 -82v-25h144v-46h-142v-455h-49v455h-83z" />
    <glyph glyph-name="g" unicode="g" horiz-adv-x="619" 
d="M564 487v-451q-7 -124 -71.5 -183t-190.5 -59q-63 0 -112.5 25t-97.5 84l44 27q34 -41 70 -62t58.5 -24t60.5 -3q95 0 146 59q20 22 29.5 53.5t11 51.5t2.5 59v45q-47 -71 -96 -93t-108 -22q-109 0 -183 71t-74 174v23q0 94 73 167t169 73q57 0 110.5 -22.5t110.5 -89.5
q-2 38 -2 97h50zM309 44q85 0 144.5 58t59.5 143t-60.5 145.5t-145.5 60.5q-84 0 -143.5 -59t-59.5 -144t59 -144.5t146 -59.5z" />
    <glyph glyph-name="h" unicode="h" horiz-adv-x="514" 
d="M273 502q84 0 136 -45q52 -52 52 -201v-35q-1 -11 -1 -33q0 -49 -1 -78q0 -16 -0.5 -53t-0.5 -57h-45l1 183v30q1 13 1 41q0 33 -2.5 58.5t-11.5 53t-24.5 45.5t-42.5 29.5t-65 11.5q-45 0 -77.5 -16t-50 -39t-27.5 -59t-12.5 -67t-2.5 -72v-38v-33v-128h-46v684h46v-121
q0 -9 0.5 -25t0.5 -23v-36q0 -6 -1 -31t-1 -30q36 48 76 66t99 18z" />
    <glyph glyph-name="i" unicode="i" horiz-adv-x="188" 
d="M53 644q0 18 11 29t29 11q19 0 30.5 -11t11.5 -29q0 -17 -11.5 -28t-30.5 -11q-18 0 -29 11t-11 28zM115 487v-487h-45v487h45z" />
    <glyph glyph-name="j" unicode="j" horiz-adv-x="272" 
d="M136 644q0 18 11.5 29t29.5 11q19 0 30 -11t11 -29q0 -17 -11 -28t-30 -11q-17 0 -29 11t-12 28zM198 -23q0 -129 -36 -159q-23 -22 -89 -22h-20v48h5q5 -1 16 -1q22 0 37 6.5t23 15t12.5 25.5t5.5 29.5t1 36.5v22q1 15 1 49q0 35 -1 53v61v346h46z" />
    <glyph glyph-name="k" unicode="k" horiz-adv-x="483" 
d="M53 684h45v-438l-1 1v-247h-44v684zM429 0h-58l-273 246l261 255h56l-259 -251z" />
    <glyph glyph-name="l" unicode="l" horiz-adv-x="150" 
d="M98 684v-684h-44l-2 684h46z" />
    <glyph glyph-name="m" unicode="m" horiz-adv-x="810" 
d="M571 501q48 0 90.5 -17.5t65.5 -52.5q30 -47 30 -182v-71l-2 -178h-48v282q0 168 -134 170q-132 -3 -142 -180q0 -3 -0.5 -9.5t-1.5 -8.5v-254h-52l2 257q0 105 -33 150t-98 45q-39 0 -67 -15t-43 -37t-24 -57.5t-11 -66t-2 -73.5v-40v-38v-125h-48l2 501h46v-80
q18 29 35.5 46t38 24t33.5 8.5t39 1.5q44 0 81.5 -18.5t75.5 -73.5q31 53 70 72.5t97 19.5z" />
    <glyph glyph-name="n" unicode="n" horiz-adv-x="516" 
d="M269 501q72 0 124 -41t65 -108q5 -32 5 -97v-255h-48v210v33q0 48 -6 83.5t-20.5 66t-43.5 46.5t-72 16q-46 0 -79 -11.5t-51 -29t-28.5 -44t-13.5 -49t-3 -52.5q0 -6 0.5 -16.5t0.5 -15.5v-26v-211h-46l2 501h46l-2 -79q32 48 71 63.5t99 15.5z" />
    <glyph glyph-name="o" unicode="o" horiz-adv-x="620" 
d="M313 501q106 0 180 -72t74 -176q0 -105 -73.5 -179t-182.5 -74q-107 0 -182.5 74.5t-75.5 177.5t76.5 176t183.5 73zM311 46q86 0 146 61.5t60 145.5q0 82 -61 142t-146 60q-84 0 -144 -60t-60 -143q0 -84 60 -145t145 -61z" />
    <glyph glyph-name="p" unicode="p" horiz-adv-x="615" 
d="M302 0q-55 0 -111.5 29t-92.5 87v-321h-45v692h45v-89q92 104 209 104q100 0 177.5 -76.5t77.5 -177.5q0 -104 -74.5 -176t-185.5 -72zM304 455q-85 0 -145 -60t-60 -145q0 -83 60.5 -143t144.5 -60q83 0 144.5 60.5t61.5 142.5q0 83 -60.5 144t-145.5 61z" />
    <glyph glyph-name="q" unicode="q" horiz-adv-x="615" 
d="M313 -6q-111 0 -185.5 72.5t-74.5 177.5t72.5 181t173.5 76q122 0 218 -112v98h45v-692h-45v315q-36 -58 -92.5 -87t-111.5 -29zM310 451q-84 0 -144 -60t-60 -144q0 -85 60 -145.5t145 -60.5q84 0 144 61t60 146t-60 144t-145 59z" />
    <glyph glyph-name="r" unicode="r" horiz-adv-x="340" 
d="M98 419q39 49 84 65t105 17v-51q-8 1 -25 1q-64 0 -111.5 -29t-47.5 -87q0 -5 -0.5 -22t-0.5 -28v-112v-173h-49v487h45v-68z" />
    <glyph glyph-name="s" unicode="s" horiz-adv-x="466" 
d="M122 366q0 -17 8 -31t18 -23t31 -17.5t34 -12.5t41 -12q30 -8 46.5 -13t41.5 -16t38 -23.5t23 -32.5t10 -45q0 -62 -48.5 -101t-132.5 -39q-56 0 -97 22t-82 78l41 27q31 -44 59.5 -60.5t81.5 -16.5q60 0 93.5 23t33.5 62q0 21 -10 36.5t-32 27t-39.5 17.5t-51.5 15
q-38 10 -59 17t-48.5 22t-40.5 37t-13 52q0 63 45.5 102.5t123.5 39.5q46 0 81 -18.5t82 -69.5l-40 -27q-33 37 -57 51.5t-67 14.5q-51 0 -82.5 -23.5t-31.5 -62.5z" />
    <glyph glyph-name="t" unicode="t" horiz-adv-x="407" 
d="M211 174q0 -67 19 -97.5t70 -30.5q20 0 54 8v-46q-2 0 -7 -1q-40 -7 -61 -7q-39 0 -65.5 13t-39.5 38t-18 53.5t-5 67.5v280h-105v49h105v130h53v-130h143v-49h-143v-278z" />
    <glyph glyph-name="u" unicode="u" horiz-adv-x="516" 
d="M247 -6q-74 0 -127 40.5t-63 110.5q-4 30 -4 96v260h46v-214q0 -31 0.5 -48.5t3 -47t8 -47.5t16 -40t25.5 -34t38.5 -20.5t53.5 -8.5q56 0 93 16t53.5 46.5t22 58t5.5 65.5v33q-1 9 -1 25v216h46l-1 -501h-47l3 83q-65 -89 -171 -89z" />
    <glyph glyph-name="v" unicode="v" horiz-adv-x="571" 
d="M283 47l184 454h51l-202 -501h-65l-198 501h55z" />
    <glyph glyph-name="w" unicode="w" horiz-adv-x="796" 
d="M204 0l-151 501h55l124 -441l144 441h50l139 -440l128 440h50l-153 -501h-53l-139 416l-135 -416h-59z" />
    <glyph glyph-name="x" unicode="x" horiz-adv-x="535" 
d="M482 501l-186 -253l186 -248h-53l-161 210l-161 -210h-54l188 248l-188 253h52l163 -220l162 220h52z" />
    <glyph glyph-name="y" unicode="y" horiz-adv-x="571" 
d="M376 108l-12 -31q-33 -91 -57 -139.5t-65 -91.5q-46 -48 -118 -51v45q60 13 99.5 54.5t39.5 94.5q0 28 -31 93q-17 33 -37 81l-142 338h51l194 -447q34 82 111 295q34 96 56 152h53z" />
    <glyph glyph-name="z" unicode="z" horiz-adv-x="476" 
d="M70 501h347l-274 -455h280v-46h-370l281 452h-264v49z" />
    <glyph glyph-name="braceleft" unicode="{" horiz-adv-x="374" 
d="M209 229q0 -35 -2 -91q-2 -44 -2 -62q0 -63 17.5 -90t78.5 -41l20 -6l-1 -39h-31q-78 0 -105 49.5t-27 139.5q0 8 0.5 25t0.5 26q2 34 2 50q0 56 -18 85t-70 45q-8 1 -17 5q0 5 -0.5 11.5t-0.5 9.5q0 4 -0.5 10t-0.5 9q13 4 29 9t17 5q44 13 51.5 21t7.5 42
q0 13 -0.5 38.5t-0.5 37.5q-1 24 -1 67q0 80 16.5 128.5t62.5 65.5q21 7 68 9q10 0 15 1q0 -25 2 -41q-5 -2 -19 -5q-61 -12 -78 -37t-17 -88v-19q0 -10 0.5 -29.5t0.5 -28.5q1 -17 1 -47q0 -58 -11.5 -82.5t-53.5 -66.5q48 -51 57 -67t9 -49z" />
    <glyph glyph-name="bar" unicode="|" horiz-adv-x="197" 
d="M124 668v-667h-50v667h50z" />
    <glyph glyph-name="braceright" unicode="}" horiz-adv-x="374" 
d="M166 229q0 33 9 49t57 67q-42 42 -53 66t-11 83v47q1 18 1 58v19q0 63 -16.5 88t-77.5 37l-20 5q2 20 2 41q8 -1 16 -1q47 -2 68 -9q45 -17 61.5 -65.5t16.5 -127.5q0 -44 -1 -67q-1 -25 -1 -77q0 -33 8 -41.5t50 -20.5q5 -1 20.5 -6.5t26.5 -8.5q0 -11 -1 -19v-21
q-4 -2 -17 -5q-54 -16 -71 -46.5t-17 -88.5q0 -32 1 -48q0 -8 0.5 -24.5t0.5 -23.5q0 -90 -27 -139.5t-105 -49.5h-30l-1 39q4 1 6.5 2t6 2t7.5 2q60 14 77.5 39.5t17.5 87.5q0 17 -2 63q-2 58 -2 94z" />
    <glyph glyph-name="yen" unicode="&#xa5;" horiz-adv-x="587" 
d="M524 266v-21h-207v-109h207v-19h-207v-106h-49v106h-207v19h207v109h-207v21h207v49l-247 369h47l223 -337l227 337h48l-249 -367v-51h207z" />
    <glyph glyph-name="copyright" unicode="&#xa9;" horiz-adv-x="795" 
d="M742 341q0 -91 -40.5 -170t-119.5 -129t-179 -50q-139 0 -244.5 105t-105.5 244q0 136 105.5 242t244.5 106q150 0 244.5 -103.5t94.5 -244.5zM713 341q0 127 -86 223t-223 96q-125 0 -222 -97t-97 -222t97 -220t222 -99h4q133 3 219 98t86 221zM405 171q-66 0 -115 51.5
t-49 118.5t49.5 117.5t114.5 50.5q70 0 129 -52l-31 -34q-45 42 -94 42q-48 0 -83.5 -37t-35.5 -87q0 -52 34.5 -88.5t84.5 -36.5q47 0 94 42l31 -34q-59 -53 -129 -53z" />
    <glyph glyph-name="guillemotleft" unicode="&#xab;" horiz-adv-x="432" 
d="M106 338l110 -172h-57l-106 172l106 168h55zM270 337l109 -171h-56l-106 171l106 169h55z" />
    <glyph glyph-name="registered" unicode="&#xae;" horiz-adv-x="788" 
d="M734 333q0 -134 -104 -237.5t-236 -103.5q-134 0 -237.5 103.5t-103.5 237.5q0 132 103.5 236t237.5 104q132 0 236 -104t104 -236zM704 333q0 121 -94.5 215.5t-215.5 94.5t-215.5 -94.5t-94.5 -215.5q0 -122 94 -216t216 -94t216 94t94 216zM525 173h-44l-78 124h-80
v-124h-37v316h114q48 0 79 -24t31 -71q0 -69 -70 -94zM323 457v-129h75q75 0 75 66q0 63 -75 63h-75z" />
    <glyph glyph-name="guillemotright" unicode="&#xbb;" horiz-adv-x="432" 
d="M53 166l109 171l-107 169h55l106 -169l-106 -171h-57zM217 166l109 172l-108 168h56l106 -168l-106 -172h-57z" />
    <glyph glyph-name="divide" unicode="&#xf7;" horiz-adv-x="455" 
d="M184 467q0 20 12.5 32.5t33.5 12.5t33 -12.5t12 -32.5q0 -19 -12 -31.5t-33 -12.5t-33.5 12.5t-12.5 31.5zM402 306h-349v43h349v-43zM184 187q0 19 12.5 32t33.5 13q20 0 32.5 -13t12.5 -32q0 -20 -12 -32t-33 -12t-33.5 12t-12.5 32z" />
    <glyph glyph-name="tilde" unicode="&#x2dc;" horiz-adv-x="518" 
d="M440 606q0 -63 -26.5 -98.5t-69.5 -35.5q-44 0 -70 26l-33 33q-35 35 -60 35q-28 0 -44 -25t-18 -64h-35v4q0 63 26 98t70 35q20 0 37 -7.5t26.5 -16.5t26.5 -27q21 -23 36.5 -33.5t36.5 -10.5q27 0 42.5 24.5t17.5 63.5h37v-1z" />
    <glyph glyph-name="endash" unicode="&#x2013;" horiz-adv-x="587" 
d="M534 172h-481v42h481v-42z" />
    <glyph glyph-name="quoteleft" unicode="&#x2018;" horiz-adv-x="206" 
d="M111 748q28 13 42 17q-6 -43 -26 -151q-5 -26 -10 -58h-64q4 14 16 59q21 87 42 133zM111 748q0 2 1 3z" />
    <glyph glyph-name="quoteright" unicode="&#x2019;" horiz-adv-x="210" 
d="M98 572v1h-3q-11 -5 -37 -15q7 45 26 152q5 21 10 58q7 -1 18 -1q31 0 46 1q-4 -13 -8.5 -31.5t-6.5 -25.5q-25 -97 -44 -137h1z" />
    <glyph glyph-name="quotesinglbase" unicode="&#x201a;" horiz-adv-x="205" 
d="M89 106q0 4 1 6zM89 106q29 0 63 -2q-7 -22 -14 -53q-22 -92 -41 -135q-17 -10 -41 -20l-3 -1q4 39 30 181z" />
    <glyph glyph-name="quotedblleft" unicode="&#x201c;" horiz-adv-x="345" 
d="M253 751q23 10 41 17q-4 -33 -26 -158l-9 -52q-11 2 -33 2q-21 0 -31 -1q5 18 13 50q28 106 46 145zM73 608q23 94 45 140q23 10 41 17q-13 -100 -35 -209h-19h-15h-30q4 13 13 52zM118 748q0 2 1 3z" />
    <glyph glyph-name="quotedblright" unicode="&#x201d;" horiz-adv-x="346" 
d="M271 769q21 0 30 1q-9 -36 -13 -50q-23 -96 -44 -143q-28 -12 -42 -16q9 63 27 158l9 51q11 -1 33 -1zM120 767h15q21 0 30 1q-4 -13 -13 -52q-24 -96 -44 -142q-3 -1 -5.5 -2t-4.5 -1q-12 -6 -32 -12q3 20 27 163l9 46q7 -1 18 -1zM244 577l-1 -2q0 1 1 2z" />
    <glyph glyph-name="quotedblbase" unicode="&#x201e;" horiz-adv-x="358" 
d="M243 103q0 4 1 6zM95 75l6 31h63l-13 -52q-21 -88 -41 -139q-16 -9 -45 -20q7 52 30 180zM280 104h25q-6 -18 -12 -48q-22 -94 -42 -136q-10 -9 -38 -22l-6 -3q4 50 27 165l9 43q12 1 37 1zM53 -110q5 2 11 4l1 1q0 -2 -0.5 -6.5t-0.5 -6.5z" />
    <glyph glyph-name="ellipsis" unicode="&#x2026;" horiz-adv-x="662" 
d="M284 76q0 21 12.5 33t33.5 12q22 0 35 -12t13 -33q0 -18 -13.5 -31t-34.5 -13q-20 0 -33 13t-13 31zM517 76q0 21 12 33t33 12t33.5 -12t12.5 -33q0 -18 -13 -31t-33 -13t-32.5 13t-12.5 31zM53 74q0 21 13 33.5t34 12.5t33 -12.5t12 -33.5q0 -19 -12 -31.5t-33 -12.5
t-34 12.5t-13 31.5z" />
    <glyph glyph-name="guilsinglleft" unicode="&#x2039;" horiz-adv-x="269" 
d="M108 338l108 -172h-57l-106 172l106 168h55z" />
    <glyph glyph-name="guilsinglright" unicode="&#x203a;" horiz-adv-x="269" 
d="M53 166l109 172l-107 168h55l106 -168l-106 -172h-57z" />
    <glyph glyph-name="Euro" unicode="&#x20ac;" horiz-adv-x="573" 
d="M448 641q-90 0 -164.5 -50.5t-116.5 -143.5h346l-15 -38l-339 4q-5 -37 -5 -64q0 -33 7 -67h349l-18 -34h-323q43 -91 116.5 -140.5t161.5 -49.5q46 0 91 12v-36q-48 -15 -103 -15q-106 0 -191.5 61.5t-121.5 167.5h-101l1 32l91 2q-5 43 -5 67q0 28 4 64h-88v34h96
q35 108 121.5 170.5t196.5 62.5q68 0 114 -17v-38q-48 16 -104 16z" />
    <glyph glyph-name="trademark" unicode="&#x2122;" horiz-adv-x="754" 
d="M312 800v-33h-116v-265h-35v265h-115v33h266zM576 558v44q0 97 -1 146q-28 -44 -56 -92l-47 -78q-15 24 -56 92q-32 52 -48 77v-96v-41v-54v-53h-31v101v97v96h37q21 -32 97 -159q39 62 51 83q3 5 20.5 33.5t26.5 42.5h37v-294h-30v55z" />
    <glyph glyph-name="fraction" horiz-adv-x="304" 
d="M-14 20h-47l378 880h48z" />
    <glyph glyph-name="exclamdown" 
d="M53 640q0 19 13 31.5t34 12.5t33 -12.5t12 -31.5q0 -21 -12 -33.5t-33 -12.5t-34 12.5t-13 33.5zM121 504q9 -231 16 -504h-72l5 154q8 235 14 350h37z" />
    <glyph glyph-name="questiondown" horiz-adv-x="516" 
d="M194 640q0 20 13 32t33 12q21 0 34.5 -12t13.5 -32q0 -19 -13.5 -31.5t-34.5 -12.5q-20 0 -33 12.5t-13 31.5zM256 0q-75 0 -120 29t-83 95q37 20 43 24q37 -55 70 -75t81 -20q73 0 115 33t42 87q0 29 -16.5 60t-32.5 49t-48 49q-47 45 -64.5 72t-27.5 81q-2 8 -2 11
q3 0 10 1q22 0 33 1q62 -108 120 -166q29 -29 42 -43.5t28.5 -47t15.5 -66.5q0 -74 -59 -124t-147 -50z" />
    <glyph glyph-name="CR" horiz-adv-x="297" 
 />
    <glyph glyph-name="cent" horiz-adv-x="578" 
d="M524 112q-72 -107 -196 -118v-82h-44v83q-100 13 -165.5 83.5t-65.5 169.5q0 101 62.5 171t166.5 81v96h46v-95q123 -13 195 -118l-38 -24q-36 42 -72 64.5t-85 28.5v-406q92 9 157 90zM106 249q0 -77 51.5 -135t126.5 -69l-2 406q-79 -12 -127.5 -67.5t-48.5 -134.5z
" />
    <glyph glyph-name="sterling" horiz-adv-x="548" 
d="M456 512q-5 59 -48.5 98.5t-105.5 39.5q-68 0 -112.5 -45t-44.5 -113v-150h224l-23 -37h-201v-267h340v128h42v-166h-506v27l75 12v266h-65v37h65v155q0 87 57.5 142t148.5 55q86 0 140.5 -50t56.5 -132h-43z" />
    <glyph glyph-name="greaterequal" horiz-adv-x="311" 
d="M-38 250v60l336 135l-336 130v60l388 -161v-59z" />
    <glyph glyph-name="lessequal" horiz-adv-x="311" 
d="M350 575l-337 -130l337 -135v-60l-388 165v59l388 161v-60z" />
    <glyph glyph-name="NULL" horiz-adv-x="297" 
 />
    <glyph glyph-name="_FSHallmark" horiz-adv-x="754" 
d="M701 603v-74h-630v74h630zM619 388q0 14 -16.5 27t-38.5 13q-20 0 -36 -9.5t-16 -21.5q0 -17 9 -26.5t39 -17.5l27 -6q27 -6 37.5 -9t28.5 -9.5t25.5 -13.5t14 -18.5t7.5 -27.5q1 -42 -36.5 -68t-98.5 -26q-68 0 -103.5 34t-35.5 79l73 -1q0 -8 4 -18t21 -21.5t44 -11.5
q24 0 39.5 8.5t15.5 19.5q0 22 -60 36q-56 14 -92 33q-38 20 -38 63q0 41 37.5 67t94.5 26q60 0 95 -30.5t35 -70.5h-76zM305 347v-70h-151v-102h-83v313h265v-71h-182v-70h151zM329 213q0 15 11 26t27 11q17 0 29.5 -11t12.5 -26q0 -16 -12 -26t-30 -10q-16 0 -27 10.5
t-11 25.5zM700 136v-75h-631v75h631z" />
    <glyph glyph-name="_Fontastica" horiz-adv-x="754" 
d="M513 260h-295v-147h-87q-1 1 -1 4v510h382v-78h-294v-210h295v-79zM569 402h-296v79h296v146h87v-513h-383v78h296v210zM569 63q-11 -7 -1 -19q3 -4 9 -4q7 0 14 4l4 -4q-6 -9 -18 -9q-8 0 -16 5q-6 6 -6.5 16t5.5 17q8 8 17 8q10 0 18 -8l-4 -6q-10 5 -12 5h-2
q-6 -2 -8 -5zM142 32h-11v44h32v-8h-21v-12h20v-7h-20v-17zM203 76q15 0 22 -12q7 -8 1.5 -20t-18.5 -13q-4 -2 -6 -2q-6 0 -9 3q-14 6 -14 19q0 11 7 18t17 7zM279 76h9v-44q-2 0 -3.5 -0.5t-2.5 -0.5q-3 0 -7 5q-7 10 -17 23v-27h-10v44q10 0 13 -6l9 -12l9 -12v30z
M321 68h-14v8h37v-8h-14v-36h-9v36zM444 55q9 -1 9 -10q2 -8 -8 -13q-2 -1 -8 -1q-14 0 -21 7l3 6l14 -4h6l2 1q1 0 1 1q0 4 -2 5q-1 2 -8 4l-2 1q-3 1 -4 1q-7 2 -7 10q-1 7 6 11q3 2 10 2q11 0 18 -4l-4 -8q-2 1 -5.5 2.5t-4.5 1.5h-6q-3 0 -3 -3q-2 -2 3 -6q6 -1 11 -4z
M482 68h-14v8h38v-8h-14v-36h-10v36zM535 32h-11v44h11v-44zM640 76q2 -4 8 -19.5t11 -24.5h-10l-4 9h-21l-4 -9h-10q10 20 18 44h12zM382 74q9 -17 18 -42h-10l-3 9h-20q-2 -7 -4 -9h-9q5 13 18 42h10zM216 54q0 14 -12 14q-1 0 -2.5 -0.5t-2.5 -0.5q-15 -7 -9 -18
q3 -10 13 -10q3 0 4 1q9 2 9 13v1zM369 49h15q-6 9 -7 16zM627 49h14q-2 2 -3.5 8t-3.5 8z" />
    </font>
</defs>
</svg>
