<?xml version="1.0" standalone="no"?>
<!DOCTYPE svg PUBLIC "-//W3C//DTD SVG 1.1//EN" "http://www.w3.org/Graphics/SVG/1.1/DTD/svg11.dtd" >
<svg xmlns="http://www.w3.org/2000/svg" xmlns:xlink="http://www.w3.org/1999/xlink" version="1.1">
<metadata>
Created by FontForge 20170731 at Wed Aug  8 20:25:04 2018
 By Aleksey,,,
Copyright (c) 2018 by Fontastica. All rights reserved.
</metadata>
<defs>
<font id="VisiaPro-SemiBold" horiz-adv-x="217" >
  <font-face 
    font-family="Visia Pro SemiBold"
    font-weight="600"
    font-stretch="normal"
    units-per-em="1000"
    panose-1="0 0 7 0 0 0 0 0 0 0"
    ascent="800"
    descent="-200"
    x-height="495"
    cap-height="673"
    bbox="-61 -193 962 869"
    underline-thickness="50"
    underline-position="-225"
    unicode-range="U+0020-2122"
  />
<missing-glyph horiz-adv-x="670" 
 />
    <glyph glyph-name=".notdef" horiz-adv-x="670" 
 />
    <glyph glyph-name=".null" horiz-adv-x="0" 
 />
    <glyph glyph-name="nonmarkingreturn" horiz-adv-x="333" 
 />
    <glyph glyph-name="space" unicode=" " horiz-adv-x="303" 
 />
    <glyph glyph-name="exclam" unicode="!" 
d="M82 173q-3 55 -13 336q-4 99 -5 157h93q-8 -311 -16 -497h-58zM53 54q0 25 16 40.5t41 15.5t39.5 -15.5t14.5 -40.5q0 -24 -15 -39t-39 -15q-25 0 -41 15.5t-16 38.5z" />
    <glyph glyph-name="numbersign" unicode="#" horiz-adv-x="627" 
d="M451 386l-19 -103h114l-13 -67h-111l-30 -167l-72 1l29 164h-113l-31 -165l-65 1l24 165h-111l10 68l115 3l17 96l-115 1l13 67h111l29 165h71l-27 -167h109l31 165h70l-28 -162h114l-12 -67zM361 286l17 98h-111l-19 -98h113z" />
    <glyph glyph-name="dollar" unicode="$" horiz-adv-x="583" 
d="M118 201q31 -57 64 -88.5t79 -42.5l1 242q-40 13 -65.5 24.5t-56 32t-45.5 50t-15 68.5q0 71 50.5 121t131.5 58v88h73v-91q100 -17 177 -138l-59 -33q-34 44 -59.5 67t-58.5 32v-225q42 -13 68 -24t59.5 -31.5t50 -51t16.5 -70.5q0 -74 -54 -127.5t-140 -60.5v-95h-74
v95q-138 15 -208 171l62 33zM156 492q0 -65 106 -102v203q-47 -8 -76.5 -35.5t-29.5 -65.5zM335 70q49 10 82.5 41.5t33.5 70.5t-29.5 62.5t-86.5 44.5v-219z" />
    <glyph glyph-name="percent" unicode="%" horiz-adv-x="807" 
d="M213 645q69 0 101 -49t32 -120q0 -81 -36.5 -125t-96.5 -44q-59 0 -96 46t-37 122t37 123t96 47zM230 10h-68l438 623h67zM213 363q35 0 55.5 30t20.5 82t-21 83.5t-56 31.5q-32 0 -54 -33t-22 -82t22 -80.5t55 -31.5zM600 338q67 0 99.5 -49t32.5 -119
q0 -81 -36.5 -125.5t-95.5 -44.5q-60 0 -97 46t-37 122q0 77 37 123.5t97 46.5zM600 56q34 0 54 30.5t20 81.5q0 52 -20.5 83.5t-55.5 31.5q-32 0 -53.5 -32.5t-21.5 -82.5q0 -49 22 -80.5t55 -31.5z" />
    <glyph glyph-name="ampersand" unicode="&#x26;" horiz-adv-x="671" 
d="M613 54l-15 -11q-2 -1 -18 -11.5t-27 -17.5q-35 28 -51 43q-3 3 -22 19q-86 -76 -213 -76q-92 0 -151.5 48t-62.5 128v7q0 47 22 87t74 87l-7 8q-24 32 -35 56.5t-11 57.5q0 76 53 129t132 58q83 0 135 -48t52 -130q0 -60 -33.5 -107t-100.5 -67l65 -59q56 -51 65 -59
q8 38 30 114l67 -21q-7 -63 -35 -148l92 -84zM283 589q-45 -2 -77.5 -32.5t-32.5 -73.5q0 -44 35 -78t80 -35q40 4 69 39.5t31 80.5l-1 5q-1 43 -30 68t-74 26zM130 195q3 -57 40.5 -88.5t95.5 -31.5q79 0 154 56q-53 50 -144 131l-55 49q-50 -34 -70 -59.5t-21 -56.5z" />
    <glyph glyph-name="parenleft" unicode="(" horiz-adv-x="283" 
d="M226 747q-56 -140 -78.5 -230t-22.5 -178q0 -202 105 -432h-73q-36 67 -70 198t-34 231q0 89 31.5 218t73.5 200h71z" />
    <glyph glyph-name="parenright" unicode=")" horiz-adv-x="283" 
d="M131 752q41 -69 72 -200t31 -218q0 -101 -34.5 -231.5t-70.5 -195.5h-72q104 228 104 432q0 89 -23 180t-81 235h72z" />
    <glyph glyph-name="asterisk" unicode="*" horiz-adv-x="369" 
d="M237 545q36 -54 45 -66l-57 -31q-23 35 -42 67q-8 -14 -24 -40q-2 -3 -5.5 -8.5t-6.5 -10t-5 -8.5l-32 17l-7 3.5t-9.5 4.5t-7.5 4q14 24 30 48l3 6t3.5 5t4.5 7h-74v60h74l-41 65l54 31l43 -68l42 68l57 -31q-32 -48 -42 -62h75q0 -37 1 -61h-79z" />
    <glyph glyph-name="plus" unicode="+" horiz-adv-x="507" 
d="M285 122q-45 0 -64 -1v164h-168v68h164v164h71v-163h166v-68h-164v-164h-5z" />
    <glyph glyph-name="comma" unicode="," horiz-adv-x="216" 
d="M79 115q41 10 84 23l-17 -64q-25 -97 -43 -153q-14 -6 -47 -17l-23 -8q21 138 43 219h3z" />
    <glyph glyph-name="hyphen" unicode="-" horiz-adv-x="451" 
d="M53 287v65h344v-65h-344z" />
    <glyph glyph-name="period" unicode="." 
d="M53 84q0 25 15.5 40t41.5 15q25 0 39.5 -15t14.5 -40q0 -23 -15 -38.5t-39 -15.5q-25 0 -41 15.5t-16 38.5z" />
    <glyph glyph-name="slash" unicode="/" horiz-adv-x="543" 
d="M53 -97l365 851h72l-366 -851h-71z" />
    <glyph glyph-name="zero" unicode="0" horiz-adv-x="622" 
d="M313 666q67 0 117.5 -27.5t80 -75t44 -104t14.5 -120.5v-5q-2 -160 -72 -247.5t-184 -87.5q-117 0 -188.5 91t-71.5 242t71.5 242.5t188.5 91.5zM313 73q81 0 129 70t48 188q0 119 -49 190.5t-131 71.5q-78 0 -130 -74.5t-52 -186.5q0 -114 52 -186.5t133 -72.5z" />
    <glyph glyph-name="one" unicode="1" horiz-adv-x="274" 
d="M47 604q60 26 105 62h71v-666h-74v583l-100 -61z" />
    <glyph glyph-name="two" unicode="2" horiz-adv-x="533" 
d="M60 84q91 38 214 170t123 221q0 55 -35.5 86.5t-91.5 31.5q-55 0 -89 -23.5t-58 -76.5l-70 40q41 68 91.5 100.5t124.5 32.5q54 0 96 -18.5t65 -47t34.5 -55.5t13.5 -50q1 -5 1 -15q0 -52 -32 -116.5t-79.5 -119.5t-92.5 -97.5t-78 -65.5l280 1v-82h-422l2 82z" />
    <glyph glyph-name="three" unicode="3" horiz-adv-x="531" 
d="M373 350q106 -41 106 -159q0 -89 -61.5 -140t-168.5 -51q-66 0 -108 24t-85 89l70 40q30 -42 59 -62.5t74 -20.5q63 0 102.5 33.5t39.5 88.5q0 54 -45 84t-133 30h-66v75h52q35 0 60 3t52 12.5t41.5 31.5t15.5 55v2q0 48 -34.5 77.5t-91.5 29.5q-44 0 -72 -17.5
t-56 -56.5l-71 36q44 72 89 92t114 20q91 0 146 -50.5t55 -125.5q0 -44 -14.5 -77.5t-60.5 -65.5z" />
    <glyph glyph-name="four" unicode="4" horiz-adv-x="627" 
d="M574 205v-76h-111v-129h-76v129h-334q108 160 174.5 270.5t145.5 266.5h88v-461h113zM382 540q-95 -190 -194 -335h194v335z" />
    <glyph glyph-name="five" unicode="5" horiz-adv-x="553" 
d="M229 403q86 0 143.5 -17t93.5 -74q34 -51 34 -107q0 -89 -60.5 -147t-162.5 -58q-78 0 -128.5 33t-95.5 106l64 39q32 -54 68.5 -79t90.5 -26q64 4 104.5 41t42.5 91v4q-2 28 -12.5 49t-30 33.5t-39.5 21t-48.5 12t-48.5 4.5t-48 1h-112q13 160 13 336h362v-68h-290
q0 -97 -8 -195h68z" />
    <glyph glyph-name="six" unicode="6" horiz-adv-x="564" 
d="M227 428q30 12 64 12q92 0 156 -65t64 -156q0 -96 -64 -157.5t-164 -61.5q-99 0 -164.5 57.5t-65.5 175.5q2 4 2 18q0 37 46.5 116.5t82.5 127t96 125.5l36 46h84q-37 -57 -113 -166q-38 -54 -46 -66zM283 73q65 0 106.5 41t41.5 106q0 63 -41 104t-107 41t-108.5 -41
t-42.5 -104q0 -65 42.5 -106t108.5 -41z" />
    <glyph glyph-name="seven" unicode="7" horiz-adv-x="544" 
d="M58 661q71 1 214 1q149 0 220 -1q-186 -454 -272 -658h-85q98 235 159 376l89 211h-330v71h5z" />
    <glyph glyph-name="eight" unicode="8" horiz-adv-x="560" 
d="M406 349q101 -46 101 -154q0 -93 -61.5 -146.5t-161.5 -53.5q-101 0 -166 54t-65 137q0 102 98 159q-45 39 -60.5 75t-15.5 78q0 76 59.5 127.5t146.5 51.5t145.5 -51.5t58.5 -127.5q0 -42 -15 -77.5t-59 -73.5zM278 601q-57 0 -91 -28.5t-34 -77.5q0 -51 35.5 -83
t92.5 -32q56 0 91.5 31t35.5 81t-35.5 79.5t-94.5 29.5zM280 68q66 0 108 33.5t42 87.5q0 53 -40.5 85t-110.5 32q-69 0 -109.5 -31.5t-40.5 -83.5q0 -55 42.5 -89t108.5 -34z" />
    <glyph glyph-name="nine" unicode="9" horiz-adv-x="564" 
d="M334 238q-25 -12 -62 -12q-91 0 -155 65t-64 157q0 95 64 156.5t163 61.5t165 -57.5t66 -175.5q-2 -3 -2 -17q0 -81 -218 -359q-41 -54 -43 -57h-84q45 72 108 160q44 63 50 72zM280 593q-65 0 -106.5 -41t-41.5 -105q0 -63 41.5 -103.5t106.5 -40.5q67 0 109 40.5
t42 103.5q0 65 -42 105.5t-109 40.5z" />
    <glyph glyph-name="colon" unicode=":" 
d="M53 463q0 23 16 38.5t41 15.5q24 0 39 -15t15 -39q0 -25 -14.5 -39t-39.5 -14q-26 0 -41.5 14t-15.5 39zM53 84q0 25 15.5 40t41.5 15q25 0 39.5 -15t14.5 -40q0 -23 -15 -38.5t-39 -15.5q-25 0 -41 15.5t-16 38.5z" />
    <glyph glyph-name="semicolon" unicode=";" horiz-adv-x="237" 
d="M72 462q0 24 16 39.5t41 15.5q24 0 39.5 -16t15.5 -39q0 -24 -15.5 -38.5t-39.5 -14.5q-26 0 -41.5 14t-15.5 39zM178 118q-33 -125 -56 -201l-69 -17l41 224h86z" />
    <glyph glyph-name="less" unicode="&#x3c;" horiz-adv-x="494" 
d="M148 314l293 -117v-84l-388 166v72l388 161v-84z" />
    <glyph glyph-name="greater" unicode="&#x3e;" horiz-adv-x="494" 
d="M53 197l294 117l-294 114v84l388 -161v-72l-388 -166v84z" />
    <glyph glyph-name="question" unicode="?" horiz-adv-x="521" 
d="M261 666q88 0 147 -50t59 -125q0 -27 -6.5 -49t-23 -44.5t-24.5 -31t-31 -31.5q-55 -55 -114 -161q-7 1 -22 2t-17 1l-24 1q15 72 28.5 97.5t66.5 76.5q29 28 43.5 44t29.5 43.5t15 52.5q0 45 -36.5 72.5t-99.5 27.5q-43 0 -72 -19t-66 -75q-29 18 -61 34
q35 69 83.5 101.5t124.5 32.5zM191 54q0 24 15.5 39t39.5 15q25 0 41 -15.5t16 -38.5q0 -25 -16 -39.5t-41 -14.5t-40 14.5t-15 39.5z" />
    <glyph glyph-name="at" unicode="@" horiz-adv-x="782" 
d="M399 673q141 0 235.5 -93t94.5 -241q0 -86 -38 -136.5t-109 -50.5q-34 0 -52.5 11.5t-38.5 38.5l-11 14q-52 -37 -107 -37q-65 0 -110.5 50.5t-45.5 115.5t46 114t106 49q64 0 114 -37v29h69v-50q0 -49 -1 -74q-2 -20 -2 -60q0 -113 50 -113q35 0 61 44.5t26 105.5
q0 112 -85 192t-206 80q-122 0 -206 -83.5t-84 -205.5q0 -123 86.5 -206t217.5 -83q23 0 77 6q7 0 23 2q66 3 68 3h44q-88 -62 -189 -62q-166 0 -272.5 96t-106.5 243q0 144 99.5 241t246.5 97zM384 238q44 0 75 30.5t31 73.5q0 46 -31 77t-76 31q-44 0 -73.5 -31t-29.5 -76
t29.5 -75t74.5 -30z" />
    <glyph glyph-name="A" unicode="A" horiz-adv-x="618" 
d="M225 673h82q36 -87 166 -429l92 -244h-83l-80 213h-269l-75 -213h-88zM268 567l2 6q-7 -18 -40 -105q-2 -4 -26 -67.5t-41 -110.5h210z" />
    <glyph glyph-name="B" unicode="B" horiz-adv-x="592" 
d="M448 338q28 -21 45 -37.5t31.5 -46.5t14.5 -65q0 -112 -73 -165q-52 -24 -103 -24h-310v673h203q5 0 15.5 0.5t15.5 0.5h33q100 0 133 -24q85 -57 85 -157q0 -49 -15.5 -86t-68.5 -73zM459 490q0 43 -26.5 75.5t-73.5 32.5l-231 1v-229h136q36 0 56 1t50.5 7t47 18t29 36
t12.5 58zM263 70h30q10 -1 30 -1q67 0 99.5 23.5t32.5 86.5q0 45 -27.5 78t-80.5 39h-219v-224z" />
    <glyph glyph-name="C" unicode="C" horiz-adv-x="757" 
d="M395 72q121 0 247 127q23 -10 60 -31q-39 -77 -120.5 -122.5t-178.5 -45.5q-149 0 -249.5 96.5t-100.5 237.5q0 144 104 241.5t259 97.5q88 0 157 -38.5t131 -123.5l-36 -22q-2 -1 -12 -7t-14 -9q-61 71 -111.5 99t-114.5 28q-124 0 -204.5 -74.5t-80.5 -186.5
t77.5 -189.5t186.5 -77.5z" />
    <glyph glyph-name="D" unicode="D" horiz-adv-x="688" 
d="M282 673q87 0 156.5 -29.5t111 -79t63.5 -109t22 -123.5q0 -86 -27.5 -150t-75.5 -100.5t-100 -55.5t-114 -26h-265q1 46 1 144v138q-1 47 -1 143q0 179 2 248h227zM252 70q135 0 220.5 70t85.5 184q0 101 -66 181t-164 86q-27 3 -197 4v-523z" />
    <glyph glyph-name="E" unicode="E" horiz-adv-x="542" 
d="M489 673v-70h-359v-222h359v-73l-358 -1v-238h358v-69h-436v673h436z" />
    <glyph glyph-name="F" unicode="F" horiz-adv-x="542" 
d="M489 603h-359v-222h359v-73l-358 -1v-307h-78v673h436v-70z" />
    <glyph glyph-name="G" unicode="G" horiz-adv-x="789" 
d="M385 375q56 0 131.5 -0.5t99.5 -0.5h120v-14q0 -138 -76 -229.5t-211 -124.5q-28 -6 -64 -6q-137 0 -234.5 98.5t-97.5 238.5q0 143 101 239.5t251 96.5q96 0 164 -37t127 -115l8 -10q-27 -17 -63 -36q-64 72 -112.5 98.5t-110.5 26.5q-126 0 -206.5 -75t-80.5 -190
q0 -109 74.5 -185t181.5 -76q116 0 198 82q50 53 71 150q-22 0 -66 -0.5t-66 -0.5h-144v70h5z" />
    <glyph glyph-name="H" unicode="H" horiz-adv-x="605" 
d="M53 0v673h73v-293h353v293h73v-673h-72v308h-354v-308h-73z" />
    <glyph glyph-name="I" unicode="I" horiz-adv-x="180" 
d="M52 0v673h75v-673h-75z" />
    <glyph glyph-name="J" unicode="J" horiz-adv-x="538" 
d="M483 312q1 -19 1 -54q0 -80 -15 -131t-60 -83q-64 -44 -156 -44q-64 0 -108 22t-92 84l57 50q39 -50 67 -66.5t84 -16.5q74 0 108.5 43.5t34.5 148.5v131q0 147 -2 277h81v-361z" />
    <glyph glyph-name="K" unicode="K" horiz-adv-x="582" 
d="M199 348q67 -68 148 -156q100 -108 182 -192q-82 0 -105 -1q-140 151 -295 301v-300h-76v673h75q1 -50 1 -156v-138q73 80 204 208q58 56 88 86h104z" />
    <glyph glyph-name="L" unicode="L" horiz-adv-x="523" 
d="M468 63q0 -20 1 -30v-33h-416v673h75v-605h340v-5z" />
    <glyph glyph-name="M" unicode="M" horiz-adv-x="722" 
d="M594 128q0 88 1 131v122q0 107 -1 167q-61 -91 -141 -226q-37 -63 -93 -154q-11 18 -34.5 57t-34.5 56q-104 174 -162 264q-1 -53 -1 -207v-92v-247h-75q0 157 1 232v219q0 151 -1 223h88q82 -128 218 -357q43 68 111 180q105 169 110 177h89v-673h-75v128z" />
    <glyph glyph-name="N" unicode="N" horiz-adv-x="610" 
d="M557 668q-1 -163 -1 -668h-63q-64 89 -176 255q-131 194 -189 272v-527h-73q-1 108 -1 337q0 228 -1 336h65q229 -330 359 -528v528h80v-5z" />
    <glyph glyph-name="O" unicode="O" horiz-adv-x="803" 
d="M403 673q145 0 246 -96.5t101 -237.5q0 -139 -101 -239t-245 -100q-146 0 -248.5 100t-102.5 239t102 236.5t248 97.5zM401 70q112 0 191.5 81t79.5 191q0 109 -77.5 183.5t-191.5 74.5q-115 0 -194 -75t-79 -184t80 -190t191 -81z" />
    <glyph glyph-name="P" unicode="P" horiz-adv-x="583" 
d="M53 673l291 2q87 0 136.5 -60.5t49.5 -150.5t-49 -152t-139 -63l-216 -1l2 -248h-75v673zM276 326q4 0 11 -0.5t10 -0.5q36 0 60 4t48 17.5t36 42.5t12 75q0 62 -29.5 98.5t-79.5 36.5h-216v-273h148z" />
    <glyph glyph-name="Q" unicode="Q" horiz-adv-x="807" 
d="M407 673q144 0 245 -100t101 -245q0 -59 -20 -108.5t-74 -123.5l68 -69l-7 -7l-9 -9l-7 -7l-34 -32l-73 75q-68 -30 -108 -41.5t-84 -11.5q-149 0 -250.5 94.5t-101.5 237.5q0 145 103.5 246t250.5 101zM599 150q78 77 78 174q0 117 -79.5 196.5t-192.5 79.5t-194 -79.5
t-81 -191.5q0 -109 78.5 -184t187.5 -75q72 0 144 36q-49 53 -112 116q-3 3 -9.5 10t-12.5 12.5t-10 9.5q34 34 58 55l148 -156z" />
    <glyph glyph-name="R" unicode="R" horiz-adv-x="602" 
d="M126 248l2 -248h-75v673h291q88 0 137 -59t49 -150q0 -68 -28 -122t-83 -77l129 -265h-85l-122 248h-215zM453 464q0 64 -29.5 102t-79.5 38h-216v-278h150q4 0 11 -0.5t11 -0.5q36 0 59.5 4t47 17.5t35 42.5t11.5 75z" />
    <glyph glyph-name="S" unicode="S" horiz-adv-x="588" 
d="M157 501q0 -47 52 -78q31 -18 111 -43q37 -12 60 -20t56 -25t51.5 -35.5t32.5 -47.5t14 -64q0 -79 -61.5 -133.5t-158.5 -54.5h-26q-158 0 -235 173l63 32q37 -69 79 -104.5t107 -35.5q60 0 107 35t47 80q0 21 -10.5 38.5t-22.5 28.5t-39.5 24t-42.5 18.5t-51 18.5
q-83 29 -119 49q-91 50 -91 138q0 77 59.5 127.5t151.5 50.5q71 0 124.5 -32.5t101.5 -106.5l-59 -35q-25 30 -36.5 42.5t-32.5 30.5t-43.5 24.5t-51.5 6.5q-60 0 -98.5 -29t-38.5 -73z" />
    <glyph glyph-name="T" unicode="T" horiz-adv-x="591" 
d="M53 673h483l2 -68h-205l2 -605h-76v604h-206v69z" />
    <glyph glyph-name="U" unicode="U" horiz-adv-x="613" 
d="M558 611v-117q1 -44 1 -138q0 -78 -1 -104q-6 -113 -77.5 -182.5t-176.5 -69.5q-96 0 -168 58.5t-80 153.5q-3 23 -3 104q0 124 1 186q1 42 1 126v45h74l-1 -292q-1 -23 -1 -69q0 -39 3 -68.5t13.5 -63t28.5 -55t51 -35.5t79 -14q84 0 130 48.5t49 145.5v403h77v-62z" />
    <glyph glyph-name="V" unicode="V" horiz-adv-x="680" 
d="M340 110q93 243 177 489q21 59 27 74h82q-149 -442 -252 -673h-72q-3 8 -17 46t-21 58q-117 312 -211 569h78q60 -135 150 -395q44 -127 59 -168z" />
    <glyph glyph-name="W" unicode="W" horiz-adv-x="1015" 
d="M721 117q77 247 130 452q19 74 30 104h81q-41 -141 -62 -216q-98 -340 -134 -457h-83q-53 143 -131 404q-30 99 -44 143q-29 -90 -112 -357q-44 -142 -59 -190h-81l-54 160q-80 265 -149 513h82q22 -68 69 -238q59 -210 92 -318q29 88 74 240q62 206 99 316h79
q42 -113 112 -352q38 -131 61 -204z" />
    <glyph glyph-name="X" unicode="X" horiz-adv-x="638" 
d="M365 353q126 -195 219 -353h-87q-4 4 -17 27q-124 191 -162 245q-36 -54 -101 -158q-56 -90 -74 -114h-90l217 356l-30 53q-27 46 -77 118q-57 85 -93 146h85q9 -12 58 -88q67 -107 105 -162l172 250h82q-20 -31 -115 -178q-62 -93 -92 -142z" />
    <glyph glyph-name="Y" unicode="Y" horiz-adv-x="668" 
d="M335 359l195 314h85l-243 -393v-280h-76v279l-243 394h87z" />
    <glyph glyph-name="Z" unicode="Z" horiz-adv-x="566" 
d="M513 673l-324 -603h314v-70h-450l335 602h-331v71h456z" />
    <glyph glyph-name="bracketleft" unicode="[" horiz-adv-x="297" 
d="M244 682h-119v-708h119v-63h-191v838h191v-67z" />
    <glyph glyph-name="bracketright" unicode="]" horiz-adv-x="297" 
d="M53 -89v63h119v708h-119v67h191v-838h-191z" />
    <glyph glyph-name="asciicircum" unicode="^" horiz-adv-x="525" 
d="M258 591l-131 -220h-74l178 294h55l186 -294h-75z" />
    <glyph glyph-name="underscore" unicode="_" horiz-adv-x="527" 
d="M53 -60h421v-64h-421v64z" />
    <glyph glyph-name="a" unicode="a" horiz-adv-x="613" 
d="M558 482l2 -482h-72v70q-34 -34 -74.5 -52t-66.5 -21t-63 -3q-91 0 -161 76.5t-70 175.5t70.5 174t164.5 75q54 0 100.5 -15t99.5 -64v66h70zM307 64q76 0 128.5 53t52.5 128t-53.5 128t-127.5 53q-75 0 -127.5 -54t-52.5 -132q0 -74 52 -125t128 -51z" />
    <glyph glyph-name="b" unicode="b" horiz-adv-x="609" 
d="M299 493q109 0 183 -72t74 -175t-71.5 -178.5t-170.5 -75.5q-114 0 -193 85v-77h-68v666h68v-252q29 41 77.5 60t100.5 19zM302 64q75 0 128 53t53 127q0 73 -54 126t-127 53q-74 0 -126 -53t-52 -128t52 -126.5t126 -51.5z" />
    <glyph glyph-name="c" unicode="c" horiz-adv-x="578" 
d="M521 117q-77 -123 -213 -123q-108 0 -181.5 72t-73.5 179q0 108 69.5 179t181.5 71q138 0 219 -127l-56 -35q-39 48 -75 69.5t-86 21.5q-79 0 -129 -50t-50 -128q0 -74 51 -126.5t121 -52.5q101 0 168 90l57 -35z" />
    <glyph glyph-name="d" unicode="d" horiz-adv-x="609" 
d="M310 495q51 0 100.5 -19.5t78.5 -59.5v250h67v-666h-67v78q-78 -84 -193 -84q-98 0 -170.5 75t-72.5 178q0 104 74 176t183 72zM308 65q74 0 126 52t52 127q0 74 -52.5 127t-125.5 53q-74 0 -127.5 -53t-53.5 -126q0 -75 52.5 -127.5t128.5 -52.5z" />
    <glyph glyph-name="e" unicode="e" horiz-adv-x="599" 
d="M129 208q31 -143 175 -143q53 0 90.5 17.5t72.5 59.5l56 -33q-32 -53 -88.5 -84t-124.5 -31q-111 0 -184 71t-73 179q0 106 72 178.5t178 72.5q107 0 174.5 -74.5t67.5 -191.5l-2 -21h-414zM304 422q-137 0 -173 -142h335q-26 142 -162 142z" />
    <glyph glyph-name="f" unicode="f" horiz-adv-x="389" 
d="M53 495h78v13q0 83 25 120t105 37l55 -1v-68h-49q-43 0 -55.5 -22.5t-12.5 -68.5q1 -3 1 -10h135v-69h-133v-426h-71v426h-78v69z" />
    <glyph glyph-name="g" unicode="g" horiz-adv-x="612" 
d="M557 482v-436q-5 -125 -68 -182t-190 -57q-65 0 -114.5 26.5t-100.5 91.5l62 38q32 -41 66 -61t53.5 -23t54.5 -3q82 0 128 51q37 44 37 146q-36 -48 -80 -63.5t-98 -15.5q-108 0 -181 70.5t-73 171.5v23q0 93 72.5 165t166.5 72q117 0 193 -82v68h72zM306 67
q74 0 126 50.5t52 124.5q0 76 -53 128.5t-127 52.5t-126.5 -52t-52.5 -126q0 -75 52 -126.5t129 -51.5z" />
    <glyph glyph-name="h" unicode="h" horiz-adv-x="514" 
d="M272 496q83 0 136 -46q32 -30 42 -79t10 -118v-33v-32q0 -9 -0.5 -33.5t-0.5 -39.5q0 -17 -0.5 -56t-0.5 -59h-68l1 184q0 4 0.5 14t0.5 14v39q0 29 -2.5 51.5t-10 46t-21 39t-36.5 25.5t-54 11q-31 -1 -54.5 -11t-39 -23t-26 -36.5t-16 -42t-8 -49.5t-3 -48.5
t-0.5 -49.5q0 -6 0.5 -16t0.5 -15v-133h-69v666h69v-171v-34v-17q48 52 150 52z" />
    <glyph glyph-name="i" unicode="i" horiz-adv-x="208" 
d="M53 616q0 22 13.5 36t36.5 14q24 0 38 -13.5t14 -36.5q0 -22 -14 -35t-38 -13q-23 0 -36.5 13t-13.5 35zM136 0h-67v482h67v-482z" />
    <glyph glyph-name="j" unicode="j" horiz-adv-x="287" 
d="M131 616q0 23 14.5 36.5t36.5 13.5q23 0 37 -13.5t14 -36.5q0 -22 -14 -35t-37 -13q-22 0 -36.5 13.5t-14.5 34.5zM214 -9q0 -125 -38 -158q-26 -24 -92 -24h-31v70q14 0 19 -1q2 0 6.5 -0.5t6.5 -0.5q28 0 46 15q15 15 15 79q0 14 1 21v96v56v338h68z" />
    <glyph glyph-name="k" unicode="k" horiz-adv-x="504" 
d="M121 666v-394l227 223h88l-256 -248l270 -247h-92l-238 216v-216h-67v666h68z" />
    <glyph glyph-name="l" unicode="l" horiz-adv-x="173" 
d="M121 0h-67l-2 666h69v-666z" />
    <glyph glyph-name="m" unicode="m" horiz-adv-x="791" 
d="M551 495q47 0 90.5 -18.5t66.5 -53.5q30 -48 30 -177v-34v-32l-2 -180h-70v277q0 147 -113 147q-32 0 -55 -12.5t-34.5 -28.5t-19 -41.5t-9.5 -39.5t-3 -35q0 -5 -0.5 -11t-0.5 -7v-249h-75l2 253q-1 171 -110 171q-33 0 -56.5 -13t-36.5 -33t-20.5 -51.5t-9.5 -58.5
t-2 -65v-38q0 -6 0.5 -18t0.5 -17v-130h-71l2 495h69v-46q24 30 51 38t72 8q91 0 147 -76q28 43 64.5 59.5t92.5 16.5z" />
    <glyph glyph-name="n" unicode="n" horiz-adv-x="516" 
d="M268 495q74 0 126 -41t64 -110q5 -30 5 -92v-252h-71v210q1 10 1 30q0 89 -26 137.5t-95 48.5q-49 0 -81 -14t-46 -40t-19 -50t-5 -57v-30q0 -5 0.5 -13t0.5 -11v-211h-69l2 495h69l-2 -57q45 57 146 57z" />
    <glyph glyph-name="o" unicode="o" horiz-adv-x="613" 
d="M310 495q104 0 177 -71.5t73 -173.5q0 -104 -72.5 -177t-179.5 -73t-181 73t-74 176q0 102 75 174t182 72zM308 69q76 0 128 53.5t52 127.5q0 72 -53.5 124t-127.5 52q-75 0 -127.5 -52t-52.5 -125q0 -75 52.5 -127.5t128.5 -52.5z" />
    <glyph glyph-name="p" unicode="p" horiz-adv-x="608" 
d="M299 0q-51 0 -100 19.5t-78 59.5v-271h-68v674h68v-63q72 77 183 77q99 0 175 -76t76 -175q0 -103 -73.5 -174t-182.5 -71zM301 426q-74 0 -126.5 -52.5t-52.5 -126.5q0 -73 52.5 -125t126.5 -52t127 52t53 125t-53 126t-127 53z" />
    <glyph glyph-name="q" unicode="q" horiz-adv-x="608" 
d="M310 -6q-110 0 -183.5 71.5t-73.5 175.5q0 103 72 178.5t171 75.5q113 0 192 -85v72h67v-674h-67v265q-29 -40 -78 -59.5t-100 -19.5zM307 423q-75 0 -127.5 -52.5t-52.5 -126.5t53 -127t128 -53q73 0 125.5 53.5t52.5 127.5t-52.5 126t-126.5 52z" />
    <glyph glyph-name="r" unicode="r" horiz-adv-x="350" 
d="M112 430q31 40 75.5 52.5t109.5 12.5v-76q-16 4 -35 4q-55 0 -96.5 -24t-41.5 -72v-48v-104v-175h-71v482h68v-40z" />
    <glyph glyph-name="s" unicode="s" horiz-adv-x="474" 
d="M148 356q0 -17 8.5 -29.5t27.5 -21.5t34 -14t44 -13q32 -9 47 -13.5t41 -16t38 -24t22.5 -33.5t10.5 -47q0 -64 -49 -104t-133 -40q-58 0 -100 23.5t-86 86.5l59 38q31 -44 57 -60.5t72 -16.5q50 0 78.5 18.5t28.5 49.5q0 22 -19 37.5t-37.5 22t-59.5 18.5
q-30 8 -46.5 13t-41.5 16.5t-38 23.5t-23 32.5t-10 46.5q0 65 46 105.5t124 40.5q48 0 84 -20t88 -78l-58 -39q-24 26 -35.5 37t-32 20t-47.5 9q-42 0 -68 -18.5t-26 -49.5z" />
    <glyph glyph-name="t" unicode="t" horiz-adv-x="413" 
d="M226 176q0 -56 15 -81.5t56 -25.5q26 0 63 10v-69q-2 -1 -8 -2t-8 -1q-40 -7 -60 -7q-77 0 -104.5 45t-27.5 129v250h-99v71h99v121h74v-121h134v-71h-134v-248z" />
    <glyph glyph-name="u" unicode="u" horiz-adv-x="516" 
d="M247 -6q-72 0 -125.5 42t-64.5 111q-4 29 -4 91v257h69v-214q-1 -11 -1 -32q0 -88 27 -136.5t96 -48.5q49 0 81 14t46 40t19 50.5t5 57.5v30q0 4 -0.5 12.5t-0.5 11.5v215h69l-1 -495h-70l2 51q-50 -57 -147 -57z" />
    <glyph glyph-name="v" unicode="v" horiz-adv-x="579" 
d="M451 495h75l-200 -495h-78l-195 495h78l157 -404z" />
    <glyph glyph-name="w" unicode="w" horiz-adv-x="786" 
d="M53 495h78l108 -383l124 383h66l120 -382l112 382h72l-151 -495h-68l-121 362l-117 -362h-74z" />
    <glyph glyph-name="x" unicode="x" horiz-adv-x="558" 
d="M321 245l184 -245h-81l-144 189l-145 -189h-82l185 245l-185 250h80l147 -198l145 198h80z" />
    <glyph glyph-name="y" unicode="y" horiz-adv-x="579" 
d="M386 110q-10 -28 -11 -30q-23 -64 -34.5 -92t-33 -64t-49.5 -65q-49 -51 -132 -51v65q57 9 93.5 45.5t36.5 83.5q0 23 -28 82q-19 39 -35 76l-140 335h75l173 -400q27 65 93 249q32 92 55 151h77z" />
    <glyph glyph-name="z" unicode="z" horiz-adv-x="491" 
d="M438 495l-256 -426h253v-69h-382l263 424h-238v71h360z" />
    <glyph glyph-name="braceleft" unicode="{" horiz-adv-x="383" 
d="M224 227q0 -33 -2 -85q-1 -22 -1 -58q0 -55 13.5 -76.5t66.5 -34.5q15 -3 28 -8l-1 -59h-41q-43 0 -71 14.5t-41.5 42.5t-18.5 58.5t-5 74.5q0 32 1 48t1 47q0 48 -14 71.5t-59 37.5q-3 1 -11 4t-14 5q0 19 -1 27l-1 28l52 16q34 11 40.5 17t6.5 30q0 25 -2 71
q0 11 -0.5 32t-0.5 31q0 81 16.5 128.5t66.5 65.5q32 10 94 10q0 -33 4 -60q-14 -5 -29 -8q-52 -11 -65.5 -31.5t-13.5 -73.5v-18q0 -37 1 -54v-44q0 -53 -9.5 -78.5t-46.5 -62.5q42 -44 49.5 -58.5t7.5 -49.5z" />
    <glyph glyph-name="bar" unicode="|" horiz-adv-x="218" 
d="M145 1h-71v651h71v-651z" />
    <glyph glyph-name="braceright" unicode="}" horiz-adv-x="383" 
d="M160 227q0 35 7.5 49.5t48.5 58.5l-4 4q-33 32 -42 59t-9 78q0 28 1 44q0 8 0.5 26t0.5 28v18q0 53 -14 73.5t-65 31.5q-18 4 -29 7q2 28 2 61q63 0 96 -10q48 -17 64.5 -64.5t16.5 -128.5q0 -41 -1 -63q0 -12 -0.5 -35.5t-0.5 -36.5q0 -24 6 -30t40 -17q39 -12 53 -16
l-1 -27v-28q-5 -2 -13.5 -4.5t-11.5 -4.5q-47 -14 -60.5 -38.5t-13.5 -75.5q0 -29 1 -45q1 -15 1 -45q0 -44 -5 -74.5t-18.5 -58.5t-41.5 -42.5t-71 -14.5h-41l-1 59q2 1 13 4t16 4q51 13 65 33.5t14 73.5q0 8 -0.5 27.5t-0.5 31.5q-2 54 -2 88z" />
    <glyph glyph-name="yen" unicode="&#xa5;" horiz-adv-x="600" 
d="M529 230h-194v-78h194v-43h-194v-98h-72v98h-194v43h194v78h-194v44h194v30l-242 362h74l203 -306l206 306h75l-244 -360v-32h194v-44z" />
    <glyph glyph-name="copyright" unicode="&#xa9;" horiz-adv-x="776" 
d="M723 332q0 -138 -91.5 -238.5t-238.5 -100.5q-136 0 -238 102t-102 237q0 133 102.5 235.5t237.5 102.5q147 0 238.5 -100.5t91.5 -237.5zM672 332q0 114 -77.5 200.5t-200.5 86.5q-112 0 -199.5 -87.5t-87.5 -199.5q0 -110 88 -196t199 -91h3q118 5 196.5 91t78.5 196z
M395 161q-67 0 -116.5 51.5t-49.5 119.5t50 119t116 51q71 0 138 -61l-46 -50q-44 45 -88 45q-40 0 -70 -31t-30 -73q0 -43 29 -74t71 -31t88 44l45 -49q-63 -61 -137 -61z" />
    <glyph glyph-name="guillemotleft" unicode="&#xab;" horiz-adv-x="450" 
d="M244 156h-84l-107 174l108 170h81l-110 -170zM397 156h-83l-107 173l107 171h82l-110 -171z" />
    <glyph glyph-name="registered" unicode="&#xae;" horiz-adv-x="770" 
d="M716 325q0 -131 -101 -231.5t-230 -100.5q-131 0 -231.5 100.5t-100.5 231.5q0 129 101 229.5t231 100.5q128 0 229.5 -101t101.5 -229zM663 325q0 109 -84.5 193.5t-193.5 84.5t-194 -84.5t-85 -193.5t85 -194t194 -85q107 0 191.5 85.5t86.5 193.5zM386 279h-56v-116
h-59v320h119q51 0 83 -25.5t32 -75.5q0 -71 -58 -94l83 -125h-71zM330 332h59q58 0 58 50q0 47 -58 47h-59v-97z" />
    <glyph glyph-name="guillemotright" unicode="&#xbb;" horiz-adv-x="450" 
d="M164 329l-109 171h81l108 -171l-108 -173h-83zM317 330l-109 170h82l107 -170l-107 -174h-83z" />
    <glyph glyph-name="divide" unicode="&#xf7;" horiz-adv-x="458" 
d="M176 451q0 24 15 39t41 15q24 0 39 -15t15 -39t-14.5 -39t-39.5 -15q-26 0 -41 15t-15 39zM53 287v65h352v-65h-352zM176 187q0 24 15 39.5t41 15.5q24 0 39 -15.5t15 -39.5t-14.5 -38.5t-39.5 -14.5q-26 0 -41 14.5t-15 38.5z" />
    <glyph glyph-name="tilde" unicode="&#x2dc;" horiz-adv-x="519" 
d="M442 581q0 -65 -28.5 -101.5t-73.5 -36.5q-46 0 -74 28l-32 31q-27 29 -47 29q-22 0 -34 -24t-12 -59h-57v15q0 65 27.5 101t74.5 36q30 0 49.5 -12.5t43.5 -39.5q35 -37 60 -37q20 0 32 23.5t13 59.5h58v-13z" />
    <glyph glyph-name="endash" unicode="&#x2013;" horiz-adv-x="582" 
d="M53 161v65h476v-65h-476z" />
    <glyph glyph-name="quoteleft" unicode="&#x2018;" horiz-adv-x="232" 
d="M116 724q36 16 63 23q-19 -117 -39 -227q-16 2 -41 2q-20 0 -46 -2q1 2 20 73q23 88 42 131h1z" />
    <glyph glyph-name="quoteright" unicode="&#x2019;" horiz-adv-x="236" 
d="M113 538q-35 -14 -55 -19q19 117 39 227q16 -2 41 -2q20 0 46 2l-19 -70q-21 -86 -44 -135z" />
    <glyph glyph-name="quotesinglbase" unicode="&#x201a;" horiz-adv-x="229" 
d="M95 124q56 0 82 -2q-1 -4 -17 -64q-22 -90 -40 -132q-6 -4 -44 -23q-19 -8 -23 -10q9 79 31 193l7 38h4z" />
    <glyph glyph-name="quotedblleft" unicode="&#x201c;" horiz-adv-x="363" 
d="M250 727q32 14 62 23q-14 -91 -28 -168l-10 -60q-16 3 -41 3q-26 0 -46 -3l17 64q25 99 44 140zM123 724q36 16 62 23q-14 -95 -28 -173l-10 -54q-26 2 -42 2q-19 0 -45 -2q3 10 17 66q25 97 45 138h1z" />
    <glyph glyph-name="quotedblright" unicode="&#x201d;" horiz-adv-x="364" 
d="M255 544q-33 -15 -61 -23q4 29 27 168q1 8 5 29t6 31q17 -3 41 -3q26 0 46 3q-1 -3 -17 -64q-24 -94 -45 -141h-2zM127 541q-35 -16 -61 -22q14 95 28 173l10 54q26 -2 42 -2q26 0 45 2q-4 -12 -10.5 -38t-6.5 -27q-25 -98 -45 -140h-2z" />
    <glyph glyph-name="quotedblbase" unicode="&#x201e;" horiz-adv-x="361" 
d="M54 -97q5 47 29 182q5 18 8 39h86q-3 -8 -17 -63q-22 -92 -41 -136q-20 -13 -48 -23q-2 -1 -9.5 -4t-8.5 -3zM227 121q19 1 81 1q-8 -30 -15 -60q-20 -88 -41 -132q-15 -14 -41 -25q-3 -1 -25 -12q4 62 27 178q2 7 3.5 16t3.5 19l3 15h4z" />
    <glyph glyph-name="ellipsis" unicode="&#x2026;" horiz-adv-x="652" 
d="M270 84q0 25 15.5 40t39.5 15q26 0 42 -15t16 -40q0 -23 -16.5 -38.5t-41.5 -15.5q-24 0 -39.5 15.5t-15.5 38.5zM488 84q0 26 15 40.5t40 14.5t40 -14.5t15 -40.5q0 -23 -15 -38.5t-40 -15.5t-40 15.5t-15 38.5zM53 82q0 25 16 40.5t41 15.5t39.5 -15.5t14.5 -40.5
q0 -24 -15 -39t-39 -15q-25 0 -41 15.5t-16 38.5z" />
    <glyph glyph-name="guilsinglleft" unicode="&#x2039;" horiz-adv-x="296" 
d="M244 156h-84l-107 174l108 170h81l-108 -170z" />
    <glyph glyph-name="guilsinglright" unicode="&#x203a;" horiz-adv-x="297" 
d="M163 330l-108 170h81l108 -170l-108 -174h-83z" />
    <glyph glyph-name="Euro" unicode="&#x20ac;" horiz-adv-x="579" 
d="M445 618q-82 0 -147.5 -41.5t-102.5 -119.5h331l-23 -63l-325 4q-3 -32 -3 -49q0 -25 4 -52h347l-31 -58h-298q38 -77 102.5 -117.5t144.5 -40.5q45 0 101 17v-62q-52 -17 -112 -17q-105 0 -190 59t-121 161h-101l1 56l86 2q-3 36 -3 52q0 10 3 49h-84v59h96
q35 103 121 163t195 60q71 0 123 -20v-63q-63 21 -114 21z" />
    <glyph glyph-name="trademark" unicode="&#x2122;" horiz-adv-x="743" 
d="M543 673q-11 -17 -31 -51q-35 -60 -55 -90q-35 56 -74 121l-3.5 7t-7.5 12v-87v-51q0 -46 -1 -62h-53l1 107v91v49h-108v-248h-57v248h-108v55h273v-3h53q43 -66 85 -138q20 33 37 62l47 76h54v-299h-52v201z" />
    <glyph glyph-name="fraction" horiz-adv-x="315" 
d="M-61 19l365 850h72l-366 -850h-71z" />
    <glyph glyph-name="exclamdown" 
d="M53 612q0 24 16 39t41 15t39.5 -15t14.5 -39q0 -25 -14.5 -40t-39.5 -15q-26 0 -41.5 15t-15.5 40zM141 498q8 -185 16 -498h-93q4 221 19 498h58z" />
    <glyph glyph-name="questiondown" horiz-adv-x="521" 
d="M191 612q0 25 15 39.5t40 14.5t41 -14.5t16 -39.5q0 -23 -16 -38t-41 -15t-40 15t-15 38zM261 0q-75 0 -124.5 33t-83.5 101q32 16 61 34q37 -56 66 -75t72 -19q63 0 99.5 27.5t36.5 73.5q0 25 -15 52t-29.5 43t-43.5 44q-53 51 -66.5 76.5t-28.5 97.5q3 0 12 1t12 1
q15 0 39 2q57 -103 114 -161q27 -27 40.5 -42t29 -47t15.5 -66q0 -76 -59 -126t-147 -50z" />
    <glyph glyph-name="CR" horiz-adv-x="286" 
 />
    <glyph glyph-name="cent" horiz-adv-x="578" 
d="M522 117q-71 -110 -186 -121v-79h-66v80q-95 13 -156 81.5t-61 166.5q0 99 58.5 167.5t156.5 79.5v91h68v-90q115 -11 187 -125l-56 -35q-65 79 -131 89v-353q74 11 131 88l57 -35zM127 246q0 -67 40.5 -116.5t101.5 -60.5l-1 351q-64 -10 -102.5 -57.5t-38.5 -116.5z
" />
    <glyph glyph-name="sterling" horiz-adv-x="541" 
d="M430 485q-2 53 -40 88.5t-93 35.5q-58 0 -96 -38.5t-38 -96.5v-129h219l-37 -59h-182v-225h293v120h64v-181h-499v48l70 12v226h-60v59h60v134q0 87 57.5 142t148.5 55q87 0 141.5 -54.5t55.5 -141.5h-64v5z" />
    <glyph glyph-name="greaterequal" horiz-adv-x="311" 
d="M-38 312l294 117l-294 114v84l388 -161v-72l-388 -166v84z" />
    <glyph glyph-name="lessequal" horiz-adv-x="311" 
d="M57 429l293 -117v-84l-388 166v72l388 161v-84z" />
    <glyph glyph-name="NULL" horiz-adv-x="286" 
 />
    <glyph glyph-name="_FSHallmark" horiz-adv-x="754" 
d="M71 529v74h630v-74h-630zM619 388q0 14 -16.5 27t-38.5 13q-20 0 -36 -9.5t-16 -21.5q0 -17 9 -26.5t39 -17.5l27 -6q27 -6 37.5 -9t28.5 -9.5t25.5 -13.5t14 -18.5t7.5 -27.5q1 -42 -36.5 -68t-98.5 -26q-68 0 -103.5 34t-35.5 79l73 -1q0 -8 4 -18t21 -21.5t44 -11.5
q24 0 39.5 8.5t15.5 19.5q0 22 -60 36q-56 14 -92 33q-38 20 -38 63q0 41 37.5 67t94.5 26q60 0 95 -30.5t35 -70.5h-76zM154 277v-102h-83v313h265v-71h-182v-70h151v-70h-151zM329 213q0 15 11 26t27 11q17 0 29.5 -11t12.5 -26q0 -16 -12 -26t-30 -10q-16 0 -27 10.5
t-11 25.5zM69 61v75h631v-75h-631z" />
    <glyph glyph-name="_Fontastica" horiz-adv-x="754" 
d="M218 113h-87q-1 1 -1 4v510h382v-78h-294v-210h295v-79h-295v-147zM273 481h296v146h87v-513h-383v78h296v210h-296v79zM569 63q-11 -7 -1 -19q3 -4 9 -4q7 0 14 4l4 -4q-6 -9 -18 -9q-8 0 -16 5q-6 6 -6.5 16t5.5 17q8 8 17 8q10 0 18 -8l-4 -6q-10 5 -12 5h-2
q-6 -2 -8 -5zM131 76h32v-8h-21v-12h20v-7h-20v-17h-11v44zM203 76q15 0 22 -12q7 -8 1.5 -20t-18.5 -13q-4 -2 -6 -2q-6 0 -9 3q-14 6 -14 19q0 11 7 18t17 7zM288 76v-44q-2 0 -3.5 -0.5t-2.5 -0.5q-3 0 -7 5q-7 10 -17 23v-27h-10v44q10 0 13 -6l9 -12l9 -12v30h9z
M307 76h37v-8h-14v-36h-9v36h-14v8zM444 55q9 -1 9 -10q2 -8 -8 -13q-2 -1 -8 -1q-14 0 -21 7l3 6l14 -4h6l2 1q1 0 1 1q0 4 -2 5q-1 2 -8 4l-2 1q-3 1 -4 1q-7 2 -7 10q-1 7 6 11q3 2 10 2q11 0 18 -4l-4 -8q-2 1 -5.5 2.5t-4.5 1.5h-6q-3 0 -3 -3q-2 -2 3 -6q6 -1 11 -4z
M468 76h38v-8h-14v-36h-10v36h-14v8zM524 76h11v-44h-11v44zM640 76q2 -4 8 -19.5t11 -24.5h-10l-4 9h-21l-4 -9h-10q10 20 18 44h12zM382 74q9 -17 18 -42h-10l-3 9h-20q-2 -7 -4 -9h-9q5 13 18 42h10zM216 54q0 14 -12 14q-1 0 -2.5 -0.5t-2.5 -0.5q-15 -7 -9 -18
q3 -10 13 -10q3 0 4 1q9 2 9 13v1zM384 49q-6 9 -7 16l-8 -16h15zM641 49q-2 2 -3.5 8t-3.5 8l-7 -16h14z" />
    </font>
</defs>
</svg>
